{
.appVersion = "3260";
DisplayStrings = (
"/lambdastroke/lambdastroke.ss01/lambdastroke.sc/lambdastroke.sc.ss01/Lambda/lambda/lambda.sc/Lambdastroke.ss01",
"/cedillacomb Ç/Ccedillaacute/Ecedilla/Ecedillabreve/Scedilla/Tcedilla/Ecedillabreve.ss01/Tcedilla.ss01 ç/ccedillaacute/ecedilla/ecedillabreve/scedilla/tcedilla/ecedilla.ss01/ecedillabreve.ss01/tcedilla.ss01/ccedilla.sc/ccedillaacute.sc/ecedilla.sc/ecedillabreve.sc/Hcedilla/hcedilla/h.sc/h.sc/hcedilla.sc/scedilla.sc/tcedilla.sc/ecedilla.sc.ss01/ecedillabreve.sc.ss01/tcedilla.sc.ss01/Esdescender-cy.loclCHU/zedescender-cy.loclBSH/esdescender-cy.loclCHU ¸",
"/Eng.ss01/Eng",
"/Tdiagonalstroke/Tdiagonalstroke.ss01/tdiagonalstroke/tdiagonalstroke.ss01/tdiagonalstroke.sc/tdiagonalstroke.sc.ss01",
"/quotedblrightreversed/quotedblright",
"/quotereversed a/quotereversed u/quoteleft/space/quotedblrightreversed/quotedblright/quotedblrightreversed"
);
classes = (
{
automatic = 1;

glyphs = (
{
glyphname = A;
layers = (
{
anchors = (
{
name = bottom;
position = "{344, 0}";
},
{
name = ogonek;
position = "{679, 0}";
},
{
name = top;
position = "{344, 700}";
},
{
name = topleft;
position = "{106, 700}";
}
);
layerId = UUID0;
paths = (
{
closed = 1;
nodes = (
"32 0 LINE",
"349 684 LINE",
"339 684 LINE",
"656 0 LINE",
"679 0 LINE",
"354 700 LINE",
"334 700 LINE",
"9 0 LINE"
);
},
{
closed = 1;
nodes = (
"571 211 LINE",
"561 230 LINE",
"126 230 LINE",
"116 211 LINE"
);
}
);
width = 688;
},
{
anchors = (
{
name = bottom;
position = "{403, 0}";
},
{
name = ogonek;
position = "{825, 0}";
},
{
name = top;
position = "{403, 700}";
},
{
name = topleft;
position = "{121, 701}";
}
);
guideLines = (
{
angle = 245.556;
position = "{234, 56}";
}
);
layerId = "5DA6E103-6A94-47F2-987D-4952DB8EA68E";
paths = (
{
closed = 1;
nodes = (
"221 0 LINE",
"447 588 LINE",
"355 588 LINE",
"581 0 LINE",
"825 0 LINE",
"519 700 LINE",
"287 700 LINE",
"-19 0 LINE"
);
},
{
closed = 1;
nodes = (
"605 122 LINE",
"545 292 LINE",
"223 292 LINE",
"163 122 LINE"
);
}
);
width = 806;
},
{
anchors = (
{
name = bottom;
position = "{370, 0}";
},
{
name = ogonek;
position = "{743, 0}";
},
{
name = top;
position = "{370, 700}";
},
{
name = topleft;
position = "{113, 700}";
}
);
layerId = "708134FE-A11E-43C9-84F0-594DA15B6BD1";
paths = (
{
closed = 1;
nodes = (
"115 0 LINE",
"392 637 LINE",
"346 637 LINE",
"623 0 LINE",
"743 0 LINE",
"426 700 LINE",
"313 700 LINE",
"-3 0 LINE"
);
},
{
closed = 1;
nodes = (
"586 168 LINE",
"554 260 LINE",
"168 260 LINE",
"137 168 LINE"
);
}
);
width = 740;
}
);
leftKerningGroup = A;
rightKerningGroup = A;
rightMetricsKey = "=|";
unicode = 0041;
},
{
color = 3;
glyphname = "Alpha-latin";
layers = (
{
anchors = (
{
name = bottom;
position = "{428, 0}";
},
{
name = ogonek;
position = "{776, 0}";
},
{
name = top;
position = "{428, 700}";
}
);
layerId = UUID0;
paths = (
{
closed = 1;
nodes = (
"624 -4 OFFCURVE",
"778 146 OFFCURVE",
"778 352 CURVE SMOOTH",
"778 555 OFFCURVE",
"624 703 OFFCURVE",
"419 703 CURVE SMOOTH",
"216 703 OFFCURVE",
"59 556 OFFCURVE",
"59 352 CURVE SMOOTH",
"59 145 OFFCURVE",
"215 -4 OFFCURVE",
"419 -4 CURVE SMOOTH"
);
},
{
closed = 1;
nodes = (
"224 16 OFFCURVE",
"79 155 OFFCURVE",
"79 352 CURVE SMOOTH",
"79 546 OFFCURVE",
"225 683 OFFCURVE",
"418 683 CURVE SMOOTH",
"611 683 OFFCURVE",
"756 546 OFFCURVE",
"756 352 CURVE SMOOTH",
"756 155 OFFCURVE",
"611 16 OFFCURVE",
"418 16 CURVE SMOOTH"
);
},
{
closed = 1;
nodes = (
"776 0 LINE",
"776 700 LINE",
"756 700 LINE",
"756 443 LINE",
"771 353 LINE",
"756 263 LINE",
"756 0 LINE"
);
}
);
userData = {
RMXScaler = {
height = 136;
width = 144;
};
};
width = 911;
},
{
anchors = (
{
name = bottom;
position = "{433, 0}";
},
{
name = ogonek;
position = "{792, 0}";
},
{
name = top;
position = "{433, 700}";
}
);
layerId = "708134FE-A11E-43C9-84F0-594DA15B6BD1";
paths = (
{
closed = 1;
nodes = (
"601 -7 OFFCURVE",
"745 117 OFFCURVE",
"745 351 CURVE SMOOTH",
"745 586 OFFCURVE",
"599 709 OFFCURVE",
"408 709 CURVE SMOOTH",
"202 709 OFFCURVE",
"46 565 OFFCURVE",
"46 351 CURVE SMOOTH",
"46 137 OFFCURVE",
"203 -7 OFFCURVE",
"409 -7 CURVE SMOOTH"
);
},
{
closed = 1;
nodes = (
"273 94 OFFCURVE",
"162 197 OFFCURVE",
"162 351 CURVE SMOOTH",
"162 506 OFFCURVE",
"274 608 OFFCURVE",
"421 608 CURVE SMOOTH",
"568 608 OFFCURVE",
"679 506 OFFCURVE",
"679 351 CURVE SMOOTH",
"679 197 OFFCURVE",
"568 94 OFFCURVE",
"421 94 CURVE SMOOTH"
);
},
{
closed = 1;
nodes = (
"792 0 LINE",
"792 700 LINE",
"677 700 LINE",
"677 508 LINE",
"691 353 LINE",
"682 198 LINE",
"682 0 LINE"
);
}
);
userData = {
RMXScaler = {
height = 133;
weight = 5;
width = 138;
};
};
width = 892;
},
{
anchors = (
{
name = bottom;
position = "{421, 0}";
},
{
name = ogonek;
position = "{815, 0}";
},
{
name = top;
position = "{421, 700}";
}
);
layerId = "5DA6E103-6A94-47F2-987D-4952DB8EA68E";
paths = (
{
closed = 1;
nodes = (
"565 -11 OFFCURVE",
"667 102 OFFCURVE",
"667 348 CURVE SMOOTH",
"667 599 OFFCURVE",
"560 714 OFFCURVE",
"381 714 CURVE SMOOTH",
"184 714 OFFCURVE",
"29 575 OFFCURVE",
"29 351 CURVE SMOOTH",
"29 129 OFFCURVE",
"182 -11 OFFCURVE",
"384 -11 CURVE SMOOTH"
);
},
{
closed = 1;
nodes = (
"336 177 OFFCURVE",
"267 241 OFFCURVE",
"267 350 CURVE SMOOTH",
"267 460 OFFCURVE",
"336 524 OFFCURVE",
"426 524 CURVE SMOOTH",
"515 524 OFFCURVE",
"584 461 OFFCURVE",
"584 350 CURVE SMOOTH",
"584 240 OFFCURVE",
"515 177 OFFCURVE",
"426 177 CURVE SMOOTH"
);
},
{
closed = 1;
nodes = (
"815 0 LINE",
"815 700 LINE",
"580 700 LINE",
"580 577 LINE",
"593 350 LINE",
"591 125 LINE",
"591 0 LINE"
);
}
);
userData = {
RMXScaler = {
height = 129;
weight = 9;
width = 131;
};
};
width = 872;
}
);
leftKerningGroup = O;
leftMetricsKey = O;
rightKerningGroup = H;
rightMetricsKey = H;
unicode = 2C6D;
userData = {
RMXScaler = {
source = a.ss01;
};
};
},
{
color = 3;
glyphname = Astroke;
layers = (
{
layerId = UUID0;
paths = (
{
closed = 1;
nodes = (
"32 0 LINE",
"349 684 LINE",
"339 684 LINE",
"656 0 LINE",
"679 0 LINE",
"354 700 LINE",
"334 700 LINE",
"9 0 LINE"
);
},
{
closed = 1;
nodes = (
"571 211 LINE",
"561 230 LINE",
"126 230 LINE",
"116 211 LINE"
);
},
{
closed = 1;
nodes = (
"201 -70 LINE",
"591 770 LINE",
"569 770 LINE",
"179 -70 LINE"
);
}
);
width = 688;
},
{
layerId = "708134FE-A11E-43C9-84F0-594DA15B6BD1";
paths = (
{
closed = 1;
nodes = (
"115 0 LINE",
"392 642 LINE",
"346 642 LINE",
"623 0 LINE",
"743 0 LINE",
"426 700 LINE",
"313 700 LINE",
"-3 0 LINE"
);
},
{
closed = 1;
nodes = (
"586 172 LINE",
"554 257 LINE",
"168 257 LINE",
"137 172 LINE"
);
},
{
closed = 1;
nodes = (
"271 -70 LINE",
"632 770 LINE",
"541 770 LINE",
"179 -70 LINE"
);
}
);
width = 740;
},
{
layerId = "5DA6E103-6A94-47F2-987D-4952DB8EA68E";
paths = (
{
closed = 1;
nodes = (
"184 0 LINE",
"426 604 LINE",
"347 604 LINE",
"589 0 LINE",
"795 0 LINE",
"486 700 LINE",
"290 700 LINE",
"-19 0 LINE"
);
},
{
closed = 1;
nodes = (
"594 137 LINE",
"543 281 LINE",
"202 281 LINE",
"150 137 LINE"
);
},
{
closed = 1;
nodes = (
"416 -70 LINE",
"752 770 LINE",
"642 770 LINE",
"306 -70 LINE"
);
}
);
width = 776;
},
{
associatedMasterId = UUID0;
background = {
anchors = (
{
name = _center;
position = "{409, 350}";
},
{
name = bottom;
position = "{344, 0}";
},
{
name = ogonek;
position = "{679, 0}";
},
{
name = top;
position = "{344, 700}";
},
{
name = topleft;
position = "{106, 700}";
}
);
paths = (
{
closed = 1;
nodes = (
"32 0 LINE",
"349 684 LINE",
"339 684 LINE",
"656 0 LINE",
"679 0 LINE",
"354 700 LINE",
"334 700 LINE",
"9 0 LINE"
);
},
{
closed = 1;
nodes = (
"571 211 LINE",
"561 230 LINE",
"126 230 LINE",
"116 211 LINE"
);
},
{
closed = 1;
nodes = (
"171 -70 LINE",
"561 770 LINE",
"539 770 LINE",
"149 -70 LINE"
);
}
);
};
layerId = "8919DE26-5B9E-430A-A1EE-9EDE4203A8FC";
name = "[100]";
paths = (
{
closed = 1;
nodes = (
"32 0 LINE",
"349 684 LINE",
"339 684 LINE",
"656 0 LINE",
"679 0 LINE",
"354 700 LINE",
"334 700 LINE",
"9 0 LINE"
);
},
{
closed = 1;
nodes = (
"571 211 LINE",
"561 230 LINE",
"126 230 LINE",
"116 211 LINE"
);
},
{
closed = 1;
nodes = (
"201 -70 LINE",
"591 770 LINE",
"569 770 LINE",
"179 -70 LINE"
);
}
);
width = 688;
},
{
associatedMasterId = "708134FE-A11E-43C9-84F0-594DA15B6BD1";
background = {
paths = (
{
closed = 1;
nodes = (
"98 0 LINE",
"383 649 LINE",
"342 649 LINE",
"627 0 LINE",
"730 0 LINE",
"412 700 LINE",
"315 700 LINE",
"-3 0 LINE"
);
},
{
closed = 1;
nodes = (
"581 179 LINE",
"553 252 LINE",
"159 252 LINE",
"131 179 LINE"
);
},
{
closed = 1;
nodes = (
"289 -70 LINE",
"656 770 LINE",
"595 770 LINE",
"229 -70 LINE"
);
}
);
};
layerId = "AA5CE02A-7D7F-4186-8EEF-0CFBD332A281";
name = "[100]";
paths = (
{
closed = 1;
nodes = (
"115 0 LINE",
"392 642 LINE",
"346 642 LINE",
"623 0 LINE",
"743 0 LINE",
"426 700 LINE",
"313 700 LINE",
"-3 0 LINE"
);
},
{
closed = 1;
nodes = (
"586 172 LINE",
"554 257 LINE",
"168 257 LINE",
"137 172 LINE"
);
},
{
closed = 1;
nodes = (
"411 -70 LINE",
"772 770 LINE",
"681 770 LINE",
"319 -70 LINE"
);
}
);
width = 740;
},
{
associatedMasterId = "5DA6E103-6A94-47F2-987D-4952DB8EA68E";
background = {
anchors = (
{
name = _center;
position = "{453, 350}";
},
{
name = bottom;
position = "{388, 0}";
},
{
name = ogonek;
position = "{795, 0}";
},
{
name = top;
position = "{388, 700}";
},
{
name = topleft;
position = "{114, 701}";
}
);
paths = (
{
closed = 1;
nodes = (
"184 0 LINE",
"426 604 LINE",
"347 604 LINE",
"589 0 LINE",
"795 0 LINE",
"486 700 LINE",
"290 700 LINE",
"-19 0 LINE"
);
},
{
closed = 1;
nodes = (
"594 137 LINE",
"543 281 LINE",
"202 281 LINE",
"150 137 LINE"
);
},
{
closed = 1;
nodes = (
"301 -70 LINE",
"637 770 LINE",
"527 770 LINE",
"191 -70 LINE"
);
}
);
};
layerId = "93E0E6E4-17BA-45CE-9BB7-EFE80468E838";
name = "[100]";
paths = (
{
closed = 1;
nodes = (
"184 0 LINE",
"426 604 LINE",
"347 604 LINE",
"589 0 LINE",
"795 0 LINE",
"486 700 LINE",
"290 700 LINE",
"-19 0 LINE"
);
},
{
closed = 1;
nodes = (
"594 137 LINE",
"543 281 LINE",
"202 281 LINE",
"150 137 LINE"
);
},
{
closed = 1;
nodes = (
"416 -70 LINE",
"752 770 LINE",
"642 770 LINE",
"306 -70 LINE"
);
}
);
width = 776;
}
);
leftKerningGroup = A;
rightKerningGroup = A;
unicode = 023A;
},
{
glyphname = Aturned;
layers = (
{
anchors = (
{
name = bottom;
position = "{344, 0}";
},
{
name = ogonek;
position = "{9, 700}";
},
{
name = top;
position = "{344, 700}";
}
);
layerId = UUID0;
paths = (
{
closed = 1;
nodes = (
"656 700 LINE",
"339 16 LINE",
"349 16 LINE",
"32 700 LINE",
"9 700 LINE",
"334 0 LINE",
"354 0 LINE",
"679 700 LINE"
);
},
{
closed = 1;
nodes = (
"117 489 LINE",
"127 470 LINE",
"562 470 LINE",
"572 489 LINE"
);
}
);
width = 688;
},
{
anchors = (
{
name = bottom;
position = "{370, 0}";
},
{
name = ogonek;
position = "{-3, 700}";
},
{
name = top;
position = "{370, 700}";
}
);
layerId = "708134FE-A11E-43C9-84F0-594DA15B6BD1";
paths = (
{
closed = 1;
nodes = (
"625 700 LINE",
"348 63 LINE",
"394 63 LINE",
"117 700 LINE",
"-3 700 LINE",
"314 0 LINE",
"427 0 LINE",
"743 700 LINE"
);
},
{
closed = 1;
nodes = (
"154 532 LINE",
"186 440 LINE",
"572 440 LINE",
"603 532 LINE"
);
}
);
width = 740;
},
{
anchors = (
{
name = bottom;
position = "{403, 0}";
},
{
name = ogonek;
position = "{-19, 700}";
},
{
name = top;
position = "{403, 700}";
}
);
layerId = "5DA6E103-6A94-47F2-987D-4952DB8EA68E";
paths = (
{
closed = 1;
nodes = (
"585 700 LINE",
"359 112 LINE",
"451 112 LINE",
"225 700 LINE",
"-19 700 LINE",
"287 0 LINE",
"519 0 LINE",
"825 700 LINE"
);
},
{
closed = 1;
nodes = (
"201 578 LINE",
"261 408 LINE",
"583 408 LINE",
"643 578 LINE"
);
}
);
width = 806;
}
);
leftKerningGroup = V;
rightKerningGroup = V;
unicode = 2C6F;
},
{
glyphname = AE;
layers = (
{
anchors = (
{
name = bottom;
position = "{480, 0}";
},
{
name = ogonek;
position = "{936, 0}";
},
{
name = top;
position = "{610, 700}";
}
);
layerId = UUID0;
paths = (
{
closed = 1;
nodes = (
"32 0 LINE",
"467 685 LINE",
"453 681 LINE",
"475 681 LINE",
"475 700 LINE",
"454 700 LINE",
"9 0 LINE"
);
},
{
closed = 1;
nodes = (
"475 211 LINE",
"475 230 LINE",
"163 230 LINE",
"153 211 LINE"
);
},
{
closed = 1;
nodes = (
"936 0 LINE",
"936 19 LINE",
"490 19 LINE",
"490 681 LINE",
"921 681 LINE",
"921 700 LINE",
"470 700 LINE",
"470 0 LINE"
);
},
{
closed = 1;
nodes = (
"876 346 LINE",
"876 365 LINE",
"485 365 LINE",
"485 346 LINE"
);
}
);
width = 1005;
},
{
anchors = (
{
name = bottom;
position = "{619, 0}";
},
{
name = ogonek;
position = "{1085, 0}";
},
{
name = top;
position = "{689, 700}";
}
);
layerId = "5DA6E103-6A94-47F2-987D-4952DB8EA68E";
paths = (
{
closed = 1;
nodes = (
"221 0 LINE",
"527 616 LINE",
"385 522 LINE",
"584 522 LINE",
"584 700 LINE",
"350 700 LINE",
"-19 0 LINE"
);
},
{
closed = 1;
nodes = (
"584 122 LINE",
"584 292 LINE",
"219 292 LINE",
"219 122 LINE"
);
},
{
closed = 1;
nodes = (
"1085 0 LINE",
"1085 178 LINE",
"735 178 LINE",
"735 522 LINE",
"1072 522 LINE",
"1072 700 LINE",
"503 700 LINE",
"503 0 LINE"
);
},
{
closed = 1;
nodes = (
"1031 270 LINE",
"1031 440 LINE",
"719 440 LINE",
"719 270 LINE"
);
}
);
width = 1119;
},
{
anchors = (
{
name = bottom;
position = "{541, 0}";
},
{
name = ogonek;
position = "{1001, 0}";
},
{
name = top;
position = "{621, 700}";
}
);
layerId = "708134FE-A11E-43C9-84F0-594DA15B6BD1";
paths = (
{
closed = 1;
nodes = (
"115 0 LINE",
"493 652 LINE",
"423 601 LINE",
"523 601 LINE",
"523 700 LINE",
"409 700 LINE",
"-3 0 LINE"
);
},
{
closed = 1;
nodes = (
"523 168 LINE",
"523 260 LINE",
"187 260 LINE",
"182 168 LINE"
);
},
{
closed = 1;
nodes = (
"1001 0 LINE",
"1001 99 LINE",
"599 99 LINE",
"599 601 LINE",
"987 601 LINE",
"987 700 LINE",
"485 700 LINE",
"485 0 LINE"
);
},
{
closed = 1;
nodes = (
"944 307 LINE",
"944 404 LINE",
"590 404 LINE",
"589 307 LINE"
);
}
);
width = 1055;
}
);
leftKerningGroup = A;
leftMetricsKey = A;
rightKerningGroup = E;
rightMetricsKey = E;
unicode = 00C6;
},
{
glyphname = B;
layers = (
{
anchors = (
{
name = bottom;
position = "{377, 0}";
},
{
name = hook.af;
position = "{133, 700}";
},
{
name = top;
position = "{377, 700}";
}
);
layerId = UUID0;
paths = (
{
closed = 1;
nodes = (
"430 0 LINE SMOOTH",
"600 0 OFFCURVE",
"683 65 OFFCURVE",
"683 183 CURVE SMOOTH",
"683 301 OFFCURVE",
"602 363 OFFCURVE",
"441 363 CURVE",
"424 350 LINE",
"554 350 OFFCURVE",
"645 406 OFFCURVE",
"645 523 CURVE SMOOTH",
"645 640 OFFCURVE",
"554 700 OFFCURVE",
"410 700 CURVE SMOOTH",
"133 700 LINE",
"133 0 LINE"
);
},
{
closed = 1;
nodes = (
"153 681 LINE",
"414 681 LINE SMOOTH",
"547 681 OFFCURVE",
"625 627 OFFCURVE",
"625 523 CURVE SMOOTH",
"625 419 OFFCURVE",
"547 365 OFFCURVE",
"414 365 CURVE SMOOTH",
"148 365 LINE",
"148 346 LINE",
"434 346 LINE SMOOTH",
"583 346 OFFCURVE",
"663 296 OFFCURVE",
"663 183 CURVE SMOOTH",
"663 70 OFFCURVE",
"583 19 OFFCURVE",
"434 19 CURVE SMOOTH",
"153 19 LINE"
);
}
);
width = 748;
},
{
anchors = (
{
name = bottom;
position = "{382, 0}";
},
{
name = hook.af;
position = "{57, 700}";
},
{
name = top;
position = "{382, 700}";
}
);
layerId = "5DA6E103-6A94-47F2-987D-4952DB8EA68E";
paths = (
{
closed = 1;
nodes = (
"451 0 LINE SMOOTH",
"644 0 OFFCURVE",
"747 71 OFFCURVE",
"747 193 CURVE SMOOTH",
"747 315 OFFCURVE",
"644 387 OFFCURVE",
"481 387 CURVE",
"461 333 LINE",
"624 333 OFFCURVE",
"714 411 OFFCURVE",
"714 517 CURVE SMOOTH",
"714 623 OFFCURVE",
"624 700 OFFCURVE",
"431 700 CURVE SMOOTH",
"57 700 LINE",
"57 0 LINE"
);
},
{
closed = 1;
nodes = (
"289 535 LINE",
"399 535 LINE SMOOTH",
"452 535 OFFCURVE",
"476 517 OFFCURVE",
"476 483 CURVE SMOOTH",
"476 449 OFFCURVE",
"452 431 OFFCURVE",
"399 431 CURVE SMOOTH",
"273 431 LINE",
"273 275 LINE",
"431 275 LINE SMOOTH",
"483 275 OFFCURVE",
"509 256 OFFCURVE",
"509 220 CURVE SMOOTH",
"509 184 OFFCURVE",
"483 165 OFFCURVE",
"431 165 CURVE SMOOTH",
"289 165 LINE"
);
}
);
width = 773;
},
{
anchors = (
{
name = bottom;
position = "{379, 0}";
},
{
name = hook.af;
position = "{100, 700}";
},
{
name = top;
position = "{379, 700}";
}
);
layerId = "708134FE-A11E-43C9-84F0-594DA15B6BD1";
paths = (
{
closed = 1;
nodes = (
"441 0 LINE SMOOTH",
"619 0 OFFCURVE",
"711 70 OFFCURVE",
"711 190 CURVE SMOOTH",
"711 310 OFFCURVE",
"623 374 OFFCURVE",
"512 374 CURVE",
"494 341 LINE",
"588 341 OFFCURVE",
"675 406 OFFCURVE",
"675 518 CURVE SMOOTH",
"675 630 OFFCURVE",
"585 700 OFFCURVE",
"421 700 CURVE SMOOTH",
"100 700 LINE",
"100 0 LINE"
);
},
{
closed = 1;
nodes = (
"214 607 LINE",
"409 607 LINE SMOOTH",
"505 607 OFFCURVE",
"560 573 OFFCURVE",
"560 504 CURVE SMOOTH",
"560 435 OFFCURVE",
"505 401 OFFCURVE",
"409 401 CURVE SMOOTH",
"205 401 LINE",
"205 308 LINE",
"435 308 LINE SMOOTH",
"539 308 OFFCURVE",
"596 275 OFFCURVE",
"596 200 CURVE SMOOTH",
"596 125 OFFCURVE",
"539 93 OFFCURVE",
"435 93 CURVE SMOOTH",
"214 93 LINE"
);
}
);
width = 759;
}
);
leftKerningGroup = H;
leftMetricsKey = H;
rightKerningGroup = B;
unicode = 0042;
},
{
color = 8;
glyphname = "Beta-latin";
layers = (
{
anchors = (
{
name = bottom;
position = "{377, 0}";
},
{
name = hook.af;
position = "{133, 700}";
},
{
name = top;
position = "{377, 700}";
}
);
layerId = UUID0;
paths = (
{
closed = 1;
nodes = (
"153 -194 LINE",
"153 681 LINE",
"414 681 LINE SMOOTH",
"547 681 OFFCURVE",
"625 627 OFFCURVE",
"625 523 CURVE SMOOTH",
"625 419 OFFCURVE",
"547 365 OFFCURVE",
"414 365 CURVE SMOOTH",
"148 365 LINE",
"148 346 LINE",
"434 346 LINE SMOOTH",
"583 346 OFFCURVE",
"663 296 OFFCURVE",
"663 183 CURVE SMOOTH",
"663 70 OFFCURVE",
"583 19 OFFCURVE",
"434 19 CURVE SMOOTH",
"150 19 LINE",
"150 0 LINE",
"430 0 LINE SMOOTH",
"600 0 OFFCURVE",
"683 65 OFFCURVE",
"683 183 CURVE SMOOTH",
"683 301 OFFCURVE",
"602 363 OFFCURVE",
"441 363 CURVE",
"424 350 LINE",
"554 350 OFFCURVE",
"645 406 OFFCURVE",
"645 523 CURVE SMOOTH",
"645 640 OFFCURVE",
"554 700 OFFCURVE",
"410 700 CURVE SMOOTH",
"133 700 LINE",
"133 -194 LINE"
);
}
);
width = 748;
},
{
anchors = (
{
name = bottom;
position = "{379, 0}";
},
{
name = hook.af;
position = "{100, 700}";
},
{
name = top;
position = "{379, 700}";
}
);
layerId = "708134FE-A11E-43C9-84F0-594DA15B6BD1";
paths = (
{
closed = 1;
nodes = (
"214 -194 LINE",
"214 607 LINE",
"409 607 LINE SMOOTH",
"505 607 OFFCURVE",
"560 573 OFFCURVE",
"560 504 CURVE SMOOTH",
"560 435 OFFCURVE",
"505 401 OFFCURVE",
"409 401 CURVE SMOOTH",
"205 401 LINE",
"205 308 LINE",
"435 308 LINE SMOOTH",
"539 308 OFFCURVE",
"596 275 OFFCURVE",
"596 200 CURVE SMOOTH",
"596 125 OFFCURVE",
"539 93 OFFCURVE",
"435 93 CURVE SMOOTH",
"205 93 LINE",
"205 0 LINE",
"441 0 LINE SMOOTH",
"619 0 OFFCURVE",
"711 70 OFFCURVE",
"711 190 CURVE SMOOTH",
"711 310 OFFCURVE",
"623 374 OFFCURVE",
"512 374 CURVE",
"494 341 LINE",
"588 341 OFFCURVE",
"675 406 OFFCURVE",
"675 518 CURVE SMOOTH",
"675 630 OFFCURVE",
"585 700 OFFCURVE",
"421 700 CURVE SMOOTH",
"100 700 LINE",
"100 -194 LINE"
);
}
);
width = 759;
},
{
anchors = (
{
name = bottom;
position = "{382, 0}";
},
{
name = hook.af;
position = "{57, 700}";
},
{
name = top;
position = "{382, 700}";
}
);
layerId = "5DA6E103-6A94-47F2-987D-4952DB8EA68E";
paths = (
{
closed = 1;
nodes = (
"289 -194 LINE",
"289 535 LINE",
"399 535 LINE SMOOTH",
"452 535 OFFCURVE",
"476 517 OFFCURVE",
"476 483 CURVE SMOOTH",
"476 449 OFFCURVE",
"452 431 OFFCURVE",
"399 431 CURVE SMOOTH",
"276 431 LINE",
"276 275 LINE",
"431 275 LINE SMOOTH",
"483 275 OFFCURVE",
"509 256 OFFCURVE",
"509 220 CURVE SMOOTH",
"509 184 OFFCURVE",
"483 165 OFFCURVE",
"431 165 CURVE SMOOTH",
"276 165 LINE",
"276 0 LINE",
"451 0 LINE",
"644 0 OFFCURVE",
"747 71 OFFCURVE",
"747 193 CURVE SMOOTH",
"747 315 OFFCURVE",
"644 387 OFFCURVE",
"481 387 CURVE",
"461 333 LINE",
"624 333 OFFCURVE",
"714 411 OFFCURVE",
"714 517 CURVE SMOOTH",
"714 623 OFFCURVE",
"624 700 OFFCURVE",
"431 700 CURVE SMOOTH",
"57 700 LINE",
"57 -194 LINE"
);
}
);
width = 773;
}
);
leftKerningGroup = H;
leftMetricsKey = H;
rightKerningGroup = B;
rightMetricsKey = B;
unicode = A7B4;
},
{
color = 8;
glyphname = Bstroke;
layers = (
{
anchors = (
{
name = bottom;
position = "{377, 0}";
},
{
name = hook.af;
position = "{133, 700}";
},
{
name = top;
position = "{377, 700}";
}
);
layerId = UUID0;
paths = (
{
closed = 1;
nodes = (
"430 0 LINE SMOOTH",
"600 0 OFFCURVE",
"683 65 OFFCURVE",
"683 183 CURVE SMOOTH",
"683 301 OFFCURVE",
"602 363 OFFCURVE",
"441 363 CURVE",
"424 350 LINE",
"554 350 OFFCURVE",
"645 406 OFFCURVE",
"645 523 CURVE SMOOTH",
"645 640 OFFCURVE",
"554 700 OFFCURVE",
"410 700 CURVE SMOOTH",
"133 700 LINE",
"133 0 LINE"
);
},
{
closed = 1;
nodes = (
"135 176 LINE",
"150 176 LINE",
"323 176 LINE",
"323 195 LINE",
"150 195 LINE",
"135 195 LINE",
"13 195 LINE",
"13 176 LINE"
);
},
{
closed = 1;
nodes = (
"153 681 LINE",
"414 681 LINE SMOOTH",
"547 681 OFFCURVE",
"625 627 OFFCURVE",
"625 523 CURVE SMOOTH",
"625 419 OFFCURVE",
"547 365 OFFCURVE",
"414 365 CURVE SMOOTH",
"148 365 LINE",
"148 346 LINE",
"434 346 LINE SMOOTH",
"583 346 OFFCURVE",
"663 296 OFFCURVE",
"663 183 CURVE SMOOTH",
"663 70 OFFCURVE",
"583 19 OFFCURVE",
"434 19 CURVE SMOOTH",
"153 19 LINE"
);
}
);
width = 748;
},
{
anchors = (
{
name = bottom;
position = "{399, 0}";
},
{
name = hook.af;
position = "{120, 700}";
},
{
name = top;
position = "{399, 700}";
}
);
layerId = "708134FE-A11E-43C9-84F0-594DA15B6BD1";
paths = (
{
closed = 1;
nodes = (
"461 0 LINE SMOOTH",
"639 0 OFFCURVE",
"731 73 OFFCURVE",
"731 193 CURVE SMOOTH",
"731 313 OFFCURVE",
"643 377 OFFCURVE",
"532 377 CURVE",
"514 344 LINE",
"608 344 OFFCURVE",
"695 406 OFFCURVE",
"695 518 CURVE SMOOTH",
"695 630 OFFCURVE",
"605 700 OFFCURVE",
"441 700 CURVE SMOOTH",
"120 700 LINE",
"120 0 LINE"
);
},
{
closed = 1;
nodes = (
"159 158 LINE",
"183 158 LINE",
"384 158 LINE",
"384 246 LINE",
"183 246 LINE",
"159 246 LINE",
"20 246 LINE",
"20 158 LINE"
);
},
{
closed = 1;
nodes = (
"234 607 LINE",
"429 607 LINE SMOOTH",
"525 607 OFFCURVE",
"580 573 OFFCURVE",
"580 504 CURVE SMOOTH",
"580 435 OFFCURVE",
"525 404 OFFCURVE",
"429 404 CURVE SMOOTH",
"225 404 LINE",
"225 311 LINE",
"455 311 LINE SMOOTH",
"559 311 OFFCURVE",
"616 275 OFFCURVE",
"616 200 CURVE SMOOTH",
"616 125 OFFCURVE",
"559 93 OFFCURVE",
"455 93 CURVE SMOOTH",
"234 93 LINE"
);
}
);
width = 779;
},
{
anchors = (
{
name = bottom;
position = "{400, 0}";
},
{
name = hook.af;
position = "{75, 700}";
},
{
name = top;
position = "{400, 700}";
}
);
layerId = "5DA6E103-6A94-47F2-987D-4952DB8EA68E";
paths = (
{
closed = 1;
nodes = (
"469 0 LINE SMOOTH",
"662 0 OFFCURVE",
"765 71 OFFCURVE",
"765 193 CURVE SMOOTH",
"765 315 OFFCURVE",
"662 387 OFFCURVE",
"499 390 CURVE",
"479 340 LINE",
"642 333 OFFCURVE",
"732 411 OFFCURVE",
"732 517 CURVE SMOOTH",
"732 623 OFFCURVE",
"642 700 OFFCURVE",
"449 700 CURVE SMOOTH",
"75 700 LINE",
"75 0 LINE"
);
},
{
closed = 1;
nodes = (
"167 167 LINE",
"210 182 LINE",
"402 182 LINE",
"402 272 LINE",
"210 272 LINE",
"167 287 LINE",
"5 287 LINE",
"5 167 LINE"
);
},
{
closed = 1;
nodes = (
"307 535 LINE",
"417 535 LINE SMOOTH",
"470 535 OFFCURVE",
"494 517 OFFCURVE",
"494 483 CURVE SMOOTH",
"494 449 OFFCURVE",
"470 431 OFFCURVE",
"417 431 CURVE SMOOTH",
"291 431 LINE",
"291 294 LINE",
"449 294 LINE SMOOTH",
"501 294 OFFCURVE",
"527 269 OFFCURVE",
"527 226 CURVE SMOOTH",
"527 187 OFFCURVE",
"501 160 OFFCURVE",
"449 160 CURVE SMOOTH",
"307 160 LINE"
);
}
);
width = 791;
}
);
leftKerningGroup = Bstroke;
rightKerningGroup = B;
rightMetricsKey = B;
unicode = 0243;
},
{
color = 3;
glyphname = Btopbar;
layers = (
{
anchors = (
{
name = bottom;
position = "{377, 0}";
},
{
name = hook.af;
position = "{133, 700}";
},
{
name = top;
position = "{377, 700}";
}
);
layerId = UUID0;
paths = (
{
closed = 1;
nodes = (
"430 0 LINE SMOOTH",
"600 0 OFFCURVE",
"683 65 OFFCURVE",
"683 196 CURVE SMOOTH",
"683 322 OFFCURVE",
"602 386 OFFCURVE",
"441 386 CURVE SMOOTH",
"148 386 LINE",
"148 367 LINE",
"434 367 LINE SMOOTH",
"584 367 OFFCURVE",
"663 317 OFFCURVE",
"663 194 CURVE SMOOTH",
"663 70 OFFCURVE",
"582 19 OFFCURVE",
"434 19 CURVE SMOOTH",
"153 19 LINE",
"153 681 LINE",
"628 681 LINE",
"628 700 LINE",
"133 700 LINE",
"133 0 LINE"
);
}
);
width = 748;
},
{
anchors = (
{
name = bottom;
position = "{382, 0}";
},
{
name = hook.af;
position = "{57, 700}";
},
{
name = top;
position = "{382, 700}";
}
);
layerId = "5DA6E103-6A94-47F2-987D-4952DB8EA68E";
paths = (
{
closed = 1;
nodes = (
"451 0 LINE SMOOTH",
"645 0 OFFCURVE",
"747 74 OFFCURVE",
"747 217 CURVE SMOOTH",
"747 362 OFFCURVE",
"643 431 OFFCURVE",
"481 431 CURVE SMOOTH",
"273 431 LINE",
"273 275 LINE",
"431 275 LINE SMOOTH",
"483 275 OFFCURVE",
"509 256 OFFCURVE",
"509 220 CURVE SMOOTH",
"509 184 OFFCURVE",
"483 165 OFFCURVE",
"431 165 CURVE SMOOTH",
"289 165 LINE",
"289 535 LINE",
"682 535 LINE",
"682 700 LINE",
"57 700 LINE",
"57 0 LINE"
);
}
);
width = 773;
},
{
anchors = (
{
name = bottom;
position = "{379, 0}";
},
{
name = hook.af;
position = "{100, 700}";
},
{
name = top;
position = "{379, 700}";
}
);
layerId = "708134FE-A11E-43C9-84F0-594DA15B6BD1";
paths = (
{
closed = 1;
nodes = (
"441 0 LINE SMOOTH",
"617 0 OFFCURVE",
"711 67 OFFCURVE",
"711 206 CURVE SMOOTH",
"711 343 OFFCURVE",
"620 406 OFFCURVE",
"449 406 CURVE SMOOTH",
"205 406 LINE",
"205 313 LINE",
"435 313 LINE SMOOTH",
"539 313 OFFCURVE",
"596 280 OFFCURVE",
"596 204 CURVE SMOOTH",
"596 125 OFFCURVE",
"539 93 OFFCURVE",
"435 93 CURVE SMOOTH",
"214 93 LINE",
"214 607 LINE",
"648 607 LINE",
"648 700 LINE",
"100 700 LINE",
"100 0 LINE"
);
}
);
width = 759;
}
);
leftKerningGroup = H;
leftMetricsKey = H;
rightKerningGroup = B;
unicode = 0182;
},
{
glyphname = C;
layers = (
{
anchors = (
{
name = bottom;
position = "{413, 0}";
},
{
name = center;
position = "{141, 355}";
},
{
name = top;
position = "{413, 700}";
}
);
layerId = UUID0;
paths = (
{
closed = 1;
nodes = (
"510 -3 OFFCURVE",
"596 27 OFFCURVE",
"656 87 CURVE",
"644 101 LINE",
"580 40 OFFCURVE",
"503 16 OFFCURVE",
"418 16 CURVE SMOOTH",
"225 16 OFFCURVE",
"79 161 OFFCURVE",
"79 350 CURVE SMOOTH",
"79 539 OFFCURVE",
"225 684 OFFCURVE",
"418 684 CURVE SMOOTH",
"503 684 OFFCURVE",
"580 661 OFFCURVE",
"644 600 CURVE",
"656 614 LINE",
"596 674 OFFCURVE",
"510 703 OFFCURVE",
"418 703 CURVE SMOOTH",
"213 703 OFFCURVE",
"59 552 OFFCURVE",
"59 350 CURVE SMOOTH",
"59 148 OFFCURVE",
"213 -3 OFFCURVE",
"418 -3 CURVE SMOOTH"
);
}
);
width = 701;
},
{
anchors = (
{
name = bottom;
position = "{415, 0}";
},
{
name = center;
position = "{194, 355}";
},
{
name = top;
position = "{415, 700}";
}
);
layerId = "5DA6E103-6A94-47F2-987D-4952DB8EA68E";
paths = (
{
closed = 1;
nodes = (
"556 -16 OFFCURVE",
"664 34 OFFCURVE",
"733 124 CURVE",
"584 257 LINE",
"543 205 OFFCURVE",
"494 175 OFFCURVE",
"431 175 CURVE SMOOTH",
"333 175 OFFCURVE",
"267 243 OFFCURVE",
"267 350 CURVE SMOOTH",
"267 457 OFFCURVE",
"333 525 OFFCURVE",
"431 525 CURVE SMOOTH",
"494 525 OFFCURVE",
"543 495 OFFCURVE",
"584 443 CURVE",
"733 576 LINE",
"664 666 OFFCURVE",
"556 716 OFFCURVE",
"419 716 CURVE SMOOTH",
"194 716 OFFCURVE",
"29 565 OFFCURVE",
"29 350 CURVE SMOOTH",
"29 135 OFFCURVE",
"194 -16 OFFCURVE",
"419 -16 CURVE SMOOTH"
);
}
);
width = 737;
},
{
anchors = (
{
name = bottom;
position = "{412, 0}";
},
{
name = center;
position = "{150, 359}";
},
{
name = top;
position = "{412, 700}";
}
);
layerId = "708134FE-A11E-43C9-84F0-594DA15B6BD1";
paths = (
{
closed = 1;
nodes = (
"530 -9 OFFCURVE",
"626 30 OFFCURVE",
"690 105 CURVE",
"616 177 LINE",
"564 120 OFFCURVE",
"499 93 OFFCURVE",
"424 93 CURVE SMOOTH",
"272 93 OFFCURVE",
"161 201 OFFCURVE",
"161 350 CURVE SMOOTH",
"161 499 OFFCURVE",
"272 607 OFFCURVE",
"424 607 CURVE SMOOTH",
"499 607 OFFCURVE",
"564 580 OFFCURVE",
"616 524 CURVE",
"690 596 LINE",
"626 670 OFFCURVE",
"530 709 OFFCURVE",
"419 709 CURVE SMOOTH",
"205 709 OFFCURVE",
"46 558 OFFCURVE",
"46 350 CURVE SMOOTH",
"46 142 OFFCURVE",
"205 -9 OFFCURVE",
"418 -9 CURVE SMOOTH"
);
}
);
width = 715;
}
);
leftKerningGroup = O;
leftMetricsKey = O;
rightKerningGroup = C;
unicode = 0043;
},
{
color = 8;
glyphname = Cbar;
layers = (
{
anchors = (
{
name = bottom;
position = "{489, 0}";
},
{
name = center;
position = "{217, 355}";
},
{
name = top;
position = "{489, 700}";
}
);
layerId = UUID0;
paths = (
{
closed = 1;
nodes = (
"586 -3 OFFCURVE",
"672 27 OFFCURVE",
"732 87 CURVE",
"720 101 LINE",
"656 40 OFFCURVE",
"579 16 OFFCURVE",
"494 16 CURVE SMOOTH",
"301 16 OFFCURVE",
"155 161 OFFCURVE",
"155 350 CURVE SMOOTH",
"155 539 OFFCURVE",
"301 684 OFFCURVE",
"494 684 CURVE SMOOTH",
"579 684 OFFCURVE",
"656 661 OFFCURVE",
"720 600 CURVE",
"732 614 LINE",
"672 674 OFFCURVE",
"586 703 OFFCURVE",
"494 703 CURVE SMOOTH",
"289 703 OFFCURVE",
"135 552 OFFCURVE",
"135 350 CURVE SMOOTH",
"135 148 OFFCURVE",
"289 -3 OFFCURVE",
"494 -3 CURVE SMOOTH"
);
},
{
closed = 1;
nodes = (
"345 345 LINE",
"345 364 LINE",
"15 364 LINE",
"15 345 LINE"
);
}
);
width = 777;
},
{
anchors = (
{
name = bottom;
position = "{478, 0}";
},
{
name = center;
position = "{216, 359}";
},
{
name = top;
position = "{478, 700}";
}
);
layerId = "708134FE-A11E-43C9-84F0-594DA15B6BD1";
paths = (
{
closed = 1;
nodes = (
"596 -9 OFFCURVE",
"692 30 OFFCURVE",
"756 105 CURVE",
"682 177 LINE",
"630 120 OFFCURVE",
"565 93 OFFCURVE",
"490 93 CURVE SMOOTH",
"338 93 OFFCURVE",
"227 201 OFFCURVE",
"227 350 CURVE SMOOTH",
"227 499 OFFCURVE",
"338 607 OFFCURVE",
"490 607 CURVE SMOOTH",
"565 607 OFFCURVE",
"630 580 OFFCURVE",
"682 524 CURVE",
"756 596 LINE",
"692 670 OFFCURVE",
"596 709 OFFCURVE",
"485 709 CURVE SMOOTH",
"271 709 OFFCURVE",
"112 558 OFFCURVE",
"112 350 CURVE SMOOTH",
"112 142 OFFCURVE",
"271 -9 OFFCURVE",
"484 -9 CURVE SMOOTH"
);
},
{
closed = 1;
nodes = (
"397 314 LINE",
"397 404 LINE",
"12 404 LINE",
"12 314 LINE"
);
}
);
width = 781;
},
{
anchors = (
{
name = bottom;
position = "{467, 0}";
},
{
name = center;
position = "{246, 355}";
},
{
name = top;
position = "{467, 700}";
}
);
layerId = "5DA6E103-6A94-47F2-987D-4952DB8EA68E";
paths = (
{
closed = 1;
nodes = (
"608 -16 OFFCURVE",
"716 34 OFFCURVE",
"785 124 CURVE",
"636 257 LINE",
"595 205 OFFCURVE",
"546 175 OFFCURVE",
"483 175 CURVE SMOOTH",
"385 175 OFFCURVE",
"319 243 OFFCURVE",
"319 350 CURVE SMOOTH",
"319 457 OFFCURVE",
"385 525 OFFCURVE",
"483 525 CURVE SMOOTH",
"546 525 OFFCURVE",
"595 495 OFFCURVE",
"636 443 CURVE",
"785 576 LINE",
"716 666 OFFCURVE",
"608 716 OFFCURVE",
"471 716 CURVE SMOOTH",
"246 716 OFFCURVE",
"81 565 OFFCURVE",
"81 350 CURVE SMOOTH",
"81 135 OFFCURVE",
"246 -16 OFFCURVE",
"471 -16 CURVE SMOOTH"
);
},
{
closed = 1;
nodes = (
"444 287 LINE",
"444 423 LINE",
"10 423 LINE",
"10 287 LINE"
);
}
);
width = 789;
}
);
leftKerningGroup = Cbar;
rightKerningGroup = C;
rightMetricsKey = C;
unicode = A792;
},
{
color = 8;
glyphname = "Chi-latin";
layers = (
{
layerId = UUID0;
paths = (
{
closed = 1;
nodes = (
"638 -140 LINE",
"603 -183 OFFCURVE",
"543 -207 OFFCURVE",
"495 -119 CURVE SMOOTH",
"279 278 LINE",
"276 283 LINE",
"82 639 LINE SMOOTH",
"36 724 OFFCURVE",
"-41 716 OFFCURVE",
"-90 659 CURVE",
"-76 646 LINE",
"-41 689 OFFCURVE",
"19 713 OFFCURVE",
"67 625 CURVE SMOOTH",
"263 266 LINE",
"267 259 LINE",
"480 -133 LINE SMOOTH",
"526 -218 OFFCURVE",
"603 -210 OFFCURVE",
"652 -153 CURVE"
);
},
{
closed = 1;
nodes = (
"3 -194 LINE",
"275 258 LINE",
"280 266 LINE",
"545 700 LINE",
"521 700 LINE",
"269 282 LINE",
"265 278 LINE",
"-21 -194 LINE"
);
}
);
userData = {
RMXScaler = {
height = 128;
verticalShift = -194;
width = 93;
};
};
width = 562;
},
{
layerId = "708134FE-A11E-43C9-84F0-594DA15B6BD1";
paths = (
{
closed = 1;
nodes = (
"622 -65 LINE",
"579 -122 OFFCURVE",
"524 -112 OFFCURVE",
"496 -56 CURVE SMOOTH",
"315 303 LINE",
"285 350 LINE",
"158 610 LINE SMOOTH",
"85 759 OFFCURVE",
"-74 716 OFFCURVE",
"-130 630 CURVE",
"-60 571 LINE",
"-17 628 OFFCURVE",
"35 618 OFFCURVE",
"63 562 CURVE SMOOTH",
"214 260 LINE",
"248 209 LINE",
"400 -104 LINE SMOOTH",
"473 -254 OFFCURVE",
"636 -211 OFFCURVE",
"692 -124 CURVE"
);
},
{
closed = 1;
nodes = (
"60 -194 LINE",
"295 228 LINE",
"306 237 LINE",
"586 700 LINE",
"466 700 LINE",
"244 321 LINE",
"234 318 LINE",
"-58 -194 LINE"
);
}
);
userData = {
RMXScaler = {
height = 128;
verticalShift = -194;
width = 92;
};
};
width = 562;
},
{
layerId = "5DA6E103-6A94-47F2-987D-4952DB8EA68E";
paths = (
{
closed = 1;
nodes = (
"691 26 LINE",
"656 -17 OFFCURVE",
"624 -9 OFFCURVE",
"600 33 CURVE SMOOTH",
"451 298 LINE",
"381 403 LINE",
"301 568 LINE SMOOTH",
"209 758 OFFCURVE",
"36 752 OFFCURVE",
"-100 625 CURVE",
"12 481 LINE",
"47 518 OFFCURVE",
"79 516 OFFCURVE",
"103 474 CURVE SMOOTH",
"252 209 LINE",
"328 104 LINE",
"409 -77 LINE SMOOTH",
"486 -248 OFFCURVE",
"675 -248 OFFCURVE",
"803 -118 CURVE"
);
},
{
closed = 1;
nodes = (
"226 -194 LINE",
"399 197 LINE",
"458 186 LINE",
"744 700 LINE",
"480 700 LINE",
"325 329 LINE",
"260 346 LINE",
"-43 -194 LINE"
);
}
);
userData = {
RMXScaler = {
height = 128;
verticalShift = -194;
width = 97;
};
};
width = 703;
}
);
leftKerningGroup = "Chi-latin";
rightKerningGroup = "Chi-latin";
rightMetricsKey = "=|";
unicode = A7B3;
userData = {
RMXScaler = {
source = X;
};
};
},
{
color = 3;
glyphname = Chook;
layers = (
{
anchors = (
{
name = bottom;
position = "{430, 0}";
},
{
name = top;
position = "{430, 700}";
}
);
layerId = UUID0;
paths = (
{
closed = 1;
nodes = (
"676 681 LINE SMOOTH",
"676 771 OFFCURVE",
"741 814 OFFCURVE",
"815 781 CURVE",
"822 798 LINE",
"741 835 OFFCURVE",
"656 790 OFFCURVE",
"656 681 CURVE SMOOTH",
"656 614 LINE",
"676 614 LINE"
);
},
{
closed = 1;
nodes = (
"530 -3 OFFCURVE",
"616 27 OFFCURVE",
"676 87 CURVE",
"664 101 LINE",
"600 40 OFFCURVE",
"523 16 OFFCURVE",
"438 16 CURVE SMOOTH",
"245 16 OFFCURVE",
"99 161 OFFCURVE",
"99 350 CURVE SMOOTH",
"99 539 OFFCURVE",
"245 684 OFFCURVE",
"438 684 CURVE SMOOTH",
"523 684 OFFCURVE",
"600 661 OFFCURVE",
"664 600 CURVE",
"676 614 LINE",
"616 674 OFFCURVE",
"530 703 OFFCURVE",
"438 703 CURVE SMOOTH",
"233 703 OFFCURVE",
"79 552 OFFCURVE",
"79 350 CURVE SMOOTH",
"79 148 OFFCURVE",
"233 -3 OFFCURVE",
"438 -3 CURVE SMOOTH"
);
}
);
width = 731;
},
{
anchors = (
{
name = bottom;
position = "{419, 0}";
},
{
name = top;
position = "{419, 700}";
}
);
layerId = "708134FE-A11E-43C9-84F0-594DA15B6BD1";
paths = (
{
closed = 1;
nodes = (
"700 673 LINE SMOOTH",
"700 735 OFFCURVE",
"757 759 OFFCURVE",
"808 740 CURVE",
"839 829 LINE",
"723 875 OFFCURVE",
"596 819 OFFCURVE",
"596 673 CURVE SMOOTH",
"596 598 LINE",
"700 596 LINE"
);
},
{
closed = 1;
nodes = (
"540 -9 OFFCURVE",
"636 30 OFFCURVE",
"700 105 CURVE",
"626 177 LINE",
"574 120 OFFCURVE",
"509 93 OFFCURVE",
"434 93 CURVE SMOOTH",
"282 93 OFFCURVE",
"171 201 OFFCURVE",
"171 350 CURVE SMOOTH",
"171 499 OFFCURVE",
"282 607 OFFCURVE",
"434 607 CURVE SMOOTH",
"509 607 OFFCURVE",
"574 580 OFFCURVE",
"626 524 CURVE",
"700 596 LINE",
"636 670 OFFCURVE",
"540 709 OFFCURVE",
"429 709 CURVE SMOOTH",
"215 709 OFFCURVE",
"56 558 OFFCURVE",
"56 350 CURVE SMOOTH",
"56 142 OFFCURVE",
"215 -9 OFFCURVE",
"428 -9 CURVE SMOOTH"
);
}
);
width = 749;
},
{
anchors = (
{
name = bottom;
position = "{417, 0}";
},
{
name = top;
position = "{417, 700}";
}
);
layerId = "5DA6E103-6A94-47F2-987D-4952DB8EA68E";
paths = (
{
closed = 1;
nodes = (
"732 678 LINE SMOOTH",
"732 720 OFFCURVE",
"770 731 OFFCURVE",
"804 718 CURVE",
"847 865 LINE",
"710 922 OFFCURVE",
"542 876 OFFCURVE",
"542 695 CURVE SMOOTH",
"542 576 LINE",
"732 576 LINE"
);
},
{
closed = 1;
nodes = (
"555 -16 OFFCURVE",
"663 34 OFFCURVE",
"732 124 CURVE",
"583 257 LINE",
"542 205 OFFCURVE",
"493 175 OFFCURVE",
"430 175 CURVE SMOOTH",
"332 175 OFFCURVE",
"266 243 OFFCURVE",
"266 350 CURVE SMOOTH",
"266 457 OFFCURVE",
"332 525 OFFCURVE",
"430 525 CURVE SMOOTH",
"493 525 OFFCURVE",
"542 495 OFFCURVE",
"583 443 CURVE",
"732 576 LINE",
"663 666 OFFCURVE",
"555 716 OFFCURVE",
"418 716 CURVE SMOOTH",
"193 716 OFFCURVE",
"28 565 OFFCURVE",
"28 350 CURVE SMOOTH",
"28 135 OFFCURVE",
"193 -16 OFFCURVE",
"418 -16 CURVE SMOOTH"
);
}
);
width = 782;
}
);
leftKerningGroup = O;
rightKerningGroup = C;
unicode = 0187;
},
{
color = 3;
glyphname = Cstroke;
layers = (
{
anchors = (
{
name = bottom;
position = "{413, 0}";
},
{
name = top;
position = "{413, 700}";
}
);
guideLines = (
{
position = "{652, 770}";
}
);
layerId = UUID0;
paths = (
{
closed = 1;
nodes = (
"201 -70 LINE",
"611 770 LINE",
"589 770 LINE",
"179 -70 LINE"
);
},
{
closed = 1;
nodes = (
"510 -3 OFFCURVE",
"596 27 OFFCURVE",
"656 87 CURVE",
"644 101 LINE",
"580 40 OFFCURVE",
"503 16 OFFCURVE",
"418 16 CURVE SMOOTH",
"225 16 OFFCURVE",
"79 161 OFFCURVE",
"79 350 CURVE SMOOTH",
"79 539 OFFCURVE",
"225 684 OFFCURVE",
"418 684 CURVE SMOOTH",
"503 684 OFFCURVE",
"580 661 OFFCURVE",
"644 600 CURVE",
"656 614 LINE",
"596 674 OFFCURVE",
"510 703 OFFCURVE",
"418 703 CURVE SMOOTH",
"213 703 OFFCURVE",
"59 552 OFFCURVE",
"59 350 CURVE SMOOTH",
"59 148 OFFCURVE",
"213 -3 OFFCURVE",
"418 -3 CURVE SMOOTH"
);
}
);
width = 701;
},
{
anchors = (
{
name = bottom;
position = "{412, 0}";
},
{
name = top;
position = "{412, 700}";
}
);
layerId = "708134FE-A11E-43C9-84F0-594DA15B6BD1";
paths = (
{
closed = 1;
nodes = (
"264 -70 LINE",
"645 770 LINE",
"552 770 LINE",
"170 -70 LINE"
);
},
{
closed = 1;
nodes = (
"530 -9 OFFCURVE",
"626 30 OFFCURVE",
"690 105 CURVE",
"616 177 LINE",
"564 120 OFFCURVE",
"499 93 OFFCURVE",
"424 93 CURVE SMOOTH",
"272 93 OFFCURVE",
"161 201 OFFCURVE",
"161 350 CURVE SMOOTH",
"161 499 OFFCURVE",
"272 607 OFFCURVE",
"424 607 CURVE SMOOTH",
"499 607 OFFCURVE",
"564 580 OFFCURVE",
"616 524 CURVE",
"690 596 LINE",
"626 670 OFFCURVE",
"530 709 OFFCURVE",
"419 709 CURVE SMOOTH",
"205 709 OFFCURVE",
"46 558 OFFCURVE",
"46 350 CURVE SMOOTH",
"46 142 OFFCURVE",
"205 -9 OFFCURVE",
"418 -9 CURVE SMOOTH"
);
}
);
width = 715;
},
{
anchors = (
{
name = bottom;
position = "{415, 0}";
},
{
name = top;
position = "{415, 700}";
}
);
layerId = "5DA6E103-6A94-47F2-987D-4952DB8EA68E";
paths = (
{
closed = 1;
nodes = (
"284 -70 LINE",
"680 770 LINE",
"566 770 LINE",
"170 -70 LINE"
);
},
{
closed = 1;
nodes = (
"556 -16 OFFCURVE",
"664 34 OFFCURVE",
"733 124 CURVE",
"584 257 LINE",
"543 205 OFFCURVE",
"494 175 OFFCURVE",
"431 175 CURVE SMOOTH",
"333 175 OFFCURVE",
"267 243 OFFCURVE",
"267 350 CURVE SMOOTH",
"267 457 OFFCURVE",
"333 525 OFFCURVE",
"431 525 CURVE SMOOTH",
"494 525 OFFCURVE",
"543 495 OFFCURVE",
"584 443 CURVE",
"733 576 LINE",
"664 666 OFFCURVE",
"556 716 OFFCURVE",
"419 716 CURVE SMOOTH",
"194 716 OFFCURVE",
"29 565 OFFCURVE",
"29 350 CURVE SMOOTH",
"29 135 OFFCURVE",
"194 -16 OFFCURVE",
"419 -16 CURVE SMOOTH"
);
}
);
width = 737;
}
);
leftKerningGroup = O;
leftMetricsKey = C;
rightKerningGroup = C;
rightMetricsKey = C;
unicode = 023B;
},
{
glyphname = D;
layers = (
{
anchors = (
{
name = bottom;
position = "{396, 0}";
},
{
name = center;
position = "{200, 356}";
},
{
name = hook.af;
position = "{133, 700}";
},
{
name = top;
position = "{391, 700}";
}
);
layerId = UUID0;
paths = (
{
closed = 1;
nodes = (
"398 0 LINE SMOOTH",
"619 0 OFFCURVE",
"767 148 OFFCURVE",
"767 350 CURVE SMOOTH",
"767 552 OFFCURVE",
"619 700 OFFCURVE",
"398 700 CURVE SMOOTH",
"133 700 LINE",
"133 0 LINE"
);
},
{
closed = 1;
nodes = (
"153 681 LINE",
"396 681 LINE SMOOTH",
"610 681 OFFCURVE",
"747 541 OFFCURVE",
"747 350 CURVE SMOOTH",
"747 159 OFFCURVE",
"610 19 OFFCURVE",
"396 19 CURVE SMOOTH",
"153 19 LINE"
);
}
);
width = 826;
},
{
anchors = (
{
name = bottom;
position = "{361, 0}";
},
{
name = center;
position = "{206, 355}";
},
{
name = hook.af;
position = "{57, 700}";
},
{
name = top;
position = "{359, 700}";
}
);
layerId = "5DA6E103-6A94-47F2-987D-4952DB8EA68E";
paths = (
{
closed = 1;
nodes = (
"402 0 LINE SMOOTH",
"636 0 OFFCURVE",
"797 133 OFFCURVE",
"797 350 CURVE SMOOTH",
"797 567 OFFCURVE",
"636 700 OFFCURVE",
"402 700 CURVE SMOOTH",
"57 700 LINE",
"57 0 LINE"
);
},
{
closed = 1;
nodes = (
"293 516 LINE",
"392 516 LINE SMOOTH",
"491 516 OFFCURVE",
"559 457 OFFCURVE",
"559 350 CURVE SMOOTH",
"559 243 OFFCURVE",
"491 184 OFFCURVE",
"392 184 CURVE SMOOTH",
"293 184 LINE"
);
}
);
width = 826;
},
{
anchors = (
{
name = bottom;
position = "{381, 0}";
},
{
name = center;
position = "{203, 359}";
},
{
name = hook.af;
position = "{100, 700}";
},
{
name = top;
position = "{377, 700}";
}
);
layerId = "708134FE-A11E-43C9-84F0-594DA15B6BD1";
paths = (
{
closed = 1;
nodes = (
"400 0 LINE SMOOTH",
"626 0 OFFCURVE",
"780 141 OFFCURVE",
"780 350 CURVE SMOOTH",
"780 559 OFFCURVE",
"626 700 OFFCURVE",
"400 700 CURVE SMOOTH",
"100 700 LINE",
"100 0 LINE"
);
},
{
closed = 1;
nodes = (
"214 601 LINE",
"394 601 LINE SMOOTH",
"559 601 OFFCURVE",
"665 501 OFFCURVE",
"665 350 CURVE SMOOTH",
"665 199 OFFCURVE",
"559 99 OFFCURVE",
"394 99 CURVE SMOOTH",
"214 99 LINE"
);
}
);
width = 826;
}
);
leftKerningGroup = H;
leftMetricsKey = H;
rightKerningGroup = O;
rightMetricsKey = O;
unicode = 0044;
},
{
color = 3;
glyphname = Dtopbar;
layers = (
{
layerId = UUID0;
paths = (
{
closed = 1;
nodes = (
"598 0 LINE",
"598 700 LINE",
"118 700 LINE",
"118 681 LINE",
"578 681 LINE",
"578 386 LINE",
"292 386 LINE SMOOTH",
"129 386 OFFCURVE",
"50 312 OFFCURVE",
"50 196 CURVE SMOOTH",
"50 76 OFFCURVE",
"133 0 OFFCURVE",
"303 0 CURVE SMOOTH"
);
},
{
closed = 1;
nodes = (
"143 19 OFFCURVE",
"70 87 OFFCURVE",
"70 195 CURVE SMOOTH",
"70 302 OFFCURVE",
"141 367 OFFCURVE",
"299 367 CURVE SMOOTH",
"578 367 LINE",
"578 19 LINE",
"299 19 LINE SMOOTH"
);
}
);
width = 731;
},
{
layerId = "708134FE-A11E-43C9-84F0-594DA15B6BD1";
paths = (
{
closed = 1;
nodes = (
"649 0 LINE",
"649 700 LINE",
"116 700 LINE",
"116 601 LINE",
"536 601 LINE",
"536 421 LINE",
"305 421 LINE SMOOTH",
"129 421 OFFCURVE",
"36 348 OFFCURVE",
"36 218 CURVE SMOOTH",
"36 81 OFFCURVE",
"138 0 OFFCURVE",
"305 0 CURVE SMOOTH"
);
},
{
closed = 1;
nodes = (
"208 93 OFFCURVE",
"151 143 OFFCURVE",
"151 216 CURVE SMOOTH",
"151 286 OFFCURVE",
"207 328 OFFCURVE",
"316 328 CURVE SMOOTH",
"536 328 LINE",
"536 93 LINE",
"316 93 LINE SMOOTH"
);
}
);
width = 749;
},
{
layerId = "5DA6E103-6A94-47F2-987D-4952DB8EA68E";
paths = (
{
closed = 1;
nodes = (
"706 0 LINE",
"706 700 LINE",
"98 700 LINE",
"98 535 LINE",
"474 535 LINE",
"474 435 LINE",
"279 435 LINE SMOOTH",
"108 435 OFFCURVE",
"16 351 OFFCURVE",
"16 218 CURVE SMOOTH",
"16 76 OFFCURVE",
"124 0 OFFCURVE",
"309 0 CURVE SMOOTH"
);
},
{
closed = 1;
nodes = (
"280 165 OFFCURVE",
"255 189 OFFCURVE",
"255 223 CURVE SMOOTH",
"255 256 OFFCURVE",
"280 280 OFFCURVE",
"329 280 CURVE SMOOTH",
"474 280 LINE",
"474 165 LINE",
"329 165 LINE SMOOTH"
);
}
);
width = 763;
}
);
leftKerningGroup = Dtopbar;
rightKerningGroup = H;
rightMetricsKey = H;
unicode = 018B;
},
{
glyphname = E;
layers = (
{
anchors = (
{
name = bottom;
position = "{359, 0}";
},
{
name = ogonek;
position = "{599, 0}";
},
{
name = top;
position = "{359, 700}";
},
{
name = topleft;
position = "{41, 700}";
}
);
layerId = UUID0;
paths = (
{
closed = 1;
nodes = (
"599 0 LINE",
"599 19 LINE",
"153 19 LINE",
"153 681 LINE",
"584 681 LINE",
"584 700 LINE",
"133 700 LINE",
"133 0 LINE"
);
},
{
closed = 1;
nodes = (
"539 346 LINE",
"539 365 LINE",
"148 365 LINE",
"148 346 LINE"
);
}
);
width = 668;
},
{
anchors = (
{
name = bottom;
position = "{342, 0}";
},
{
name = ogonek;
position = "{639, 0}";
},
{
name = top;
position = "{342, 700}";
},
{
name = topleft;
position = "{-9, 700}";
}
);
layerId = "5DA6E103-6A94-47F2-987D-4952DB8EA68E";
paths = (
{
closed = 1;
nodes = (
"639 0 LINE",
"639 178 LINE",
"289 178 LINE",
"289 522 LINE",
"626 522 LINE",
"626 700 LINE",
"57 700 LINE",
"57 0 LINE"
);
},
{
closed = 1;
nodes = (
"585 270 LINE",
"585 440 LINE",
"273 440 LINE",
"273 270 LINE"
);
}
);
width = 673;
},
{
anchors = (
{
name = bottom;
position = "{351, 0}";
},
{
name = ogonek;
position = "{616, 0}";
},
{
name = top;
position = "{351, 700}";
},
{
name = topleft;
position = "{19, 700}";
}
);
layerId = "708134FE-A11E-43C9-84F0-594DA15B6BD1";
paths = (
{
closed = 1;
nodes = (
"616 0 LINE",
"616 99 LINE",
"214 99 LINE",
"214 601 LINE",
"602 601 LINE",
"602 700 LINE",
"100 700 LINE",
"100 0 LINE"
);
},
{
closed = 1;
nodes = (
"559 307 LINE",
"559 404 LINE",
"205 404 LINE",
"205 307 LINE"
);
}
);
width = 670;
}
);
leftKerningGroup = H;
leftMetricsKey = H;
rightKerningGroup = E;
unicode = 0045;
},
{
color = 3;
glyphname = Ereversed;
layers = (
{
anchors = (
{
name = bottom;
position = "{309, 0}";
},
{
name = top;
position = "{309, 700}";
}
);
layerId = UUID0;
paths = (
{
closed = 1;
nodes = (
"535 700 LINE",
"84 700 LINE",
"84 681 LINE",
"515 681 LINE",
"515 19 LINE",
"69 19 LINE",
"69 0 LINE",
"535 0 LINE"
);
},
{
closed = 1;
nodes = (
"520 365 LINE",
"129 365 LINE",
"129 346 LINE",
"520 346 LINE"
);
}
);
width = 668;
},
{
anchors = (
{
name = bottom;
position = "{319, 0}";
},
{
name = top;
position = "{319, 700}";
}
);
layerId = "708134FE-A11E-43C9-84F0-594DA15B6BD1";
paths = (
{
closed = 1;
nodes = (
"570 700 LINE",
"68 700 LINE",
"68 601 LINE",
"456 601 LINE",
"456 99 LINE",
"54 99 LINE",
"54 0 LINE",
"570 0 LINE"
);
},
{
closed = 1;
nodes = (
"465 403 LINE",
"111 403 LINE",
"111 306 LINE",
"465 306 LINE"
);
}
);
width = 670;
},
{
anchors = (
{
name = bottom;
position = "{331, 0}";
},
{
name = top;
position = "{331, 700}";
}
);
layerId = "5DA6E103-6A94-47F2-987D-4952DB8EA68E";
paths = (
{
closed = 1;
nodes = (
"616 700 LINE",
"47 700 LINE",
"47 522 LINE",
"384 522 LINE",
"384 178 LINE",
"34 178 LINE",
"34 0 LINE",
"616 0 LINE"
);
},
{
closed = 1;
nodes = (
"400 440 LINE",
"88 440 LINE",
"88 270 LINE",
"400 270 LINE"
);
}
);
width = 673;
}
);
leftKerningGroup = "Ereversed-cy";
rightKerningGroup = H;
unicode = 018E;
},
{
color = 9;
glyphname = Esh;
layers = (
{
layerId = UUID0;
paths = (
{
closed = 1;
nodes = (
"166 -3 OFFCURVE",
"227 42 OFFCURVE",
"226 146 CURVE SMOOTH",
"221 554 LINE SMOOTH",
"220 645 OFFCURVE",
"270 684 OFFCURVE",
"338 684 CURVE SMOOTH",
"375 684 OFFCURVE",
"412 669 OFFCURVE",
"440 640 CURVE",
"450 657 LINE",
"421 687 OFFCURVE",
"380 703 OFFCURVE",
"339 703 CURVE SMOOTH",
"260 703 OFFCURVE",
"200 657 OFFCURVE",
"201 554 CURVE SMOOTH",
"206 146 LINE SMOOTH",
"207 55 OFFCURVE",
"157 16 OFFCURVE",
"90 16 CURVE SMOOTH",
"49 16 OFFCURVE",
"13 33 OFFCURVE",
"-13 60 CURVE",
"-23 43 LINE",
"6 12 OFFCURVE",
"49 -3 OFFCURVE",
"89 -3 CURVE SMOOTH"
);
}
);
width = 432;
},
{
layerId = "708134FE-A11E-43C9-84F0-594DA15B6BD1";
paths = (
{
closed = 1;
nodes = (
"187 -9 OFFCURVE",
"305 22 OFFCURVE",
"303 186 CURVE SMOOTH",
"299 518 LINE SMOOTH",
"298 593 OFFCURVE",
"351 609 OFFCURVE",
"392 609 CURVE SMOOTH",
"421 609 OFFCURVE",
"454 598 OFFCURVE",
"485 574 CURVE",
"519 657 LINE",
"482 691 OFFCURVE",
"429 709 OFFCURVE",
"375 709 CURVE SMOOTH",
"261 709 OFFCURVE",
"181 647 OFFCURVE",
"183 514 CURVE SMOOTH",
"188 182 LINE SMOOTH",
"189 116 OFFCURVE",
"146 90 OFFCURVE",
"95 90 CURVE SMOOTH",
"64 90 OFFCURVE",
"32 101 OFFCURVE",
"2 125 CURVE",
"-33 43 LINE",
"4 8 OFFCURVE",
"58 -9 OFFCURVE",
"112 -9 CURVE SMOOTH"
);
}
);
width = 490;
},
{
layerId = "5DA6E103-6A94-47F2-987D-4952DB8EA68E";
paths = (
{
closed = 1;
nodes = (
"290 -16 OFFCURVE",
"401 61 OFFCURVE",
"398 237 CURVE SMOOTH",
"394 472 LINE SMOOTH",
"393 517 OFFCURVE",
"425 530 OFFCURVE",
"454 530 CURVE SMOOTH",
"477 530 OFFCURVE",
"503 521 OFFCURVE",
"533 500 CURVE",
"600 656 LINE",
"555 696 OFFCURVE",
"487 716 OFFCURVE",
"413 716 CURVE SMOOTH",
"264 716 OFFCURVE",
"153 639 OFFCURVE",
"156 463 CURVE SMOOTH",
"160 228 LINE SMOOTH",
"161 183 OFFCURVE",
"129 170 OFFCURVE",
"100 170 CURVE SMOOTH",
"77 170 OFFCURVE",
"51 179 OFFCURVE",
"21 200 CURVE",
"-46 44 LINE",
"-1 4 OFFCURVE",
"67 -16 OFFCURVE",
"141 -16 CURVE SMOOTH"
);
}
);
width = 557;
}
);
leftKerningGroup = Esh;
rightKerningGroup = Esh;
unicode = 01A9;
},
{
color = 3;
glyphname = Estroke;
layers = (
{
anchors = (
{
name = bottom;
position = "{359, 0}";
},
{
name = ogonek;
position = "{599, 0}";
},
{
name = top;
position = "{359, 700}";
}
);
layerId = UUID0;
paths = (
{
closed = 1;
nodes = (
"172 -70 LINE",
"562 770 LINE",
"540 770 LINE",
"150 -70 LINE"
);
},
{
closed = 1;
nodes = (
"600 0 LINE",
"600 19 LINE",
"154 19 LINE",
"154 681 LINE",
"585 681 LINE",
"584 700 LINE",
"133 700 LINE",
"134 0 LINE"
);
},
{
closed = 1;
nodes = (
"540 346 LINE",
"540 365 LINE",
"149 365 LINE",
"149 346 LINE"
);
}
);
width = 669;
},
{
anchors = (
{
name = bottom;
position = "{351, 0}";
},
{
name = ogonek;
position = "{616, 0}";
},
{
name = top;
position = "{351, 700}";
}
);
layerId = "708134FE-A11E-43C9-84F0-594DA15B6BD1";
paths = (
{
closed = 1;
nodes = (
"229 -70 LINE",
"605 770 LINE",
"515 770 LINE",
"138 -70 LINE"
);
},
{
closed = 1;
nodes = (
"616 0 LINE",
"616 99 LINE",
"214 99 LINE",
"214 601 LINE",
"602 601 LINE",
"602 700 LINE",
"100 700 LINE",
"100 0 LINE"
);
},
{
closed = 1;
nodes = (
"559 307 LINE",
"559 404 LINE",
"205 404 LINE",
"205 307 LINE"
);
}
);
width = 670;
},
{
anchors = (
{
name = bottom;
position = "{342, 0}";
},
{
name = ogonek;
position = "{639, 0}";
},
{
name = top;
position = "{342, 700}";
}
);
layerId = "5DA6E103-6A94-47F2-987D-4952DB8EA68E";
paths = (
{
closed = 1;
nodes = (
"280 -70 LINE",
"676 770 LINE",
"562 770 LINE",
"166 -70 LINE"
);
},
{
closed = 1;
nodes = (
"639 0 LINE",
"639 178 LINE",
"289 178 LINE",
"289 522 LINE",
"626 522 LINE",
"626 700 LINE",
"57 700 LINE",
"57 0 LINE"
);
},
{
closed = 1;
nodes = (
"585 270 LINE",
"585 440 LINE",
"273 440 LINE",
"273 270 LINE"
);
}
);
width = 673;
}
);
leftKerningGroup = H;
leftMetricsKey = E;
rightKerningGroup = E;
unicode = 0246;
},
{
glyphname = Schwa;
layers = (
{
anchors = (
{
name = bottom;
position = "{409, 0}";
},
{
name = ogonek;
position = "{434, 0}";
},
{
name = top;
position = "{409, 700}";
}
);
layerId = UUID0;
paths = (
{
closed = 1;
nodes = (
"602 -3 OFFCURVE",
"757 157 OFFCURVE",
"757 351 CURVE SMOOTH",
"757 552 OFFCURVE",
"603 703 OFFCURVE",
"398 703 CURVE SMOOTH",
"304 703 OFFCURVE",
"219 675 OFFCURVE",
"156 618 CURVE",
"167 603 LINE",
"234 661 OFFCURVE",
"311 684 OFFCURVE",
"398 684 CURVE SMOOTH",
"590 684 OFFCURVE",
"737 539 OFFCURVE",
"737 351 CURVE SMOOTH",
"737 349 LINE SMOOTH",
"737 162 OFFCURVE",
"587 16 OFFCURVE",
"408 16 CURVE SMOOTH",
"219 16 OFFCURVE",
"79 161 OFFCURVE",
"79 350 CURVE",
"71 341 LINE",
"742 341 LINE",
"742 360 LINE",
"59 360 LINE",
"59 350 LINE SMOOTH",
"59 148 OFFCURVE",
"207 -3 OFFCURVE",
"408 -3 CURVE SMOOTH"
);
}
);
width = 816;
},
{
anchors = (
{
name = bottom;
position = "{409, 0}";
},
{
name = ogonek;
position = "{484, 0}";
},
{
name = top;
position = "{409, 700}";
}
);
layerId = "5DA6E103-6A94-47F2-987D-4952DB8EA68E";
paths = (
{
closed = 1;
nodes = (
"628 -16 OFFCURVE",
"789 133 OFFCURVE",
"789 350 CURVE SMOOTH",
"789 565 OFFCURVE",
"624 716 OFFCURVE",
"389 716 CURVE SMOOTH",
"262 716 OFFCURVE",
"135 658 OFFCURVE",
"69 586 CURVE",
"208 443 LINE",
"251 495 OFFCURVE",
"332 525 OFFCURVE",
"387 525 CURVE SMOOTH",
"485 525 OFFCURVE",
"551 457 OFFCURVE",
"551 360 CURVE SMOOTH",
"551 310 LINE SMOOTH",
"551 215 OFFCURVE",
"503 157 OFFCURVE",
"409 157 CURVE SMOOTH",
"315 157 OFFCURVE",
"267 215 OFFCURVE",
"267 310 CURVE",
"191 268 LINE",
"576 268 LINE",
"576 398 LINE",
"29 398 LINE",
"29 360 LINE SMOOTH",
"29 133 OFFCURVE",
"184 -16 OFFCURVE",
"409 -16 CURVE SMOOTH"
);
}
);
width = 818;
},
{
anchors = (
{
name = bottom;
position = "{409, 0}";
},
{
name = ogonek;
position = "{462, 0}";
},
{
name = top;
position = "{409, 700}";
}
);
layerId = "708134FE-A11E-43C9-84F0-594DA15B6BD1";
paths = (
{
closed = 1;
nodes = (
"617 -9 OFFCURVE",
"771 143 OFFCURVE",
"771 351 CURVE SMOOTH",
"771 557 OFFCURVE",
"617 709 OFFCURVE",
"404 709 CURVE SMOOTH",
"286 709 OFFCURVE",
"182 669 OFFCURVE",
"116 604 CURVE",
"185 525 LINE",
"241 580 OFFCURVE",
"320 607 OFFCURVE",
"403 607 CURVE SMOOTH",
"544 607 OFFCURVE",
"656 499 OFFCURVE",
"656 355 CURVE SMOOTH",
"656 344 LINE SMOOTH",
"656 192 OFFCURVE",
"558 90 OFFCURVE",
"409 90 CURVE SMOOTH",
"260 90 OFFCURVE",
"160 192 OFFCURVE",
"160 350 CURVE",
"123 289 LINE",
"669 289 LINE",
"669 386 LINE",
"46 386 LINE",
"46 355 LINE SMOOTH",
"46 144 OFFCURVE",
"200 -9 OFFCURVE",
"409 -9 CURVE SMOOTH"
);
}
);
width = 817;
}
);
leftKerningGroup = O;
leftMetricsKey = O;
rightKerningGroup = O;
rightMetricsKey = O;
unicode = 018F;
},
{
color = 8;
glyphname = Ezhreversed;
layers = (
{
anchors = (
{
name = bottom;
position = "{304, 0}";
},
{
name = top;
position = "{304, 700}";
}
);
layerId = UUID0;
paths = (
{
closed = 1;
nodes = (
"427 -3 OFFCURVE",
"525 38 OFFCURVE",
"569 96 CURVE",
"556 109 LINE",
"514 57 OFFCURVE",
"425 16 OFFCURVE",
"313 16 CURVE SMOOTH",
"168 16 OFFCURVE",
"90 85 OFFCURVE",
"90 192 CURVE SMOOTH",
"90 299 OFFCURVE",
"166 368 OFFCURVE",
"329 368 CURVE SMOOTH",
"369 368 LINE",
"369 383 LINE",
"120 688 LINE",
"118 681 LINE",
"546 681 LINE",
"546 700 LINE",
"98 700 LINE",
"98 685 LINE",
"347 380 LINE",
"346 387 LINE",
"330 387 LINE SMOOTH",
"155 387 OFFCURVE",
"70 308 OFFCURVE",
"70 192 CURVE SMOOTH",
"70 76 OFFCURVE",
"156 -3 OFFCURVE",
"314 -3 CURVE SMOOTH"
);
}
);
width = 603;
},
{
anchors = (
{
name = bottom;
position = "{319, 0}";
},
{
name = top;
position = "{319, 700}";
}
);
layerId = "708134FE-A11E-43C9-84F0-594DA15B6BD1";
paths = (
{
closed = 1;
nodes = (
"441 -9 OFFCURVE",
"544 22 OFFCURVE",
"602 72 CURVE",
"561 164 LINE",
"510 120 OFFCURVE",
"427 91 OFFCURVE",
"337 91 CURVE SMOOTH",
"227 91 OFFCURVE",
"164 135 OFFCURVE",
"164 208 CURVE SMOOTH",
"164 277 OFFCURVE",
"220 321 OFFCURVE",
"342 321 CURVE SMOOTH",
"409 321 LINE",
"409 409 LINE",
"182 655 LINE",
"172 603 LINE",
"575 603 LINE",
"575 700 LINE",
"85 700 LINE",
"85 622 LINE",
"311 376 LINE",
"357 410 LINE",
"321 410 LINE SMOOTH",
"142 410 OFFCURVE",
"52 327 OFFCURVE",
"52 208 CURVE SMOOTH",
"52 89 OFFCURVE",
"143 -9 OFFCURVE",
"334 -9 CURVE SMOOTH"
);
}
);
width = 633;
},
{
anchors = (
{
name = bottom;
position = "{327, 0}";
},
{
name = top;
position = "{327, 700}";
}
);
layerId = "5DA6E103-6A94-47F2-987D-4952DB8EA68E";
paths = (
{
closed = 1;
nodes = (
"452 -16 OFFCURVE",
"562 5 OFFCURVE",
"638 47 CURVE",
"562 221 LINE",
"499 186 OFFCURVE",
"424 170 OFFCURVE",
"362 170 CURVE SMOOTH",
"302 170 OFFCURVE",
"260 188 OFFCURVE",
"260 224 CURVE SMOOTH",
"260 254 OFFCURVE",
"288 272 OFFCURVE",
"353 272 CURVE SMOOTH",
"451 272 LINE",
"451 417 LINE",
"256 601 LINE",
"235 522 LINE",
"605 522 LINE",
"605 700 LINE",
"62 700 LINE",
"62 555 LINE",
"257 371 LINE",
"366 435 LINE",
"304 435 LINE SMOOTH",
"120 435 OFFCURVE",
"22 347 OFFCURVE",
"22 225 CURVE SMOOTH",
"22 103 OFFCURVE",
"121 -16 OFFCURVE",
"354 -16 CURVE SMOOTH"
);
}
);
width = 648;
}
);
leftKerningGroup = E.ss01;
rightKerningGroup = E;
unicode = 01B8;
},
{
glyphname = F;
layers = (
{
anchors = (
{
name = bottom;
position = "{358, 0}";
},
{
name = top;
position = "{358, 700}";
}
);
layerId = UUID0;
paths = (
{
closed = 1;
nodes = (
"153 0 LINE",
"153 681 LINE",
"584 681 LINE",
"584 700 LINE",
"133 700 LINE",
"133 0 LINE"
);
},
{
closed = 1;
nodes = (
"539 326 LINE",
"539 345 LINE",
"148 345 LINE",
"148 326 LINE"
);
}
);
width = 629;
},
{
anchors = (
{
name = bottom;
position = "{338, 0}";
},
{
name = top;
position = "{338, 700}";
}
);
layerId = "5DA6E103-6A94-47F2-987D-4952DB8EA68E";
paths = (
{
closed = 1;
nodes = (
"293 0 LINE",
"293 522 LINE",
"626 522 LINE",
"626 700 LINE",
"57 700 LINE",
"57 0 LINE"
);
},
{
closed = 1;
nodes = (
"585 224 LINE",
"585 402 LINE",
"277 402 LINE",
"277 224 LINE"
);
}
);
width = 644;
},
{
anchors = (
{
name = bottom;
position = "{348, 0}";
},
{
name = top;
position = "{348, 700}";
}
);
layerId = "708134FE-A11E-43C9-84F0-594DA15B6BD1";
paths = (
{
closed = 1;
nodes = (
"214 0 LINE",
"214 601 LINE",
"602 601 LINE",
"602 700 LINE",
"100 700 LINE",
"100 0 LINE"
);
},
{
closed = 1;
nodes = (
"559 275 LINE",
"559 374 LINE",
"204 374 LINE",
"204 275 LINE"
);
}
);
width = 636;
}
);
leftKerningGroup = H;
leftMetricsKey = H;
rightKerningGroup = F;
unicode = 0046;
},
{
glyphname = Fhook;
layers = (
{
layerId = UUID0;
paths = (
{
closed = 1;
nodes = (
"50 -222 OFFCURVE",
"166 -192 OFFCURVE",
"166 -58 CURVE SMOOTH",
"166 681 LINE",
"597 681 LINE",
"597 700 LINE",
"146 700 LINE",
"146 -58 LINE SMOOTH",
"146 -173 OFFCURVE",
"54 -199 OFFCURVE",
"-21 -160 CURVE",
"-30 -178 LINE"
);
},
{
closed = 1;
nodes = (
"552 326 LINE",
"552 345 LINE",
"161 345 LINE",
"161 326 LINE"
);
}
);
width = 633;
},
{
layerId = "708134FE-A11E-43C9-84F0-594DA15B6BD1";
paths = (
{
closed = 1;
nodes = (
"92 -232 OFFCURVE",
"229 -176 OFFCURVE",
"229 -28 CURVE SMOOTH",
"229 601 LINE",
"617 601 LINE",
"617 700 LINE",
"115 700 LINE",
"115 -28 LINE SMOOTH",
"115 -92 OFFCURVE",
"58 -116 OFFCURVE",
"7 -97 CURVE",
"-24 -186 LINE"
);
},
{
closed = 1;
nodes = (
"574 275 LINE",
"574 374 LINE",
"219 374 LINE",
"219 275 LINE"
);
}
);
width = 656;
},
{
layerId = "5DA6E103-6A94-47F2-987D-4952DB8EA68E";
paths = (
{
closed = 1;
nodes = (
"99 -249 OFFCURVE",
"315 -194 OFFCURVE",
"315 20 CURVE SMOOTH",
"315 522 LINE",
"648 522 LINE",
"648 700 LINE",
"79 700 LINE",
"79 23 LINE SMOOTH",
"79 -30 OFFCURVE",
"33 -45 OFFCURVE",
"-20 -20 CURVE",
"-74 -177 LINE"
);
},
{
closed = 1;
nodes = (
"607 224 LINE",
"607 402 LINE",
"299 402 LINE",
"299 224 LINE"
);
}
);
width = 675;
}
);
leftKerningGroup = j;
leftMetricsKey = Nhookleft;
rightKerningGroup = F;
unicode = 0191;
},
{
glyphname = G;
layers = (
{
anchors = (
{
name = bottom;
position = "{402, 0}";
},
{
name = top;
position = "{402, 700}";
}
);
guideLines = (
{
angle = 90;
position = "{421, 328}";
}
);
layerId = UUID0;
paths = (
{
closed = 1;
nodes = (
"516 -3 OFFCURVE",
"602 27 OFFCURVE",
"662 87 CURVE",
"650 102 LINE",
"589 40 OFFCURVE",
"509 16 OFFCURVE",
"421 16 CURVE SMOOTH",
"225 16 OFFCURVE",
"79 161 OFFCURVE",
"79 350 CURVE SMOOTH",
"79 539 OFFCURVE",
"225 684 OFFCURVE",
"421 684 CURVE SMOOTH",
"509 684 OFFCURVE",
"586 661 OFFCURVE",
"650 600 CURVE",
"662 614 LINE",
"602 674 OFFCURVE",
"516 703 OFFCURVE",
"421 703 CURVE SMOOTH",
"213 703 OFFCURVE",
"59 552 OFFCURVE",
"59 350 CURVE SMOOTH",
"59 148 OFFCURVE",
"213 -3 OFFCURVE",
"421 -3 CURVE SMOOTH"
);
},
{
closed = 1;
nodes = (
"662 343 LINE",
"643 343 LINE",
"643 89 LINE",
"662 87 LINE"
);
}
);
width = 774;
},
{
anchors = (
{
name = bottom;
position = "{410, 0}";
},
{
name = top;
position = "{424, 700}";
}
);
guideLines = (
{
angle = 90;
position = "{425, 328}";
}
);
layerId = "5DA6E103-6A94-47F2-987D-4952DB8EA68E";
paths = (
{
closed = 1;
nodes = (
"523 -16 OFFCURVE",
"640 15 OFFCURVE",
"725 73 CURVE",
"593 235 LINE",
"536 191 OFFCURVE",
"487 175 OFFCURVE",
"434 175 CURVE SMOOTH",
"333 175 OFFCURVE",
"267 245 OFFCURVE",
"267 350 CURVE SMOOTH",
"267 458 OFFCURVE",
"333 525 OFFCURVE",
"437 525 CURVE SMOOTH",
"499 525 OFFCURVE",
"550 499 OFFCURVE",
"594 448 CURVE",
"745 581 LINE",
"674 668 OFFCURVE",
"563 716 OFFCURVE",
"425 716 CURVE SMOOTH",
"194 716 OFFCURVE",
"29 565 OFFCURVE",
"29 350 CURVE SMOOTH",
"29 135 OFFCURVE",
"194 -16 OFFCURVE",
"420 -16 CURVE SMOOTH"
);
},
{
closed = 1;
nodes = (
"725 369 LINE",
"520 369 LINE",
"520 103 LINE",
"725 73 LINE"
);
}
);
width = 769;
},
{
anchors = (
{
name = bottom;
position = "{405, 0}";
},
{
name = top;
position = "{412, 700}";
}
);
guideLines = (
{
angle = 90;
position = "{425, 328}";
}
);
layerId = "708134FE-A11E-43C9-84F0-594DA15B6BD1";
paths = (
{
closed = 1;
nodes = (
"519 -9 OFFCURVE",
"619 21 OFFCURVE",
"690 80 CURVE",
"625 167 LINE",
"566 113 OFFCURVE",
"499 93 OFFCURVE",
"427 93 CURVE SMOOTH",
"272 93 OFFCURVE",
"161 202 OFFCURVE",
"161 350 CURVE SMOOTH",
"161 500 OFFCURVE",
"272 607 OFFCURVE",
"428 607 CURVE SMOOTH",
"505 607 OFFCURVE",
"570 582 OFFCURVE",
"626 526 CURVE",
"698 598 LINE",
"633 671 OFFCURVE",
"537 709 OFFCURVE",
"423 709 CURVE SMOOTH",
"205 709 OFFCURVE",
"46 558 OFFCURVE",
"46 350 CURVE SMOOTH",
"46 142 OFFCURVE",
"205 -9 OFFCURVE",
"421 -9 CURVE SMOOTH"
);
},
{
closed = 1;
nodes = (
"690 356 LINE",
"580 356 LINE",
"580 95 LINE",
"690 80 LINE"
);
}
);
width = 772;
}
);
leftKerningGroup = O;
leftMetricsKey = O;
rightKerningGroup = G;
unicode = 0047;
},
{
color = 8;
glyphname = Ghook;
layers = (
{
anchors = (
{
name = bottom;
position = "{402, 0}";
},
{
name = top;
position = "{402, 700}";
}
);
layerId = UUID0;
paths = (
{
closed = 1;
nodes = (
"516 -3 OFFCURVE",
"602 27 OFFCURVE",
"662 87 CURVE",
"650 102 LINE",
"589 40 OFFCURVE",
"509 16 OFFCURVE",
"421 16 CURVE SMOOTH",
"225 16 OFFCURVE",
"79 161 OFFCURVE",
"79 350 CURVE SMOOTH",
"79 539 OFFCURVE",
"225 684 OFFCURVE",
"421 684 CURVE SMOOTH",
"509 684 OFFCURVE",
"586 661 OFFCURVE",
"650 600 CURVE",
"662 614 LINE",
"602 674 OFFCURVE",
"516 703 OFFCURVE",
"421 703 CURVE SMOOTH",
"213 703 OFFCURVE",
"59 552 OFFCURVE",
"59 350 CURVE SMOOTH",
"59 148 OFFCURVE",
"213 -3 OFFCURVE",
"421 -3 CURVE SMOOTH"
);
},
{
closed = 1;
nodes = (
"662 343 LINE",
"643 343 LINE",
"643 89 LINE",
"662 87 LINE"
);
},
{
closed = 1;
nodes = (
"662 614 LINE",
"662 681 LINE SMOOTH",
"662 771 OFFCURVE",
"727 814 OFFCURVE",
"801 781 CURVE",
"808 798 LINE",
"727 835 OFFCURVE",
"642 790 OFFCURVE",
"642 681 CURVE SMOOTH",
"642 614 LINE"
);
}
);
width = 778;
},
{
anchors = (
{
name = bottom;
position = "{409, 0}";
},
{
name = top;
position = "{409, 700}";
}
);
guideLines = (
{
position = "{715, 862}";
}
);
layerId = "708134FE-A11E-43C9-84F0-594DA15B6BD1";
paths = (
{
closed = 1;
nodes = (
"519 -9 OFFCURVE",
"619 21 OFFCURVE",
"690 80 CURVE",
"625 167 LINE",
"566 113 OFFCURVE",
"499 93 OFFCURVE",
"427 93 CURVE SMOOTH",
"272 93 OFFCURVE",
"161 202 OFFCURVE",
"161 350 CURVE SMOOTH",
"161 500 OFFCURVE",
"272 607 OFFCURVE",
"428 607 CURVE SMOOTH",
"505 607 OFFCURVE",
"570 582 OFFCURVE",
"626 526 CURVE",
"698 598 LINE",
"633 671 OFFCURVE",
"537 709 OFFCURVE",
"423 709 CURVE SMOOTH",
"205 709 OFFCURVE",
"46 558 OFFCURVE",
"46 350 CURVE SMOOTH",
"46 142 OFFCURVE",
"205 -9 OFFCURVE",
"421 -9 CURVE SMOOTH"
);
},
{
closed = 1;
nodes = (
"690 356 LINE",
"580 356 LINE",
"580 95 LINE",
"690 80 LINE"
);
},
{
closed = 1;
nodes = (
"698 598 LINE",
"698 673 LINE SMOOTH",
"698 735 OFFCURVE",
"755 759 OFFCURVE",
"806 740 CURVE",
"837 829 LINE",
"721 875 OFFCURVE",
"594 819 OFFCURVE",
"594 673 CURVE SMOOTH",
"594 598 LINE"
);
}
);
width = 782;
},
{
anchors = (
{
name = bottom;
position = "{417, 0}";
},
{
name = top;
position = "{417, 700}";
}
);
guideLines = (
{
position = "{726, 862}";
}
);
layerId = "5DA6E103-6A94-47F2-987D-4952DB8EA68E";
paths = (
{
closed = 1;
nodes = (
"523 -16 OFFCURVE",
"640 15 OFFCURVE",
"725 73 CURVE",
"593 235 LINE",
"536 191 OFFCURVE",
"487 175 OFFCURVE",
"434 175 CURVE SMOOTH",
"333 175 OFFCURVE",
"267 245 OFFCURVE",
"267 350 CURVE SMOOTH",
"267 458 OFFCURVE",
"333 525 OFFCURVE",
"437 525 CURVE SMOOTH",
"499 525 OFFCURVE",
"550 499 OFFCURVE",
"594 448 CURVE",
"745 581 LINE",
"674 668 OFFCURVE",
"563 716 OFFCURVE",
"425 716 CURVE SMOOTH",
"194 716 OFFCURVE",
"29 565 OFFCURVE",
"29 350 CURVE SMOOTH",
"29 135 OFFCURVE",
"194 -16 OFFCURVE",
"420 -16 CURVE SMOOTH"
);
},
{
closed = 1;
nodes = (
"725 369 LINE",
"520 369 LINE",
"520 103 LINE",
"725 73 LINE"
);
},
{
closed = 1;
nodes = (
"745 581 LINE",
"745 678 LINE SMOOTH",
"745 720 OFFCURVE",
"783 731 OFFCURVE",
"817 718 CURVE",
"860 865 LINE",
"723 922 OFFCURVE",
"555 876 OFFCURVE",
"555 695 CURVE SMOOTH",
"555 592 LINE"
);
}
);
width = 795;
}
);
leftKerningGroup = O;
leftMetricsKey = O;
rightKerningGroup = G;
unicode = 0193;
},
{
color = 3;
glyphname = Glottalstop;
layers = (
{
anchors = (
{
name = bottom;
position = "{292, 0}";
},
{
name = top;
position = "{292, 700}";
}
);
layerId = UUID0;
paths = (
{
closed = 1;
nodes = (
"302 0 LINE",
"302 143 LINE SMOOTH",
"302 338 OFFCURVE",
"549 316 OFFCURVE",
"549 512 CURVE SMOOTH",
"549 649 OFFCURVE",
"427 703 OFFCURVE",
"300 703 CURVE SMOOTH",
"192 703 OFFCURVE",
"82 665 OFFCURVE",
"26 583 CURVE",
"41 570 LINE",
"93 648 OFFCURVE",
"198 684 OFFCURVE",
"300 684 CURVE SMOOTH",
"416 684 OFFCURVE",
"529 637 OFFCURVE",
"529 512 CURVE SMOOTH",
"529 326 OFFCURVE",
"282 354 OFFCURVE",
"282 143 CURVE SMOOTH",
"282 0 LINE"
);
}
);
width = 603;
},
{
anchors = (
{
name = bottom;
position = "{245, 0}";
},
{
name = top;
position = "{245, 700}";
}
);
layerId = "708134FE-A11E-43C9-84F0-594DA15B6BD1";
paths = (
{
closed = 1;
nodes = (
"301 0 LINE",
"301 154 LINE SMOOTH",
"301 299 OFFCURVE",
"555 289 OFFCURVE",
"555 487 CURVE SMOOTH",
"555 635 OFFCURVE",
"412 709 OFFCURVE",
"261 709 CURVE SMOOTH",
"142 709 OFFCURVE",
"30 663 OFFCURVE",
"-38 571 CURVE",
"53 506 LINE",
"98 578 OFFCURVE",
"182 610 OFFCURVE",
"262 610 CURVE SMOOTH",
"351 610 OFFCURVE",
"440 571 OFFCURVE",
"440 486 CURVE SMOOTH",
"440 342 OFFCURVE",
"187 364 OFFCURVE",
"187 160 CURVE SMOOTH",
"187 0 LINE"
);
}
);
width = 565;
},
{
anchors = (
{
name = bottom;
position = "{361, 0}";
},
{
name = top;
position = "{371, 700}";
}
);
layerId = "5DA6E103-6A94-47F2-987D-4952DB8EA68E";
paths = (
{
closed = 1;
nodes = (
"479 0 LINE",
"479 159 LINE SMOOTH",
"479 284 OFFCURVE",
"674 284 OFFCURVE",
"674 472 CURVE SMOOTH",
"674 643 OFFCURVE",
"511 716 OFFCURVE",
"347 716 CURVE SMOOTH",
"203 716 OFFCURVE",
"58 659 OFFCURVE",
"8 553 CURVE",
"186 464 LINE",
"221 512 OFFCURVE",
"277 534 OFFCURVE",
"328 534 CURVE SMOOTH",
"386 534 OFFCURVE",
"437 505 OFFCURVE",
"437 457 CURVE SMOOTH",
"437 363 OFFCURVE",
"243 373 OFFCURVE",
"243 181 CURVE SMOOTH",
"243 0 LINE"
);
}
);
width = 695;
}
);
leftKerningGroup = question;
rightKerningGroup = question;
unicode = 0241;
},
{
color = 3;
glyphname = Glottalstopsmall;
layers = (
{
anchors = (
{
name = bottom;
position = "{266, 0}";
},
{
name = top;
position = "{266, 699}";
}
);
background = {
paths = (
{
closed = 1;
nodes = (
"345 0 LINE",
"345 22 LINE SMOOTH",
"345 242 OFFCURVE",
"558 242 OFFCURVE",
"558 462 CURVE SMOOTH",
"558 629 OFFCURVE",
"423 708 OFFCURVE",
"276 708 CURVE SMOOTH",
"163 708 OFFCURVE",
"38 661 OFFCURVE",
"-33 563 CURVE",
"51 503 LINE",
"102 574 OFFCURVE",
"188 610 OFFCURVE",
"266 610 CURVE SMOOTH",
"361 610 OFFCURVE",
"444 554 OFFCURVE",
"444 453 CURVE SMOOTH",
"444 285 OFFCURVE",
"231 284 OFFCURVE",
"231 22 CURVE SMOOTH",
"231 0 LINE"
);
}
);
};
layerId = UUID0;
paths = (
{
closed = 1;
nodes = (
"276 0 LINE",
"276 25 LINE SMOOTH",
"276 235 OFFCURVE",
"531 245 OFFCURVE",
"531 470 CURVE SMOOTH",
"531 634 OFFCURVE",
"395 703 OFFCURVE",
"251 703 CURVE SMOOTH",
"141 703 OFFCURVE",
"27 663 OFFCURVE",
"-44 583 CURVE",
"-31 568 LINE",
"38 645 OFFCURVE",
"149 684 OFFCURVE",
"252 684 CURVE SMOOTH",
"384 684 OFFCURVE",
"511 621 OFFCURVE",
"511 470 CURVE SMOOTH",
"511 257 OFFCURVE",
"256 247 OFFCURVE",
"256 25 CURVE SMOOTH",
"256 0 LINE"
);
}
);
userData = {
RMXScaler = {
height = 135.5;
width = 130;
};
};
width = 579;
},
{
anchors = (
{
name = bottom;
position = "{288, 0}";
},
{
name = top;
position = "{288, 699}";
}
);
layerId = "708134FE-A11E-43C9-84F0-594DA15B6BD1";
paths = (
{
closed = 1;
nodes = (
"345 0 LINE",
"345 34 LINE SMOOTH",
"345 241 OFFCURVE",
"558 245 OFFCURVE",
"558 459 CURVE SMOOTH",
"558 630 OFFCURVE",
"423 708 OFFCURVE",
"277 708 CURVE SMOOTH",
"163 708 OFFCURVE",
"38 661 OFFCURVE",
"-33 563 CURVE",
"51 503 LINE",
"102 574 OFFCURVE",
"188 610 OFFCURVE",
"266 610 CURVE SMOOTH",
"361 610 OFFCURVE",
"444 555 OFFCURVE",
"444 452 CURVE SMOOTH",
"444 286 OFFCURVE",
"231 283 OFFCURVE",
"231 34 CURVE SMOOTH",
"231 0 LINE"
);
}
);
userData = {
RMXScaler = {
height = 132.5;
width = 120;
};
};
width = 598;
},
{
anchors = (
{
name = bottom;
position = "{340, 0}";
},
{
name = top;
position = "{340, 700}";
}
);
layerId = "5DA6E103-6A94-47F2-987D-4952DB8EA68E";
paths = (
{
closed = 1;
nodes = (
"461 0 LINE",
"461 54 LINE SMOOTH",
"461 239 OFFCURVE",
"641 250 OFFCURVE",
"641 458 CURVE SMOOTH",
"641 632 OFFCURVE",
"491 716 OFFCURVE",
"330 716 CURVE SMOOTH",
"195 716 OFFCURVE",
"44 658 OFFCURVE",
"-26 530 CURVE",
"151 432 LINE",
"185 496 OFFCURVE",
"246 528 OFFCURVE",
"301 528 CURVE SMOOTH",
"358 528 OFFCURVE",
"404 491 OFFCURVE",
"404 428 CURVE SMOOTH",
"404 309 OFFCURVE",
"225 295 OFFCURVE",
"225 54 CURVE SMOOTH",
"225 0 LINE"
);
}
);
userData = {
RMXScaler = {
height = 129.5;
width = 119;
};
};
width = 671;
}
);
leftKerningGroup = Glottalstopsmall;
rightKerningGroup = Glottalstopsmall;
userData = {
RMXScaler = {
source = glottalstopsmall;
};
};
},
{
glyphname = Gstroke;
layers = (
{
anchors = (
{
name = bottom;
position = "{402, 0}";
},
{
name = top;
position = "{402, 700}";
}
);
guideLines = (
{
angle = 90;
position = "{431, 328}";
}
);
layerId = UUID0;
paths = (
{
closed = 1;
nodes = (
"516 -3 OFFCURVE",
"602 27 OFFCURVE",
"662 87 CURVE",
"650 102 LINE",
"589 40 OFFCURVE",
"509 16 OFFCURVE",
"421 16 CURVE SMOOTH",
"225 16 OFFCURVE",
"79 161 OFFCURVE",
"79 350 CURVE SMOOTH",
"79 539 OFFCURVE",
"225 684 OFFCURVE",
"421 684 CURVE SMOOTH",
"509 684 OFFCURVE",
"586 661 OFFCURVE",
"650 600 CURVE",
"662 614 LINE",
"602 674 OFFCURVE",
"516 703 OFFCURVE",
"421 703 CURVE SMOOTH",
"213 703 OFFCURVE",
"59 552 OFFCURVE",
"59 350 CURVE SMOOTH",
"59 148 OFFCURVE",
"213 -3 OFFCURVE",
"421 -3 CURVE SMOOTH"
);
},
{
closed = 1;
nodes = (
"782 224 LINE",
"782 243 LINE",
"473 243 LINE",
"473 224 LINE"
);
},
{
closed = 1;
nodes = (
"662 343 LINE",
"643 343 LINE",
"643 88 LINE",
"662 87 LINE"
);
}
);
width = 788;
},
{
anchors = (
{
name = bottom;
position = "{410, 0}";
},
{
name = top;
position = "{424, 700}";
}
);
guideLines = (
{
angle = 90;
position = "{400, 328}";
}
);
layerId = "5DA6E103-6A94-47F2-987D-4952DB8EA68E";
paths = (
{
closed = 1;
nodes = (
"523 -16 OFFCURVE",
"640 15 OFFCURVE",
"725 73 CURVE",
"593 235 LINE",
"536 191 OFFCURVE",
"487 175 OFFCURVE",
"434 175 CURVE SMOOTH",
"333 175 OFFCURVE",
"267 245 OFFCURVE",
"267 350 CURVE SMOOTH",
"267 458 OFFCURVE",
"333 525 OFFCURVE",
"437 525 CURVE SMOOTH",
"499 525 OFFCURVE",
"550 499 OFFCURVE",
"594 448 CURVE",
"745 581 LINE",
"674 668 OFFCURVE",
"563 716 OFFCURVE",
"425 716 CURVE SMOOTH",
"194 716 OFFCURVE",
"29 565 OFFCURVE",
"29 350 CURVE SMOOTH",
"29 135 OFFCURVE",
"194 -16 OFFCURVE",
"420 -16 CURVE SMOOTH"
);
},
{
closed = 1;
nodes = (
"795 212 LINE",
"795 348 LINE",
"415 348 LINE",
"415 212 LINE"
);
},
{
closed = 1;
nodes = (
"725 379 LINE",
"520 379 LINE",
"520 103 LINE",
"725 73 LINE"
);
}
);
width = 812;
},
{
anchors = (
{
name = bottom;
position = "{405, 0}";
},
{
name = top;
position = "{412, 700}";
}
);
guideLines = (
{
angle = 90;
position = "{398, 326}";
}
);
layerId = "708134FE-A11E-43C9-84F0-594DA15B6BD1";
paths = (
{
closed = 1;
nodes = (
"519 -9 OFFCURVE",
"619 21 OFFCURVE",
"690 80 CURVE",
"625 167 LINE",
"566 113 OFFCURVE",
"499 93 OFFCURVE",
"427 93 CURVE SMOOTH",
"272 93 OFFCURVE",
"161 202 OFFCURVE",
"161 350 CURVE SMOOTH",
"161 500 OFFCURVE",
"272 607 OFFCURVE",
"428 607 CURVE SMOOTH",
"505 607 OFFCURVE",
"570 582 OFFCURVE",
"626 526 CURVE",
"698 598 LINE",
"633 671 OFFCURVE",
"537 709 OFFCURVE",
"423 709 CURVE SMOOTH",
"205 709 OFFCURVE",
"46 558 OFFCURVE",
"46 350 CURVE SMOOTH",
"46 142 OFFCURVE",
"205 -9 OFFCURVE",
"421 -9 CURVE SMOOTH"
);
},
{
closed = 1;
nodes = (
"790 206 LINE",
"790 296 LINE",
"430 296 LINE",
"430 206 LINE"
);
},
{
closed = 1;
nodes = (
"690 356 LINE",
"580 356 LINE",
"580 95 LINE",
"690 80 LINE"
);
}
);
width = 804;
}
);
leftKerningGroup = O;
leftMetricsKey = "=O";
rightKerningGroup = G;
unicode = 01E4;
},
{
color = 3;
glyphname = Yogh;
layers = (
{
layerId = UUID0;
paths = (
{
closed = 1;
nodes = (
"278 -59 OFFCURVE",
"502 32 OFFCURVE",
"502 188 CURVE SMOOTH",
"502 305 OFFCURVE",
"383 369 OFFCURVE",
"229 351 CURVE",
"229 343 LINE",
"362 360 OFFCURVE",
"466 410 OFFCURVE",
"466 521 CURVE SMOOTH",
"466 602 OFFCURVE",
"412 686 OFFCURVE",
"269 701 CURVE SMOOTH",
"192 709 OFFCURVE",
"92 696 OFFCURVE",
"-14 637 CURVE",
"-2 620 LINE",
"99 674 OFFCURVE",
"192 690 OFFCURVE",
"269 682 CURVE SMOOTH",
"396 668 OFFCURVE",
"446 594 OFFCURVE",
"446 523 CURVE SMOOTH",
"446 418 OFFCURVE",
"334 370 OFFCURVE",
"200 352 CURVE SMOOTH",
"113 340 LINE",
"115 322 LINE",
"207 333 LINE SMOOTH",
"369 353 OFFCURVE",
"482 299 OFFCURVE",
"482 191 CURVE SMOOTH",
"482 47 OFFCURVE",
"269 -38 OFFCURVE",
"-25 -55 CURVE",
"-22 -75 LINE"
);
}
);
width = 563;
},
{
layerId = "708134FE-A11E-43C9-84F0-594DA15B6BD1";
paths = (
{
closed = 1;
nodes = (
"330 -76 OFFCURVE",
"566 33 OFFCURVE",
"566 207 CURVE SMOOTH",
"566 329 OFFCURVE",
"452 394 OFFCURVE",
"298 357 CURVE",
"302 332 LINE",
"433 363 OFFCURVE",
"536 429 OFFCURVE",
"536 538 CURVE SMOOTH",
"536 626 OFFCURVE",
"468 709 OFFCURVE",
"308 709 CURVE SMOOTH",
"205 709 OFFCURVE",
"87 673 OFFCURVE",
"-9 614 CURVE",
"28 530 LINE",
"130 584 OFFCURVE",
"230 612 OFFCURVE",
"297 612 CURVE SMOOTH",
"383 612 OFFCURVE",
"420 566 OFFCURVE",
"420 515 CURVE SMOOTH",
"420 443 OFFCURVE",
"344 404 OFFCURVE",
"248 381 CURVE SMOOTH",
"133 354 LINE",
"140 259 LINE",
"282 291 LINE SMOOTH",
"375 312 OFFCURVE",
"448 289 OFFCURVE",
"448 211 CURVE SMOOTH",
"448 90 OFFCURVE",
"274 28 OFFCURVE",
"-16 -13 CURVE",
"-10 -108 LINE"
);
}
);
width = 617;
},
{
layerId = "5DA6E103-6A94-47F2-987D-4952DB8EA68E";
paths = (
{
closed = 1;
nodes = (
"396 -103 OFFCURVE",
"649 -2 OFFCURVE",
"649 195 CURVE SMOOTH",
"649 323 OFFCURVE",
"542 407 OFFCURVE",
"386 365 CURVE",
"397 320 LINE",
"524 349 OFFCURVE",
"626 422 OFFCURVE",
"626 528 CURVE SMOOTH",
"626 626 OFFCURVE",
"541 715 OFFCURVE",
"359 715 CURVE SMOOTH",
"221 715 OFFCURVE",
"80 662 OFFCURVE",
"-2 620 CURVE",
"67 446 LINE",
"170 488 OFFCURVE",
"279 518 OFFCURVE",
"329 518 CURVE SMOOTH",
"368 518 OFFCURVE",
"387 502 OFFCURVE",
"387 477 CURVE SMOOTH",
"387 448 OFFCURVE",
"362 434 OFFCURVE",
"309 422 CURVE SMOOTH",
"158 387 LINE",
"173 206 LINE",
"328 242 LINE SMOOTH",
"380 254 OFFCURVE",
"404 235 OFFCURVE",
"404 205 CURVE SMOOTH",
"404 122 OFFCURVE",
"221 97 OFFCURVE",
"-4 77 CURVE",
"5 -116 LINE"
);
}
);
width = 680;
}
);
leftKerningGroup = Yogh;
rightKerningGroup = B;
unicode = 021C;
},
{
glyphname = H;
layers = (
{
anchors = (
{
name = bottom;
position = "{408, 0}";
},
{
name = center;
position = "{408, 538}";
},
{
name = hook.af;
position = "{133, 700}";
},
{
name = top;
position = "{408, 700}";
}
);
layerId = UUID0;
paths = (
{
closed = 1;
nodes = (
"683 0 LINE",
"683 700 LINE",
"663 700 LINE",
"663 0 LINE"
);
},
{
closed = 1;
nodes = (
"153 0 LINE",
"153 700 LINE",
"133 700 LINE",
"133 0 LINE"
);
},
{
closed = 1;
nodes = (
"668 346 LINE",
"668 365 LINE",
"148 365 LINE",
"148 346 LINE"
);
}
);
width = 816;
},
{
anchors = (
{
name = bottom;
position = "{402, 0}";
},
{
name = center;
position = "{402, 566}";
},
{
name = hook.af;
position = "{57, 700}";
},
{
name = top;
position = "{402, 700}";
}
);
layerId = "5DA6E103-6A94-47F2-987D-4952DB8EA68E";
paths = (
{
closed = 1;
nodes = (
"747 0 LINE",
"747 700 LINE",
"511 700 LINE",
"511 0 LINE"
);
},
{
closed = 1;
nodes = (
"293 0 LINE",
"293 700 LINE",
"57 700 LINE",
"57 0 LINE"
);
},
{
closed = 1;
nodes = (
"527 258 LINE",
"527 452 LINE",
"277 452 LINE",
"277 258 LINE"
);
}
);
width = 804;
},
{
anchors = (
{
name = bottom;
position = "{405, 0}";
},
{
name = center;
position = "{406, 546}";
},
{
name = hook.af;
position = "{100, 700}";
},
{
name = top;
position = "{405, 700}";
}
);
layerId = "708134FE-A11E-43C9-84F0-594DA15B6BD1";
paths = (
{
closed = 1;
nodes = (
"711 0 LINE",
"711 700 LINE",
"597 700 LINE",
"597 0 LINE"
);
},
{
closed = 1;
nodes = (
"214 0 LINE",
"214 700 LINE",
"100 700 LINE",
"100 0 LINE"
);
},
{
closed = 1;
nodes = (
"606 306 LINE",
"606 405 LINE",
"204 405 LINE",
"204 306 LINE"
);
}
);
width = 811;
}
);
leftKerningGroup = H;
rightKerningGroup = H;
rightMetricsKey = "=|";
unicode = 0048;
},
{
glyphname = Hbar;
layers = (
{
anchors = (
{
name = bottom;
position = "{408, 0}";
},
{
name = center;
position = "{408, 538}";
},
{
name = hook.af;
position = "{133, 700}";
},
{
name = top;
position = "{408, 700}";
}
);
layerId = UUID0;
paths = (
{
closed = 1;
nodes = (
"683 0 LINE",
"683 700 LINE",
"663 700 LINE",
"663 0 LINE"
);
},
{
closed = 1;
nodes = (
"153 0 LINE",
"153 700 LINE",
"133 700 LINE",
"133 0 LINE"
);
},
{
closed = 1;
nodes = (
"668 346 LINE",
"668 365 LINE",
"148 365 LINE",
"148 346 LINE"
);
},
{
closed = 1;
nodes = (
"803 529 LINE",
"803 548 LINE",
"13 548 LINE",
"13 529 LINE"
);
}
);
width = 816;
},
{
anchors = (
{
name = bottom;
position = "{422, 0}";
},
{
name = center;
position = "{422, 566}";
},
{
name = hook.af;
position = "{77, 700}";
},
{
name = top;
position = "{422, 700}";
}
);
layerId = "5DA6E103-6A94-47F2-987D-4952DB8EA68E";
paths = (
{
closed = 1;
nodes = (
"767 0 LINE",
"767 700 LINE",
"531 700 LINE",
"531 0 LINE"
);
},
{
closed = 1;
nodes = (
"313 0 LINE",
"313 700 LINE",
"77 700 LINE",
"77 0 LINE"
);
},
{
closed = 1;
nodes = (
"547 248 LINE",
"547 432 LINE",
"297 432 LINE",
"297 248 LINE"
);
},
{
closed = 1;
nodes = (
"837 497 LINE",
"837 633 LINE",
"7 633 LINE",
"7 497 LINE"
);
}
);
width = 844;
},
{
anchors = (
{
name = bottom;
position = "{414, 0}";
},
{
name = center;
position = "{415, 546}";
},
{
name = hook.af;
position = "{109, 700}";
},
{
name = top;
position = "{414, 700}";
}
);
layerId = "708134FE-A11E-43C9-84F0-594DA15B6BD1";
paths = (
{
closed = 1;
nodes = (
"720 0 LINE",
"720 700 LINE",
"606 700 LINE",
"606 0 LINE"
);
},
{
closed = 1;
nodes = (
"223 0 LINE",
"223 700 LINE",
"109 700 LINE",
"109 0 LINE"
);
},
{
closed = 1;
nodes = (
"615 306 LINE",
"615 405 LINE",
"213 405 LINE",
"213 306 LINE"
);
},
{
closed = 1;
nodes = (
"820 501 LINE",
"820 591 LINE",
"9 591 LINE",
"9 501 LINE"
);
}
);
width = 829;
}
);
leftKerningGroup = Hbar;
rightKerningGroup = Hbar;
unicode = 0126;
},
{
color = 3;
glyphname = Hcedilla;
layers = (
{
anchors = (
{
name = bottom;
position = "{408, 0}";
},
{
name = center;
position = "{408, 538}";
},
{
name = hook.af;
position = "{133, 700}";
},
{
name = top;
position = "{408, 700}";
}
);
layerId = UUID0;
paths = (
{
closed = 1;
nodes = (
"683 0 LINE",
"683 700 LINE",
"663 700 LINE",
"663 0 LINE"
);
},
{
closed = 1;
nodes = (
"186 -213 OFFCURVE",
"225 -182 OFFCURVE",
"225 -134 CURVE SMOOTH",
"225 -89 OFFCURVE",
"191 -59 OFFCURVE",
"141 -56 CURVE",
"153 0 LINE",
"133 0 LINE",
"118 -74 LINE",
"134 -74 LINE SMOOTH",
"179 -74 OFFCURVE",
"205 -99 OFFCURVE",
"205 -134 CURVE SMOOTH",
"205 -173 OFFCURVE",
"174 -194 OFFCURVE",
"133 -194 CURVE SMOOTH",
"110 -194 OFFCURVE",
"87 -186 OFFCURVE",
"71 -171 CURVE",
"60 -186 LINE",
"82 -205 OFFCURVE",
"106 -213 OFFCURVE",
"134 -213 CURVE SMOOTH"
);
},
{
closed = 1;
nodes = (
"153 0 LINE",
"153 700 LINE",
"133 700 LINE",
"133 0 LINE"
);
},
{
closed = 1;
nodes = (
"668 346 LINE",
"668 365 LINE",
"148 365 LINE",
"148 346 LINE"
);
}
);
width = 816;
},
{
anchors = (
{
name = bottom;
position = "{405, 0}";
},
{
name = center;
position = "{405, 556}";
},
{
name = hook.af;
position = "{100, 700}";
},
{
name = top;
position = "{405, 700}";
}
);
layerId = "708134FE-A11E-43C9-84F0-594DA15B6BD1";
paths = (
{
closed = 1;
nodes = (
"711 0 LINE",
"711 700 LINE",
"597 700 LINE",
"597 0 LINE"
);
},
{
closed = 1;
nodes = (
"232 -226 OFFCURVE",
"284 -190 OFFCURVE",
"284 -133 CURVE SMOOTH",
"284 -89 OFFCURVE",
"255 -55 OFFCURVE",
"182 -49 CURVE",
"196 7 LINE",
"135 7 LINE",
"109 -94 LINE",
"152 -94 LINE SMOOTH",
"191 -94 OFFCURVE",
"207 -108 OFFCURVE",
"207 -129 CURVE SMOOTH",
"207 -152 OFFCURVE",
"191 -166 OFFCURVE",
"153 -166 CURVE SMOOTH",
"128 -166 OFFCURVE",
"106 -161 OFFCURVE",
"84 -150 CURVE",
"62 -205 LINE",
"87 -219 OFFCURVE",
"117 -226 OFFCURVE",
"153 -226 CURVE SMOOTH"
);
},
{
closed = 1;
nodes = (
"214 0 LINE",
"214 700 LINE",
"100 700 LINE",
"100 0 LINE"
);
},
{
closed = 1;
nodes = (
"606 306 LINE",
"606 405 LINE",
"204 405 LINE",
"204 306 LINE"
);
}
);
width = 811;
},
{
anchors = (
{
name = bottom;
position = "{402, 0}";
},
{
name = center;
position = "{402, 576}";
},
{
name = hook.af;
position = "{57, 700}";
},
{
name = top;
position = "{402, 700}";
}
);
layerId = "5DA6E103-6A94-47F2-987D-4952DB8EA68E";
paths = (
{
closed = 1;
nodes = (
"747 0 LINE",
"747 700 LINE",
"511 700 LINE",
"511 0 LINE"
);
},
{
closed = 1;
nodes = (
"242 -240 OFFCURVE",
"310 -199 OFFCURVE",
"310 -132 CURVE SMOOTH",
"310 -97 OFFCURVE",
"288 -60 OFFCURVE",
"225 -52 CURVE",
"239 10 LINE",
"123 10 LINE",
"96 -104 LINE",
"137 -104 LINE SMOOTH",
"166 -104 OFFCURVE",
"178 -112 OFFCURVE",
"178 -124 CURVE SMOOTH",
"178 -138 OFFCURVE",
"164 -148 OFFCURVE",
"130 -148 CURVE SMOOTH",
"106 -148 OFFCURVE",
"85 -142 OFFCURVE",
"70 -136 CURVE",
"42 -219 LINE",
"64 -231 OFFCURVE",
"106 -240 OFFCURVE",
"140 -240 CURVE SMOOTH"
);
},
{
closed = 1;
nodes = (
"293 0 LINE",
"293 700 LINE",
"57 700 LINE",
"57 0 LINE"
);
},
{
closed = 1;
nodes = (
"527 258 LINE",
"527 452 LINE",
"277 452 LINE",
"277 258 LINE"
);
}
);
width = 804;
}
);
leftKerningGroup = H;
rightKerningGroup = H;
unicode = 1E28;
},
{
color = 3;
glyphname = Hturned;
layers = (
{
anchors = (
{
name = bottom;
position = "{332, 0}";
},
{
name = top;
position = "{334, 700}";
}
);
layerId = UUID0;
paths = (
{
closed = 1;
nodes = (
"582 700 LINE",
"582 542 LINE SMOOTH",
"582 350 OFFCURVE",
"491 259 OFFCURVE",
"332 259 CURVE SMOOTH",
"173 259 OFFCURVE",
"82 349 OFFCURVE",
"82 522 CURVE SMOOTH",
"82 700 LINE",
"62 700 LINE",
"62 521 LINE SMOOTH",
"62 338 OFFCURVE",
"165 240 OFFCURVE",
"331 240 CURVE SMOOTH",
"458 240 OFFCURVE",
"549 298 OFFCURVE",
"584 416 CURVE",
"582 419 LINE",
"582 0 LINE",
"602 0 LINE",
"602 700 LINE"
);
}
);
width = 735;
},
{
anchors = (
{
name = bottom;
position = "{354, 0}";
},
{
name = top;
position = "{355, 700}";
}
);
layerId = "708134FE-A11E-43C9-84F0-594DA15B6BD1";
paths = (
{
closed = 1;
nodes = (
"542 700 LINE",
"542 528 LINE SMOOTH",
"542 384 OFFCURVE",
"461 317 OFFCURVE",
"344 317 CURVE SMOOTH",
"236 317 OFFCURVE",
"166 382 OFFCURVE",
"166 514 CURVE SMOOTH",
"166 700 LINE",
"52 700 LINE",
"52 510 LINE SMOOTH",
"52 319 OFFCURVE",
"154 215 OFFCURVE",
"320 215 CURVE SMOOTH",
"443 215 OFFCURVE",
"534 263 OFFCURVE",
"579 376 CURVE",
"546 394 LINE",
"546 0 LINE",
"656 0 LINE",
"656 700 LINE"
);
}
);
width = 756;
},
{
anchors = (
{
name = bottom;
position = "{365, 0}";
},
{
name = top;
position = "{365, 700}";
}
);
layerId = "5DA6E103-6A94-47F2-987D-4952DB8EA68E";
paths = (
{
closed = 1;
nodes = (
"472 700 LINE",
"472 507 LINE SMOOTH",
"472 414 OFFCURVE",
"423 372 OFFCURVE",
"362 372 CURVE SMOOTH",
"299 372 OFFCURVE",
"258 411 OFFCURVE",
"258 499 CURVE SMOOTH",
"258 700 LINE",
"22 700 LINE",
"22 492 LINE SMOOTH",
"22 292 OFFCURVE",
"118 181 OFFCURVE",
"283 181 CURVE SMOOTH",
"395 181 OFFCURVE",
"474 238 OFFCURVE",
"515 334 CURVE",
"479 378 LINE",
"479 0 LINE",
"708 0 LINE",
"708 700 LINE"
);
}
);
width = 765;
}
);
leftKerningGroup = "Che-cy";
rightKerningGroup = H;
unicode = A78D;
},
{
glyphname = I;
layers = (
{
anchors = (
{
name = bottom;
position = "{143, 0}";
},
{
name = center;
position = "{143, 350}";
},
{
name = ogonek;
position = "{153, 0}";
},
{
name = top;
position = "{143, 700}";
},
{
name = topleft;
position = "{41, 699}";
}
);
layerId = UUID0;
paths = (
{
closed = 1;
nodes = (
"153 0 LINE",
"153 700 LINE",
"133 700 LINE",
"133 0 LINE"
);
}
);
width = 286;
},
{
anchors = (
{
name = bottom;
position = "{175, 0}";
},
{
name = center;
position = "{175, 350}";
},
{
name = ogonek;
position = "{293, 0}";
},
{
name = top;
position = "{175, 700}";
},
{
name = topleft;
position = "{-9, 700}";
}
);
layerId = "5DA6E103-6A94-47F2-987D-4952DB8EA68E";
paths = (
{
closed = 1;
nodes = (
"293 0 LINE",
"293 700 LINE",
"57 700 LINE",
"57 0 LINE"
);
}
);
width = 350;
},
{
anchors = (
{
name = bottom;
position = "{157, 0}";
},
{
name = center;
position = "{157, 350}";
},
{
name = ogonek;
position = "{214, 0}";
},
{
name = top;
position = "{157, 700}";
},
{
name = topleft;
position = "{19, 699}";
}
);
layerId = "708134FE-A11E-43C9-84F0-594DA15B6BD1";
paths = (
{
closed = 1;
nodes = (
"214 0 LINE",
"214 700 LINE",
"100 700 LINE",
"100 0 LINE"
);
}
);
width = 314;
}
);
leftKerningGroup = H;
leftMetricsKey = H;
rightKerningGroup = H;
rightMetricsKey = H;
unicode = 0049;
},
{
glyphname = IJ;
layers = (
{
anchors = (
{
name = top;
position = "{167, 700}";
}
);
guideLines = (
{
angle = 90;
position = "{117, 186}";
}
);
layerId = UUID0;
paths = (
{
closed = 1;
nodes = (
"484 -3 OFFCURVE",
"587 95 OFFCURVE",
"587 293 CURVE SMOOTH",
"587 700 LINE",
"567 700 LINE",
"567 294 LINE SMOOTH",
"567 107 OFFCURVE",
"476 16 OFFCURVE",
"328 16 CURVE SMOOTH",
"253 16 OFFCURVE",
"185 39 OFFCURVE",
"132 78 CURVE",
"120 62 LINE",
"174 24 OFFCURVE",
"247 -3 OFFCURVE",
"327 -3 CURVE SMOOTH"
);
},
{
closed = 1;
nodes = (
"147 290 LINE",
"147 700 LINE",
"127 700 LINE",
"127 290 LINE"
);
}
);
width = 714;
},
{
anchors = (
{
name = top;
position = "{169, 700}";
}
);
layerId = "5DA6E103-6A94-47F2-987D-4952DB8EA68E";
paths = (
{
closed = 1;
nodes = (
"538 -16 OFFCURVE",
"678 105 OFFCURVE",
"678 325 CURVE SMOOTH",
"678 700 LINE",
"442 700 LINE",
"442 312 LINE SMOOTH",
"442 215 OFFCURVE",
"404 172 OFFCURVE",
"317 172 CURVE SMOOTH",
"258 172 OFFCURVE",
"183 194 OFFCURVE",
"117 236 CURVE",
"31 69 LINE",
"104 17 OFFCURVE",
"208 -16 OFFCURVE",
"328 -16 CURVE SMOOTH"
);
},
{
closed = 1;
nodes = (
"287 336 LINE",
"287 700 LINE",
"51 700 LINE",
"51 336 LINE"
);
}
);
width = 729;
},
{
anchors = (
{
name = top;
position = "{151, 700}";
}
);
layerId = "708134FE-A11E-43C9-84F0-594DA15B6BD1";
paths = (
{
closed = 1;
nodes = (
"508 -9 OFFCURVE",
"627 100 OFFCURVE",
"627 309 CURVE SMOOTH",
"627 700 LINE",
"513 700 LINE",
"513 303 LINE SMOOTH",
"513 160 OFFCURVE",
"447 93 OFFCURVE",
"329 93 CURVE SMOOTH",
"255 93 OFFCURVE",
"184 115 OFFCURVE",
"125 155 CURVE",
"81 63 LINE",
"143 20 OFFCURVE",
"230 -9 OFFCURVE",
"327 -9 CURVE SMOOTH"
);
},
{
closed = 1;
nodes = (
"208 312 LINE",
"208 700 LINE",
"94 700 LINE",
"94 312 LINE"
);
}
);
width = 721;
}
);
leftKerningGroup = H;
rightKerningGroup = U;
rightMetricsKey = U;
unicode = 0132;
},
{
glyphname = Iacute_J.loclNLD;
layers = (
{
guideLines = (
{
angle = 90;
position = "{-254, 699}";
},
{
angle = 90;
position = "{22, 699}";
},
{
angle = 90;
position = "{128, 732}";
}
);
layerId = UUID0;
paths = (
{
closed = 1;
nodes = (
"484 -3 OFFCURVE",
"587 95 OFFCURVE",
"587 293 CURVE SMOOTH",
"587 700 LINE",
"567 700 LINE",
"567 294 LINE SMOOTH",
"567 107 OFFCURVE",
"476 16 OFFCURVE",
"328 16 CURVE SMOOTH",
"253 16 OFFCURVE",
"185 39 OFFCURVE",
"132 78 CURVE",
"120 62 LINE",
"174 24 OFFCURVE",
"247 -3 OFFCURVE",
"327 -3 CURVE SMOOTH"
);
},
{
closed = 1;
nodes = (
"147 290 LINE",
"147 700 LINE",
"127 700 LINE",
"127 290 LINE"
);
},
{
closed = 1;
nodes = (
"152 757 LINE",
"302 867 LINE",
"262 867 LINE",
"122 757 LINE"
);
},
{
closed = 1;
nodes = (
"594 757 LINE",
"744 867 LINE",
"704 867 LINE",
"564 757 LINE"
);
}
);
width = 714;
},
{
guideLines = (
{
angle = 90;
position = "{0, 701}";
}
);
layerId = "5DA6E103-6A94-47F2-987D-4952DB8EA68E";
paths = (
{
closed = 1;
nodes = (
"538 -10 OFFCURVE",
"678 111 OFFCURVE",
"678 331 CURVE SMOOTH",
"678 700 LINE",
"442 700 LINE",
"442 318 LINE SMOOTH",
"442 221 OFFCURVE",
"404 178 OFFCURVE",
"317 178 CURVE SMOOTH",
"258 178 OFFCURVE",
"183 200 OFFCURVE",
"117 242 CURVE",
"31 75 LINE",
"104 23 OFFCURVE",
"208 -10 OFFCURVE",
"328 -10 CURVE SMOOTH"
);
},
{
closed = 1;
nodes = (
"287 336 LINE",
"287 700 LINE",
"51 700 LINE",
"51 336 LINE"
);
},
{
closed = 1;
nodes = (
"214 757 LINE",
"411 917 LINE",
"196 917 LINE",
"64 757 LINE"
);
},
{
closed = 1;
nodes = (
"604 757 LINE",
"801 917 LINE",
"586 917 LINE",
"454 757 LINE"
);
}
);
width = 729;
},
{
layerId = "708134FE-A11E-43C9-84F0-594DA15B6BD1";
paths = (
{
closed = 1;
nodes = (
"508 -6 OFFCURVE",
"627 103 OFFCURVE",
"627 311 CURVE SMOOTH",
"627 700 LINE",
"512 700 LINE",
"512 306 LINE SMOOTH",
"512 162 OFFCURVE",
"445 95 OFFCURVE",
"323 95 CURVE SMOOTH",
"255 95 OFFCURVE",
"184 117 OFFCURVE",
"125 158 CURVE",
"81 68 LINE",
"143 24 OFFCURVE",
"230 -6 OFFCURVE",
"327 -6 CURVE SMOOTH"
);
},
{
closed = 1;
nodes = (
"208 312 LINE",
"208 700 LINE",
"94 700 LINE",
"94 312 LINE"
);
},
{
closed = 1;
nodes = (
"179 757 LINE",
"350 891 LINE",
"233 891 LINE",
"97 757 LINE"
);
},
{
closed = 1;
nodes = (
"598 757 LINE",
"769 891 LINE",
"652 891 LINE",
"516 757 LINE"
);
}
);
width = 721;
}
);
leftKerningGroup = H;
leftMetricsKey = IJ;
rightKerningGroup = U;
},
{
color = 8;
glyphname = "Iota-latin";
layers = (
{
anchors = (
{
name = bottom;
position = "{225, 0}";
},
{
name = ogonek;
position = "{276, 0}";
},
{
name = top;
position = "{135, 700}";
}
);
guideLines = (
{
position = "{64, 376}";
}
);
layerId = UUID0;
paths = (
{
closed = 1;
nodes = (
"291 -3 OFFCURVE",
"332 11 OFFCURVE",
"362 39 CURVE",
"363 23 LINE",
"335 58 LINE",
"352 55 LINE",
"323 29 OFFCURVE",
"286 16 OFFCURVE",
"251 16 CURVE SMOOTH",
"195 16 OFFCURVE",
"145 51 OFFCURVE",
"145 127 CURVE SMOOTH",
"145 700 LINE",
"125 700 LINE",
"125 124 LINE SMOOTH",
"125 37 OFFCURVE",
"186 -3 OFFCURVE",
"252 -3 CURVE SMOOTH"
);
}
);
width = 345;
},
{
anchors = (
{
name = bottom;
position = "{237, 0}";
},
{
name = ogonek;
position = "{324, 0}";
},
{
name = top;
position = "{151, 700}";
}
);
layerId = "708134FE-A11E-43C9-84F0-594DA15B6BD1";
paths = (
{
closed = 1;
nodes = (
"324 -9 OFFCURVE",
"379 11 OFFCURVE",
"420 47 CURVE",
"410 -12 LINE",
"343 151 LINE",
"395 144 LINE",
"368 109 OFFCURVE",
"322 90 OFFCURVE",
"285 90 CURVE SMOOTH",
"243 90 OFFCURVE",
"208 116 OFFCURVE",
"208 170 CURVE SMOOTH",
"208 700 LINE",
"94 700 LINE",
"94 170 LINE SMOOTH",
"94 47 OFFCURVE",
"179 -9 OFFCURVE",
"270 -9 CURVE SMOOTH"
);
}
);
width = 389;
},
{
anchors = (
{
name = bottom;
position = "{211, 0}";
},
{
name = ogonek;
position = "{370, 0}";
},
{
name = top;
position = "{168, 700}";
}
);
layerId = "5DA6E103-6A94-47F2-987D-4952DB8EA68E";
paths = (
{
closed = 1;
nodes = (
"344 -15 OFFCURVE",
"412 0 OFFCURVE",
"473 29 CURVE",
"438 -17 LINE",
"389 206 LINE",
"408 194 LINE",
"384 178 OFFCURVE",
"361 170 OFFCURVE",
"341 170 CURVE SMOOTH",
"309 170 OFFCURVE",
"286 191 OFFCURVE",
"286 236 CURVE SMOOTH",
"286 700 LINE",
"50 700 LINE",
"50 207 LINE SMOOTH",
"50 47 OFFCURVE",
"157 -15 OFFCURVE",
"280 -15 CURVE SMOOTH"
);
}
);
width = 421;
}
);
leftKerningGroup = U;
rightKerningGroup = l.ss01;
unicode = 0196;
},
{
color = 3;
glyphname = Istroke;
layers = (
{
anchors = (
{
name = bottom;
position = "{163, 0}";
},
{
name = ogonek;
position = "{173, 0}";
},
{
name = top;
position = "{163, 700}";
},
{
name = topleft;
position = "{61, 699}";
}
);
layerId = UUID0;
paths = (
{
closed = 1;
nodes = (
"173 0 LINE",
"173 700 LINE",
"153 700 LINE",
"153 0 LINE"
);
},
{
closed = 1;
nodes = (
"293 345 LINE",
"293 364 LINE",
"33 364 LINE",
"33 345 LINE"
);
}
);
width = 326;
},
{
anchors = (
{
name = bottom;
position = "{170, 0}";
},
{
name = ogonek;
position = "{227, 0}";
},
{
name = top;
position = "{170, 700}";
},
{
name = topleft;
position = "{32, 699}";
}
);
layerId = "708134FE-A11E-43C9-84F0-594DA15B6BD1";
paths = (
{
closed = 1;
nodes = (
"227 0 LINE",
"227 700 LINE",
"113 700 LINE",
"113 0 LINE"
);
},
{
closed = 1;
nodes = (
"327 314 LINE",
"327 404 LINE",
"13 404 LINE",
"13 314 LINE"
);
}
);
width = 340;
},
{
anchors = (
{
name = bottom;
position = "{195, 0}";
},
{
name = ogonek;
position = "{313, 0}";
},
{
name = top;
position = "{195, 700}";
},
{
name = topleft;
position = "{11, 700}";
}
);
layerId = "5DA6E103-6A94-47F2-987D-4952DB8EA68E";
paths = (
{
closed = 1;
nodes = (
"313 0 LINE",
"313 700 LINE",
"77 700 LINE",
"77 0 LINE"
);
},
{
closed = 1;
nodes = (
"383 287 LINE",
"383 423 LINE",
"7 423 LINE",
"7 287 LINE"
);
}
);
width = 390;
}
);
leftKerningGroup = Lbar;
rightKerningGroup = Istroke;
unicode = 0197;
},
{
color = 3;
glyphname = J;
layers = (
{
anchors = (
{
name = top;
position = "{209, 700}";
}
);
layerId = UUID0;
paths = (
{
closed = 1;
nodes = (
"292 -3 OFFCURVE",
"350 63 OFFCURVE",
"350 194 CURVE SMOOTH",
"350 700 LINE",
"68 700 LINE",
"68 681 LINE",
"330 681 LINE",
"330 196 LINE SMOOTH",
"330 74 OFFCURVE",
"281 16 OFFCURVE",
"179 16 CURVE SMOOTH",
"113 16 OFFCURVE",
"56 49 OFFCURVE",
"18 108 CURVE",
"4 96 LINE",
"41 34 OFFCURVE",
"107 -3 OFFCURVE",
"178 -3 CURVE SMOOTH"
);
}
);
width = 477;
},
{
anchors = (
{
name = top;
position = "{288, 700}";
}
);
layerId = "5DA6E103-6A94-47F2-987D-4952DB8EA68E";
paths = (
{
closed = 1;
nodes = (
"422 -16 OFFCURVE",
"523 78 OFFCURVE",
"523 270 CURVE SMOOTH",
"523 700 LINE",
"52 700 LINE",
"52 522 LINE",
"290 522 LINE",
"290 256 LINE SMOOTH",
"290 199 OFFCURVE",
"263 169 OFFCURVE",
"214 169 CURVE SMOOTH",
"175 169 OFFCURVE",
"140 192 OFFCURVE",
"103 238 CURVE",
"-24 88 LINE",
"34 20 OFFCURVE",
"125 -16 OFFCURVE",
"234 -16 CURVE SMOOTH"
);
}
);
width = 574;
},
{
anchors = (
{
name = top;
position = "{244, 700}";
}
);
layerId = "708134FE-A11E-43C9-84F0-594DA15B6BD1";
paths = (
{
closed = 1;
nodes = (
"347 -9 OFFCURVE",
"426 70 OFFCURVE",
"426 231 CURVE SMOOTH",
"426 700 LINE",
"61.01 700 LINE",
"61 601 LINE",
"312 601 LINE",
"312 225 LINE SMOOTH",
"312 135 OFFCURVE",
"273 90 OFFCURVE",
"198 90 CURVE SMOOTH",
"140 90 OFFCURVE",
"93 118 OFFCURVE",
"55 171 CURVE",
"-11 92 LINE",
"35 27 OFFCURVE",
"113 -9 OFFCURVE",
"198 -9 CURVE SMOOTH"
);
}
);
width = 520;
}
);
leftKerningGroup = J;
rightKerningGroup = U;
rightMetricsKey = U;
unicode = 004A;
},
{
color = 3;
glyphname = Jcrossedtail;
layers = (
{
anchors = (
{
name = top;
position = "{209, 700}";
}
);
guideLines = (
{
angle = 90;
position = "{68, 691}";
}
);
layerId = UUID0;
paths = (
{
closed = 1;
nodes = (
"250 -3 OFFCURVE",
"350 55 OFFCURVE",
"350 189 CURVE SMOOTH",
"350 700 LINE",
"68 700 LINE",
"68 681 LINE",
"330 681 LINE",
"330 189 LINE SMOOTH",
"330 67 OFFCURVE",
"241 16 OFFCURVE",
"160 16 CURVE SMOOTH",
"94 16 OFFCURVE",
"32 49 OFFCURVE",
"32 114 CURVE SMOOTH",
"32 166 OFFCURVE",
"71 219 OFFCURVE",
"190 219 CURVE SMOOTH",
"435 219 LINE",
"435 238 LINE",
"190 238 LINE SMOOTH",
"59 238 OFFCURVE",
"12 176 OFFCURVE",
"12 114 CURVE SMOOTH",
"12 37 OFFCURVE",
"83 -3 OFFCURVE",
"159 -3 CURVE SMOOTH"
);
}
);
width = 477;
},
{
anchors = (
{
name = top;
position = "{241, 700}";
}
);
guideLines = (
{
angle = 90;
position = "{58, 651}";
}
);
layerId = "708134FE-A11E-43C9-84F0-594DA15B6BD1";
paths = (
{
closed = 1;
nodes = (
"310 -9 OFFCURVE",
"419 51 OFFCURVE",
"420 203 CURVE SMOOTH",
"423 700 LINE",
"58 700 LINE",
"58 601 LINE",
"309 601 LINE",
"306 203 LINE SMOOTH",
"305 111 OFFCURVE",
"250 82 OFFCURVE",
"201 82 CURVE SMOOTH",
"153 82 OFFCURVE",
"124 109 OFFCURVE",
"124 141 CURVE SMOOTH",
"124 164 OFFCURVE",
"138 203 OFFCURVE",
"227 203 CURVE SMOOTH",
"500 203 LINE",
"500 294 LINE",
"227 294 LINE SMOOTH",
"68 294 OFFCURVE",
"18 217 OFFCURVE",
"18 143 CURVE SMOOTH",
"18 48 OFFCURVE",
"99 -9 OFFCURVE",
"203 -9 CURVE SMOOTH"
);
}
);
width = 517;
},
{
anchors = (
{
name = top;
position = "{288, 700}";
}
);
layerId = "5DA6E103-6A94-47F2-987D-4952DB8EA68E";
paths = (
{
closed = 1;
nodes = (
"395 -16 OFFCURVE",
"523 61 OFFCURVE",
"523 230 CURVE SMOOTH",
"523 700 LINE",
"52 700 LINE",
"52 522 LINE",
"290 522 LINE",
"290 183 LINE SMOOTH",
"290 143 OFFCURVE",
"267 123 OFFCURVE",
"234 123 CURVE SMOOTH",
"207 123 OFFCURVE",
"191 136 OFFCURVE",
"191 154 CURVE SMOOTH",
"191 172 OFFCURVE",
"206 191 OFFCURVE",
"250 191 CURVE SMOOTH",
"594 191 LINE",
"594 320 LINE",
"230 320 LINE SMOOTH",
"80 320 OFFCURVE",
"15 236 OFFCURVE",
"15 153 CURVE SMOOTH",
"15 68 OFFCURVE",
"83 -16 OFFCURVE",
"242 -16 CURVE SMOOTH"
);
}
);
width = 594;
}
);
leftKerningGroup = J;
rightKerningGroup = Istroke;
unicode = A7B2;
},
{
color = 3;
glyphname = Jstroke;
layers = (
{
anchors = (
{
name = top;
position = "{209, 700}";
}
);
layerId = UUID0;
paths = (
{
closed = 1;
nodes = (
"292 -3 OFFCURVE",
"350 63 OFFCURVE",
"350 194 CURVE SMOOTH",
"350 700 LINE",
"68 700 LINE",
"68 681 LINE",
"330 681 LINE",
"330 196 LINE SMOOTH",
"330 74 OFFCURVE",
"281 16 OFFCURVE",
"179 16 CURVE SMOOTH",
"113 16 OFFCURVE",
"56 49 OFFCURVE",
"18 108 CURVE",
"4 96 LINE",
"41 34 OFFCURVE",
"107 -3 OFFCURVE",
"178 -3 CURVE SMOOTH"
);
},
{
closed = 1;
nodes = (
"470 345 LINE",
"470 364 LINE",
"160 364 LINE",
"160 345 LINE"
);
}
);
width = 477;
},
{
anchors = (
{
name = top;
position = "{244, 700}";
}
);
layerId = "708134FE-A11E-43C9-84F0-594DA15B6BD1";
paths = (
{
closed = 1;
nodes = (
"347 -9 OFFCURVE",
"426 70 OFFCURVE",
"426 231 CURVE SMOOTH",
"426 700 LINE",
"61.01 700 LINE",
"61 601 LINE",
"312 601 LINE",
"312 225 LINE SMOOTH",
"312 135 OFFCURVE",
"273 90 OFFCURVE",
"198 90 CURVE SMOOTH",
"140 90 OFFCURVE",
"93 118 OFFCURVE",
"55 171 CURVE",
"-11 92 LINE",
"35 27 OFFCURVE",
"113 -9 OFFCURVE",
"198 -9 CURVE SMOOTH"
);
},
{
closed = 1;
nodes = (
"526 314 LINE",
"526 404 LINE",
"162 404 LINE",
"162 314 LINE"
);
}
);
width = 526;
},
{
anchors = (
{
name = top;
position = "{288, 700}";
}
);
layerId = "5DA6E103-6A94-47F2-987D-4952DB8EA68E";
paths = (
{
closed = 1;
nodes = (
"422 -16 OFFCURVE",
"523 78 OFFCURVE",
"523 270 CURVE SMOOTH",
"523 700 LINE",
"52 700 LINE",
"52 522 LINE",
"290 522 LINE",
"290 256 LINE SMOOTH",
"290 199 OFFCURVE",
"263 169 OFFCURVE",
"214 169 CURVE SMOOTH",
"175 169 OFFCURVE",
"140 192 OFFCURVE",
"103 238 CURVE",
"-24 88 LINE",
"34 20 OFFCURVE",
"125 -16 OFFCURVE",
"234 -16 CURVE SMOOTH"
);
},
{
closed = 1;
nodes = (
"593 287 LINE",
"593 423 LINE",
"185 423 LINE",
"185 287 LINE"
);
}
);
width = 577;
}
);
leftKerningGroup = J;
leftMetricsKey = J;
rightKerningGroup = Istroke;
unicode = 0248;
},
{
glyphname = K;
layers = (
{
anchors = (
{
name = bottom;
position = "{370, 0}";
},
{
name = top;
position = "{370, 700}";
}
);
layerId = UUID0;
paths = (
{
closed = 1;
nodes = (
"328 366 LINE",
"340 377 LINE",
"654 700 LINE",
"627 700 LINE",
"149 209 LINE",
"149 182 LINE"
);
},
{
closed = 1;
nodes = (
"153 0 LINE",
"153 700 LINE",
"133 700 LINE",
"133 0 LINE"
);
},
{
closed = 1;
nodes = (
"677 0 LINE",
"332 390 LINE",
"317 377 LINE",
"650 0 LINE"
);
}
);
width = 693;
},
{
anchors = (
{
name = bottom;
position = "{384, 0}";
},
{
name = top;
position = "{384, 700}";
}
);
guideLines = (
{
angle = 48.4917;
position = "{625, 544}";
}
);
layerId = "5DA6E103-6A94-47F2-987D-4952DB8EA68E";
paths = (
{
closed = 1;
nodes = (
"349 240 LINE",
"480 374 LINE",
"776 700 LINE",
"519 700 LINE",
"255 409 LINE",
"268 150 LINE"
);
},
{
closed = 1;
nodes = (
"289 0 LINE",
"289 700 LINE",
"57 700 LINE",
"57 0 LINE"
);
},
{
closed = 1;
nodes = (
"790 0 LINE",
"464 434 LINE",
"311 272 LINE",
"517 0 LINE"
);
}
);
width = 765;
},
{
anchors = (
{
name = bottom;
position = "{376, 0}";
},
{
name = top;
position = "{376, 700}";
}
);
layerId = "708134FE-A11E-43C9-84F0-594DA15B6BD1";
paths = (
{
closed = 1;
nodes = (
"337 305 LINE",
"401 376 LINE",
"707 700 LINE",
"577 700 LINE",
"195 306 LINE",
"201 167 LINE"
);
},
{
closed = 1;
nodes = (
"214 0 LINE",
"214 700 LINE",
"100 700 LINE",
"100 0 LINE"
);
},
{
closed = 1;
nodes = (
"726 0 LINE",
"390 411 LINE",
"314 326 LINE",
"592 0 LINE"
);
}
);
width = 724;
}
);
leftKerningGroup = H;
leftMetricsKey = H;
rightKerningGroup = K;
unicode = 004B;
},
{
color = 8;
glyphname = Khook;
layers = (
{
anchors = (
{
name = bottom;
position = "{370, 0}";
},
{
name = top;
position = "{370, 700}";
}
);
layerId = UUID0;
paths = (
{
closed = 1;
nodes = (
"549 671 LINE SMOOTH",
"605 736 OFFCURVE",
"662 735 OFFCURVE",
"701 698 CURVE",
"714 713 LINE",
"668 753 OFFCURVE",
"601 759 OFFCURVE",
"537 686 CURVE SMOOTH",
"149 237 LINE",
"149 209 LINE"
);
},
{
closed = 1;
nodes = (
"153 0 LINE",
"153 700 LINE",
"133 700 LINE",
"133 0 LINE"
);
},
{
closed = 1;
nodes = (
"677 0 LINE",
"316 408 LINE",
"301 395 LINE",
"650 0 LINE"
);
}
);
width = 693;
},
{
anchors = (
{
name = bottom;
position = "{376, 0}";
},
{
name = top;
position = "{376, 700}";
}
);
layerId = "708134FE-A11E-43C9-84F0-594DA15B6BD1";
paths = (
{
closed = 1;
nodes = (
"562 619 LINE SMOOTH",
"596 662 OFFCURVE",
"640 662 OFFCURVE",
"671 637 CURVE",
"725 713 LINE",
"657 767 OFFCURVE",
"563 767 OFFCURVE",
"493 680 CURVE SMOOTH",
"195 308 LINE",
"201 167 LINE"
);
},
{
closed = 1;
nodes = (
"214 0 LINE",
"214 700 LINE",
"100 700 LINE",
"100 0 LINE"
);
},
{
closed = 1;
nodes = (
"726 0 LINE",
"390 411 LINE",
"314 326 LINE",
"592 0 LINE"
);
}
);
width = 704;
},
{
anchors = (
{
name = bottom;
position = "{384, 0}";
},
{
name = top;
position = "{384, 700}";
}
);
layerId = "5DA6E103-6A94-47F2-987D-4952DB8EA68E";
paths = (
{
closed = 1;
nodes = (
"622 536 LINE SMOOTH",
"648 563 OFFCURVE",
"675 571 OFFCURVE",
"703 543 CURVE",
"802 688 LINE",
"723 771 OFFCURVE",
"606 791 OFFCURVE",
"469 650 CURVE SMOOTH",
"239 413 LINE",
"254 155 LINE"
);
},
{
closed = 1;
nodes = (
"289 0 LINE",
"289 700 LINE",
"57 700 LINE",
"57 0 LINE"
);
},
{
closed = 1;
nodes = (
"790 0 LINE",
"464 434 LINE",
"311 272 LINE",
"517 0 LINE"
);
}
);
width = 770;
}
);
leftKerningGroup = H;
rightKerningGroup = K;
unicode = 0198;
},
{
color = 8;
glyphname = Kstroke;
layers = (
{
anchors = (
{
name = bottom;
position = "{344, 0}";
},
{
name = top;
position = "{344, 700}";
}
);
layerId = UUID0;
paths = (
{
closed = 1;
nodes = (
"654 700 LINE",
"627 700 LINE",
"149 209 LINE",
"149 182 LINE"
);
},
{
closed = 1;
nodes = (
"153 0 LINE",
"153 700 LINE",
"133 700 LINE",
"133 0 LINE"
);
},
{
closed = 1;
nodes = (
"677 0 LINE",
"332 390 LINE",
"317 377 LINE",
"650 0 LINE"
);
},
{
closed = 1;
nodes = (
"323 575 LINE",
"323 594 LINE",
"13 594 LINE",
"13 575 LINE"
);
}
);
width = 693;
},
{
anchors = (
{
name = bottom;
position = "{376, 0}";
},
{
name = top;
position = "{376, 700}";
}
);
layerId = "708134FE-A11E-43C9-84F0-594DA15B6BD1";
paths = (
{
closed = 1;
nodes = (
"707 700 LINE",
"577 700 LINE",
"195 306 LINE",
"201 167 LINE"
);
},
{
closed = 1;
nodes = (
"214 0 LINE",
"214 700 LINE",
"100 700 LINE",
"100 0 LINE"
);
},
{
closed = 1;
nodes = (
"726 0 LINE",
"390 411 LINE",
"314 326 LINE",
"592 0 LINE"
);
},
{
closed = 1;
nodes = (
"364 519 LINE",
"364 607 LINE",
"0 607 LINE",
"0 519 LINE"
);
}
);
width = 724;
},
{
anchors = (
{
name = bottom;
position = "{384, 0}";
},
{
name = top;
position = "{384, 700}";
}
);
layerId = "5DA6E103-6A94-47F2-987D-4952DB8EA68E";
paths = (
{
closed = 1;
nodes = (
"800 700 LINE",
"548 700 LINE",
"279 369 LINE",
"279 92 LINE"
);
},
{
closed = 1;
nodes = (
"313 0 LINE",
"313 700 LINE",
"81 700 LINE",
"81 0 LINE"
);
},
{
closed = 1;
nodes = (
"814 0 LINE",
"488 434 LINE",
"339 272 LINE",
"541 0 LINE"
);
},
{
closed = 1;
nodes = (
"403 542 LINE",
"403 652 LINE",
"11 652 LINE",
"11 542 LINE"
);
}
);
width = 765;
}
);
leftKerningGroup = Istroke;
rightKerningGroup = K;
unicode = A740;
},
{
glyphname = L;
layers = (
{
anchors = (
{
name = bottom;
position = "{352, 0}";
},
{
name = center;
position = "{143, 355}";
},
{
name = dot;
position = "{463, 387}";
},
{
name = top;
position = "{143, 700}";
},
{
name = topright;
position = "{446, 700}";
}
);
guideLines = (
{
angle = 90;
position = "{466, 20}";
}
);
layerId = UUID0;
paths = (
{
closed = 1;
nodes = (
"570 0 LINE",
"570 19 LINE",
"153 19 LINE",
"153 700 LINE",
"133 700 LINE",
"133 0 LINE"
);
}
);
width = 580;
},
{
anchors = (
{
name = bottom;
position = "{333, 0}";
},
{
name = center;
position = "{175, 375}";
},
{
name = dot;
position = "{494, 435}";
},
{
name = top;
position = "{175, 700}";
},
{
name = topright;
position = "{423, 700}";
}
);
guideLines = (
{
angle = 90;
position = "{581, 193}";
}
);
layerId = "5DA6E103-6A94-47F2-987D-4952DB8EA68E";
paths = (
{
closed = 1;
nodes = (
"609 0 LINE",
"609 183 LINE",
"293 183 LINE",
"293 700 LINE",
"57 700 LINE",
"57 0 LINE"
);
}
);
width = 617;
},
{
anchors = (
{
name = bottom;
position = "{344, 0}";
},
{
name = center;
position = "{157, 359}";
},
{
name = dot;
position = "{465, 408}";
},
{
name = top;
position = "{157, 700}";
},
{
name = topright;
position = "{436, 700}";
}
);
layerId = "708134FE-A11E-43C9-84F0-594DA15B6BD1";
paths = (
{
closed = 1;
nodes = (
"587 0 LINE",
"587 99 LINE",
"214 99 LINE",
"214 700 LINE",
"100 700 LINE",
"100 0 LINE"
);
}
);
width = 596;
}
);
leftKerningGroup = H;
leftMetricsKey = H;
rightKerningGroup = L;
unicode = 004C;
},
{
color = 3;
glyphname = Lbar;
layers = (
{
anchors = (
{
name = bottom;
position = "{359, 0}";
},
{
name = center;
position = "{150, 355}";
},
{
name = dot;
position = "{470, 366}";
},
{
name = top;
position = "{150, 700}";
},
{
name = topright;
position = "{453, 700}";
}
);
layerId = UUID0;
paths = (
{
closed = 1;
nodes = (
"577 0 LINE",
"577 19 LINE",
"160 19 LINE",
"160 700 LINE",
"140 700 LINE",
"140 0 LINE"
);
},
{
closed = 1;
nodes = (
"330 345 LINE",
"330 364 LINE",
"20 364 LINE",
"20 345 LINE"
);
}
);
width = 587;
},
{
anchors = (
{
name = bottom;
position = "{354, 0}";
},
{
name = center;
position = "{167, 359}";
},
{
name = dot;
position = "{475, 409}";
},
{
name = top;
position = "{167, 700}";
},
{
name = topright;
position = "{446, 700}";
}
);
layerId = "708134FE-A11E-43C9-84F0-594DA15B6BD1";
paths = (
{
closed = 1;
nodes = (
"597 0 LINE",
"597 99 LINE",
"224 99 LINE",
"224 700 LINE",
"110 700 LINE",
"110 0 LINE"
);
},
{
closed = 1;
nodes = (
"374 314 LINE",
"374 404 LINE",
"10 404 LINE",
"10 314 LINE"
);
}
);
width = 606;
},
{
anchors = (
{
name = bottom;
position = "{344, 0}";
},
{
name = center;
position = "{186, 375}";
},
{
name = dot;
position = "{505, 441}";
},
{
name = top;
position = "{186, 700}";
},
{
name = topright;
position = "{434, 700}";
}
);
layerId = "5DA6E103-6A94-47F2-987D-4952DB8EA68E";
paths = (
{
closed = 1;
nodes = (
"620 0 LINE",
"620 183 LINE",
"304 183 LINE",
"304 700 LINE",
"68 700 LINE",
"68 0 LINE"
);
},
{
closed = 1;
nodes = (
"409 287 LINE",
"409 423 LINE",
"-2 423 LINE",
"-2 287 LINE"
);
}
);
width = 628;
}
);
leftKerningGroup = Istroke;
rightKerningGroup = L;
unicode = 023D;
},
{
color = 3;
glyphname = Lbelt;
layers = (
{
anchors = (
{
name = bottom;
position = "{382, 0}";
},
{
name = center;
position = "{163, 360}";
},
{
name = dot;
position = "{453, 360}";
},
{
name = top;
position = "{163, 700}";
},
{
name = topright;
position = "{466, 700}";
}
);
layerId = UUID0;
paths = (
{
closed = 1;
nodes = (
"590 0 LINE",
"590 19 LINE",
"173 19 LINE",
"173 700 LINE",
"153 700 LINE",
"153 0 LINE"
);
},
{
closed = 1;
nodes = (
"415 346 LINE",
"414 365 LINE",
"109 365 LINE SMOOTH",
"41 365 OFFCURVE",
"15 399 OFFCURVE",
"15 431 CURVE SMOOTH",
"15 459 OFFCURVE",
"35 484 OFFCURVE",
"69 484 CURVE SMOOTH",
"109 484 OFFCURVE",
"153 450 OFFCURVE",
"153 365 CURVE",
"172 365 LINE",
"172 463 OFFCURVE",
"119 503 OFFCURVE",
"71 503 CURVE SMOOTH",
"24 503 OFFCURVE",
"-5 467 OFFCURVE",
"-5 430 CURVE SMOOTH",
"-5 389 OFFCURVE",
"29 346 OFFCURVE",
"111 346 CURVE SMOOTH"
);
}
);
width = 600;
},
{
anchors = (
{
name = bottom;
position = "{421, 0}";
},
{
name = center;
position = "{223, 379}";
},
{
name = dot;
position = "{521, 399}";
},
{
name = top;
position = "{223, 700}";
},
{
name = topright;
position = "{502, 700}";
}
);
layerId = "708134FE-A11E-43C9-84F0-594DA15B6BD1";
paths = (
{
closed = 1;
nodes = (
"653 0 LINE",
"653 99 LINE",
"280 99 LINE",
"280 700 LINE",
"166 700 LINE",
"166 0 LINE"
);
},
{
closed = 1;
nodes = (
"493 314 LINE",
"492 404 LINE",
"148 404 LINE SMOOTH",
"89 404 OFFCURVE",
"71 430 OFFCURVE",
"71 453 CURVE SMOOTH",
"71 471 OFFCURVE",
"84 487 OFFCURVE",
"106 487 CURVE SMOOTH",
"133 487 OFFCURVE",
"166 463 OFFCURVE",
"166 404 CURVE",
"223 404 LINE",
"223 521 OFFCURVE",
"161 567 OFFCURVE",
"100 567 CURVE SMOOTH",
"38 567 OFFCURVE",
"-21 523 OFFCURVE",
"-21 448 CURVE SMOOTH",
"-21 380 OFFCURVE",
"26 314 OFFCURVE",
"144 314 CURVE SMOOTH"
);
}
);
width = 662;
},
{
anchors = (
{
name = bottom;
position = "{478, 0}";
},
{
name = center;
position = "{308, 400}";
},
{
name = dot;
position = "{617, 441}";
},
{
name = top;
position = "{308, 700}";
},
{
name = topright;
position = "{556, 700}";
}
);
layerId = "5DA6E103-6A94-47F2-987D-4952DB8EA68E";
paths = (
{
closed = 1;
nodes = (
"742 0 LINE",
"742 183 LINE",
"426 183 LINE",
"426 700 LINE",
"190 700 LINE",
"190 0 LINE"
);
},
{
closed = 1;
nodes = (
"596 307 LINE",
"594 450 LINE",
"163 450 LINE SMOOTH",
"121 450 OFFCURVE",
"103 469 OFFCURVE",
"103 489 CURVE SMOOTH",
"103 506 OFFCURVE",
"117 520 OFFCURVE",
"135 520 CURVE SMOOTH",
"157 520 OFFCURVE",
"185 500 OFFCURVE",
"190 450 CURVE",
"264 450 LINE",
"264 557 OFFCURVE",
"226 629 OFFCURVE",
"129 629 CURVE SMOOTH",
"27 629 OFFCURVE",
"-24 549 OFFCURVE",
"-24 471 CURVE SMOOTH",
"-24 389 OFFCURVE",
"32 307 OFFCURVE",
"163 307 CURVE SMOOTH"
);
}
);
width = 750;
}
);
leftKerningGroup = Lbar;
rightKerningGroup = L;
unicode = A7AD;
},
{
color = 3;
glyphname = Ldoublebar;
layers = (
{
layerId = UUID0;
paths = (
{
closed = 1;
nodes = (
"587 0 LINE",
"587 19 LINE",
"170 19 LINE",
"170 700 LINE",
"150 700 LINE",
"150 0 LINE"
);
},
{
closed = 1;
nodes = (
"340 302 LINE",
"340 321 LINE",
"30 321 LINE",
"30 302 LINE"
);
},
{
closed = 1;
nodes = (
"340 441 LINE",
"340 460 LINE",
"30 460 LINE",
"30 441 LINE"
);
}
);
width = 597;
},
{
layerId = "708134FE-A11E-43C9-84F0-594DA15B6BD1";
paths = (
{
closed = 1;
nodes = (
"632 0 LINE",
"632 99 LINE",
"259 99 LINE",
"259 700 LINE",
"145 700 LINE",
"145 0 LINE"
);
},
{
closed = 1;
nodes = (
"409 268 LINE",
"409 356 LINE",
"45 356 LINE",
"45 268 LINE"
);
},
{
closed = 1;
nodes = (
"409 431 LINE",
"409 519 LINE",
"45 519 LINE",
"45 431 LINE"
);
}
);
width = 641;
},
{
layerId = "5DA6E103-6A94-47F2-987D-4952DB8EA68E";
paths = (
{
closed = 1;
nodes = (
"650 0 LINE",
"650 183 LINE",
"334 183 LINE",
"334 700 LINE",
"98 700 LINE",
"98 0 LINE"
);
},
{
closed = 1;
nodes = (
"439 246 LINE",
"439 382 LINE",
"28 382 LINE",
"28 246 LINE"
);
},
{
closed = 1;
nodes = (
"439 407 LINE",
"439 543 LINE",
"28 543 LINE",
"28 407 LINE"
);
}
);
width = 658;
}
);
leftKerningGroup = Lbar;
rightKerningGroup = L;
rightMetricsKey = L;
unicode = 2C60;
},
{
color = 8;
glyphname = Lmiddletilde;
layers = (
{
anchors = (
{
name = bottom;
position = "{352, 0}";
},
{
name = top;
position = "{143, 700}";
},
{
name = topright;
position = "{446, 700}";
}
);
layerId = UUID0;
paths = (
{
closed = 1;
nodes = (
"570 0 LINE",
"570 19 LINE",
"153 19 LINE",
"153 700 LINE",
"133 700 LINE",
"133 0 LINE"
);
},
{
closed = 1;
nodes = (
"263 336 OFFCURVE",
"291 370 OFFCURVE",
"293 420 CURVE",
"274 420 LINE",
"272 381 OFFCURVE",
"252 355 OFFCURVE",
"220 355 CURVE SMOOTH",
"175 355 OFFCURVE",
"151 424 OFFCURVE",
"94 424 CURVE SMOOTH",
"51 424 OFFCURVE",
"23 390 OFFCURVE",
"21 338 CURVE",
"40 338 LINE",
"42 379 OFFCURVE",
"62 405 OFFCURVE",
"94 405 CURVE SMOOTH",
"139 405 OFFCURVE",
"163 336 OFFCURVE",
"220 336 CURVE SMOOTH"
);
}
);
width = 580;
},
{
anchors = (
{
name = bottom;
position = "{356, 0}";
},
{
name = top;
position = "{169, 700}";
},
{
name = topright;
position = "{448, 700}";
}
);
layerId = "708134FE-A11E-43C9-84F0-594DA15B6BD1";
paths = (
{
closed = 1;
nodes = (
"599 0 LINE",
"599 99 LINE",
"226 99 LINE",
"226 700 LINE",
"112 700 LINE",
"112 0 LINE"
);
},
{
closed = 1;
nodes = (
"335 325 OFFCURVE",
"375 376 OFFCURVE",
"377 451 CURVE",
"316 451 LINE",
"315 419 OFFCURVE",
"296 392 OFFCURVE",
"269 392 CURVE SMOOTH",
"227 392 OFFCURVE",
"146 459 OFFCURVE",
"77 459 CURVE SMOOTH",
"17 459 OFFCURVE",
"-23 409 OFFCURVE",
"-25 331 CURVE",
"36 331 LINE",
"37 365 OFFCURVE",
"56 392 OFFCURVE",
"83 392 CURVE SMOOTH",
"126 392 OFFCURVE",
"207 325 OFFCURVE",
"275 325 CURVE SMOOTH"
);
}
);
width = 608;
},
{
anchors = (
{
name = bottom;
position = "{425, 0}";
},
{
name = top;
position = "{267, 700}";
},
{
name = topright;
position = "{515, 700}";
}
);
layerId = "5DA6E103-6A94-47F2-987D-4952DB8EA68E";
paths = (
{
closed = 1;
nodes = (
"701 0 LINE",
"701 183 LINE",
"385 183 LINE",
"385 700 LINE",
"149 700 LINE",
"149 0 LINE"
);
},
{
closed = 1;
nodes = (
"503 314 OFFCURVE",
"551 384 OFFCURVE",
"553 484 CURVE",
"446 484 LINE",
"444 455 OFFCURVE",
"428 438 OFFCURVE",
"403 438 CURVE SMOOTH",
"357 438 OFFCURVE",
"205 497 OFFCURVE",
"124 497 CURVE SMOOTH",
"35 497 OFFCURVE",
"-13 427 OFFCURVE",
"-15 324 CURVE",
"92 324 LINE",
"94 354 OFFCURVE",
"109 373 OFFCURVE",
"135 373 CURVE SMOOTH",
"181 373 OFFCURVE",
"333 314 OFFCURVE",
"414 314 CURVE SMOOTH"
);
}
);
width = 709;
}
);
leftKerningGroup = Lbar;
rightKerningGroup = L;
unicode = 2C62;
},
{
glyphname = M;
layers = (
{
anchors = (
{
name = bottom;
position = "{478, 0}";
},
{
name = top;
position = "{478, 700}";
}
);
layerId = UUID0;
paths = (
{
closed = 1;
nodes = (
"153 0 LINE",
"153 671 LINE",
"144 671 LINE",
"472 99 LINE",
"484 99 LINE",
"811 671 LINE",
"803 671 LINE",
"803 0 LINE",
"823 0 LINE",
"823 700 LINE",
"806 700 LINE",
"474 118 LINE",
"483 118 LINE",
"150 700 LINE",
"133 700 LINE",
"133 0 LINE"
);
}
);
width = 956;
},
{
anchors = (
{
name = bottom;
position = "{476, 0}";
},
{
name = top;
position = "{476, 700}";
}
);
layerId = "5DA6E103-6A94-47F2-987D-4952DB8EA68E";
paths = (
{
closed = 1;
nodes = (
"272 0 LINE",
"272 376 LINE",
"230 376 LINE",
"424 63 LINE",
"528 63 LINE",
"714 376 LINE",
"680 376 LINE",
"682 0 LINE",
"897 0 LINE",
"895 700 LINE",
"701 700 LINE",
"429 243 LINE",
"531 243 LINE",
"251 700 LINE",
"57 700 LINE",
"57 0 LINE"
);
}
);
width = 954;
},
{
anchors = (
{
name = bottom;
position = "{477, 0}";
},
{
name = top;
position = "{477, 700}";
}
);
layerId = "708134FE-A11E-43C9-84F0-594DA15B6BD1";
paths = (
{
closed = 1;
nodes = (
"210 0 LINE",
"210 526 LINE",
"182 526 LINE",
"451 82 LINE",
"503 82 LINE",
"769 526 LINE",
"744 526 LINE",
"745 0 LINE",
"855 0 LINE",
"854 700 LINE",
"760 700 LINE",
"454 181 LINE",
"504 181 LINE",
"194 700 LINE",
"100 700 LINE",
"100 0 LINE"
);
}
);
width = 955;
}
);
leftKerningGroup = H;
leftMetricsKey = H;
rightKerningGroup = H;
rightMetricsKey = H;
unicode = 004D;
},
{
color = 3;
glyphname = Mhook;
layers = (
{
anchors = (
{
name = bottom;
position = "{492, 0}";
},
{
name = top;
position = "{492, 700}";
}
);
layerId = UUID0;
paths = (
{
closed = 1;
nodes = (
"692 -227 OFFCURVE",
"837 -208 OFFCURVE",
"837 -58 CURVE SMOOTH",
"837 700 LINE",
"820 700 LINE",
"488 118 LINE",
"497 118 LINE",
"164 700 LINE",
"147 700 LINE",
"147 0 LINE",
"167 0 LINE",
"167 671 LINE",
"158 671 LINE",
"486 99 LINE",
"498 99 LINE",
"825 671 LINE",
"817 671 LINE",
"817 -58 LINE SMOOTH",
"817 -187 OFFCURVE",
"701 -203 OFFCURVE",
"625 -144 CURVE",
"613 -159 LINE"
);
}
);
width = 970;
},
{
anchors = (
{
name = bottom;
position = "{489, 0}";
},
{
name = top;
position = "{489, 700}";
}
);
layerId = "708134FE-A11E-43C9-84F0-594DA15B6BD1";
paths = (
{
closed = 1;
nodes = (
"696 -241 OFFCURVE",
"866 -202 OFFCURVE",
"866 -31 CURVE SMOOTH",
"865 700 LINE",
"771 700 LINE",
"465 181 LINE",
"515 181 LINE",
"205 700 LINE",
"111 700 LINE",
"111 0 LINE",
"221 0 LINE",
"221 526 LINE",
"193 526 LINE",
"462 82 LINE",
"514 82 LINE",
"780 526 LINE",
"755 526 LINE",
"756 -27 LINE SMOOTH",
"756 -107 OFFCURVE",
"679 -123 OFFCURVE",
"615 -83 CURVE",
"577 -168 LINE"
);
}
);
width = 966;
},
{
anchors = (
{
name = bottom;
position = "{485, 0}";
},
{
name = top;
position = "{485, 700}";
}
);
layerId = "5DA6E103-6A94-47F2-987D-4952DB8EA68E";
paths = (
{
closed = 1;
nodes = (
"690 -249 OFFCURVE",
"907 -194 OFFCURVE",
"906 22 CURVE SMOOTH",
"904 700 LINE",
"710 700 LINE",
"438 243 LINE",
"540 243 LINE",
"260 700 LINE",
"66 700 LINE",
"66 0 LINE",
"281 0 LINE",
"281 376 LINE",
"239 376 LINE",
"433 63 LINE",
"537 63 LINE",
"723 376 LINE",
"691 376 LINE",
"691 22 LINE SMOOTH",
"691 -30 OFFCURVE",
"646 -45 OFFCURVE",
"593 -20 CURVE",
"539 -177 LINE"
);
}
);
width = 963;
}
);
leftKerningGroup = H;
rightKerningGroup = H;
rightMetricsKey = M;
unicode = 2C6E;
},
{
color = 8;
glyphname = Mturned;
layers = (
{
anchors = (
{
name = bottom;
position = "{610, 0}";
},
{
name = top;
position = "{610, 700}";
}
);
layerId = UUID0;
paths = (
{
closed = 1;
nodes = (
"1071 700 LINE",
"1071 279 LINE SMOOTH",
"1071 97 OFFCURVE",
"988 16 OFFCURVE",
"846 16 CURVE SMOOTH",
"702 16 OFFCURVE",
"620 96 OFFCURVE",
"620 259 CURVE SMOOTH",
"620 700 LINE",
"600 700 LINE",
"600 279 LINE SMOOTH",
"600 97 OFFCURVE",
"516 16 OFFCURVE",
"374 16 CURVE SMOOTH",
"230 16 OFFCURVE",
"147 96 OFFCURVE",
"147 259 CURVE SMOOTH",
"147 700 LINE",
"127 700 LINE",
"127 258 LINE SMOOTH",
"127 85 OFFCURVE",
"222 -3 OFFCURVE",
"373 -3 CURVE SMOOTH",
"493 -3 OFFCURVE",
"579 53 OFFCURVE",
"610 180 CURVE",
"606 180 LINE",
"633 58 OFFCURVE",
"720 -3 OFFCURVE",
"845 -3 CURVE SMOOTH",
"958 -3 OFFCURVE",
"1038 46 OFFCURVE",
"1073 155 CURVE",
"1071 157 LINE",
"1071 0 LINE",
"1091 0 LINE",
"1091 700 LINE"
);
}
);
width = 1224;
},
{
anchors = (
{
name = bottom;
position = "{610, 0}";
},
{
name = top;
position = "{610, 700}";
}
);
layerId = "708134FE-A11E-43C9-84F0-594DA15B6BD1";
paths = (
{
closed = 1;
nodes = (
"1013 700 LINE",
"1013 282 LINE SMOOTH",
"1013 149 OFFCURVE",
"933 93 OFFCURVE",
"828 93 CURVE SMOOTH",
"734 93 OFFCURVE",
"668 148 OFFCURVE",
"668 270 CURVE SMOOTH",
"668 700 LINE",
"554 700 LINE",
"554 282 LINE SMOOTH",
"554 149 OFFCURVE",
"478 93 OFFCURVE",
"373 93 CURVE SMOOTH",
"280 93 OFFCURVE",
"208 148 OFFCURVE",
"208 270 CURVE SMOOTH",
"208 700 LINE",
"94 700 LINE",
"94 266 LINE SMOOTH",
"94 85 OFFCURVE",
"193 -9 OFFCURVE",
"354 -9 CURVE SMOOTH",
"469 -9 OFFCURVE",
"563 43 OFFCURVE",
"602 131 CURVE",
"571 133 LINE",
"598 47 OFFCURVE",
"681 -9 OFFCURVE",
"800 -9 CURVE SMOOTH",
"911 -9 OFFCURVE",
"995 41 OFFCURVE",
"1031 121 CURVE",
"1017 137 LINE",
"1017 0 LINE",
"1127 0 LINE",
"1127 700 LINE"
);
}
);
width = 1227;
},
{
anchors = (
{
name = bottom;
position = "{614, 0}";
},
{
name = top;
position = "{611, 700}";
}
);
layerId = "5DA6E103-6A94-47F2-987D-4952DB8EA68E";
paths = (
{
closed = 1;
nodes = (
"919 700 LINE",
"919 290 LINE SMOOTH",
"919 213 OFFCURVE",
"880 175 OFFCURVE",
"822 175 CURVE SMOOTH",
"765 175 OFFCURVE",
"729 211 OFFCURVE",
"729 282 CURVE SMOOTH",
"729 700 LINE",
"493 700 LINE",
"493 290 LINE SMOOTH",
"493 213 OFFCURVE",
"450 175 OFFCURVE",
"388 175 CURVE SMOOTH",
"327 175 OFFCURVE",
"287 211 OFFCURVE",
"287 282 CURVE SMOOTH",
"287 700 LINE",
"51 700 LINE",
"51 275 LINE SMOOTH",
"51 85 OFFCURVE",
"151 -16 OFFCURVE",
"316 -16 CURVE SMOOTH",
"434 -16 OFFCURVE",
"529 36 OFFCURVE",
"573 141 CURVE",
"501 149 LINE",
"536 40 OFFCURVE",
"616 -16 OFFCURVE",
"734 -16 CURVE SMOOTH",
"849 -16 OFFCURVE",
"927 38 OFFCURVE",
"961 135 CURVE",
"927 176 LINE",
"927 0 LINE",
"1155 0 LINE",
"1155 700 LINE"
);
}
);
width = 1212;
}
);
leftKerningGroup = U;
leftMetricsKey = U;
rightKerningGroup = H;
rightMetricsKey = H;
unicode = 019C;
},
{
glyphname = N;
layers = (
{
anchors = (
{
name = bottom;
position = "{408, 0}";
},
{
name = top;
position = "{408, 700}";
}
);
layerId = UUID0;
paths = (
{
closed = 1;
nodes = (
"153 0 LINE",
"153 677 LINE",
"142 677 LINE",
"666 0 LINE",
"683 0 LINE",
"683 700 LINE",
"663 700 LINE",
"663 23 LINE",
"674 23 LINE",
"150 700 LINE",
"133 700 LINE",
"133 0 LINE"
);
}
);
width = 816;
},
{
anchors = (
{
name = bottom;
position = "{402, 0}";
},
{
name = top;
position = "{402, 700}";
}
);
layerId = "5DA6E103-6A94-47F2-987D-4952DB8EA68E";
paths = (
{
closed = 1;
nodes = (
"287 0 LINE",
"287 426 LINE",
"197 426 LINE",
"553 0 LINE",
"747 0 LINE",
"747 700 LINE",
"517 700 LINE",
"517 274 LINE",
"607 274 LINE",
"251 700 LINE",
"57 700 LINE",
"57 0 LINE"
);
}
);
width = 804;
},
{
anchors = (
{
name = bottom;
position = "{405, 0}";
},
{
name = top;
position = "{405, 700}";
}
);
layerId = "708134FE-A11E-43C9-84F0-594DA15B6BD1";
paths = (
{
closed = 1;
nodes = (
"214 0 LINE",
"214 556 LINE",
"166 556 LINE",
"617 0 LINE",
"711 0 LINE",
"711 700 LINE",
"597 700 LINE",
"597 144 LINE",
"645 144 LINE",
"194 700 LINE",
"100 700 LINE",
"100 0 LINE"
);
}
);
width = 811;
}
);
leftKerningGroup = H;
leftMetricsKey = H;
rightKerningGroup = H;
rightMetricsKey = H;
unicode = 004E;
},
{
glyphname = Nhookleft;
layers = (
{
anchors = (
{
name = bottom;
position = "{414, 0}";
},
{
name = top;
position = "{416, 700}";
}
);
layerId = UUID0;
paths = (
{
closed = 1;
nodes = (
"50 -222 OFFCURVE",
"166 -192 OFFCURVE",
"166 -58 CURVE SMOOTH",
"166 401 LINE SMOOTH",
"166 593 OFFCURVE",
"257 684 OFFCURVE",
"416 684 CURVE SMOOTH",
"575 684 OFFCURVE",
"666 594 OFFCURVE",
"666 421 CURVE SMOOTH",
"666 0 LINE",
"686 0 LINE",
"686 422 LINE SMOOTH",
"686 605 OFFCURVE",
"583 703 OFFCURVE",
"417 703 CURVE SMOOTH",
"290 703 OFFCURVE",
"199 645 OFFCURVE",
"164 527 CURVE",
"166 524 LINE",
"166 700 LINE",
"146 700 LINE",
"146 -58 LINE SMOOTH",
"146 -173 OFFCURVE",
"54 -199 OFFCURVE",
"-21 -160 CURVE",
"-30 -178 LINE"
);
}
);
width = 813;
},
{
anchors = (
{
name = bottom;
position = "{416, 0}";
},
{
name = top;
position = "{417, 700}";
}
);
layerId = "708134FE-A11E-43C9-84F0-594DA15B6BD1";
paths = (
{
closed = 1;
nodes = (
"92 -232 OFFCURVE",
"229 -176 OFFCURVE",
"229 -28 CURVE SMOOTH",
"229 396 LINE SMOOTH",
"229 540 OFFCURVE",
"310 607 OFFCURVE",
"427 607 CURVE SMOOTH",
"535 607 OFFCURVE",
"605 542 OFFCURVE",
"605 410 CURVE SMOOTH",
"605 0 LINE",
"719 0 LINE",
"719 414 LINE SMOOTH",
"719 605 OFFCURVE",
"617 709 OFFCURVE",
"451 709 CURVE SMOOTH",
"328 709 OFFCURVE",
"237 661 OFFCURVE",
"192 548 CURVE",
"225 530 LINE",
"225 700 LINE",
"115 700 LINE",
"115 -28 LINE SMOOTH",
"115 -92 OFFCURVE",
"58 -116 OFFCURVE",
"7 -97 CURVE",
"-24 -186 LINE"
);
}
);
width = 813;
},
{
anchors = (
{
name = bottom;
position = "{408, 0}";
},
{
name = top;
position = "{408, 700}";
}
);
layerId = "5DA6E103-6A94-47F2-987D-4952DB8EA68E";
paths = (
{
closed = 1;
nodes = (
"91 -247 OFFCURVE",
"301 -190 OFFCURVE",
"301 22 CURVE SMOOTH",
"301 390 LINE SMOOTH",
"301 483 OFFCURVE",
"350 525 OFFCURVE",
"411 525 CURVE SMOOTH",
"474 525 OFFCURVE",
"515 486 OFFCURVE",
"515 398 CURVE SMOOTH",
"515 0 LINE",
"751 0 LINE",
"751 405 LINE SMOOTH",
"751 605 OFFCURVE",
"655 716 OFFCURVE",
"490 716 CURVE SMOOTH",
"378 716 OFFCURVE",
"299 659 OFFCURVE",
"258 563 CURVE",
"294 519 LINE",
"294 700 LINE",
"65 700 LINE",
"65 22 LINE SMOOTH",
"65 -26 OFFCURVE",
"27 -42 OFFCURVE",
"-21 -25 CURVE",
"-74 -180 LINE"
);
}
);
width = 802;
}
);
leftKerningGroup = j;
rightKerningGroup = N.ss01;
rightMetricsKey = U;
unicode = 019D;
},
{
glyphname = Nlongrightleg;
layers = (
{
anchors = (
{
name = bottom;
position = "{415, 0}";
},
{
name = top;
position = "{417, 700}";
}
);
layerId = UUID0;
paths = (
{
closed = 1;
nodes = (
"687 -194 LINE",
"687 422 LINE SMOOTH",
"687 605 OFFCURVE",
"584 703 OFFCURVE",
"418 703 CURVE SMOOTH",
"291 703 OFFCURVE",
"200 645 OFFCURVE",
"165 527 CURVE",
"167 524 LINE",
"167 700 LINE",
"147 700 LINE",
"147 0 LINE",
"167 0 LINE",
"167 401 LINE SMOOTH",
"167 593 OFFCURVE",
"258 684 OFFCURVE",
"417 684 CURVE SMOOTH",
"576 684 OFFCURVE",
"667 594 OFFCURVE",
"667 421 CURVE SMOOTH",
"667 -194 LINE"
);
}
);
width = 813;
},
{
anchors = (
{
name = bottom;
position = "{412, 0}";
},
{
name = top;
position = "{413, 700}";
}
);
layerId = "708134FE-A11E-43C9-84F0-594DA15B6BD1";
paths = (
{
closed = 1;
nodes = (
"715 -194 LINE",
"715 414 LINE SMOOTH",
"715 605 OFFCURVE",
"613 709 OFFCURVE",
"447 709 CURVE SMOOTH",
"324 709 OFFCURVE",
"233 661 OFFCURVE",
"188 548 CURVE",
"221 530 LINE",
"221 700 LINE",
"111 700 LINE",
"111 0 LINE",
"225 0 LINE",
"225 396 LINE SMOOTH",
"225 540 OFFCURVE",
"306 607 OFFCURVE",
"423 607 CURVE SMOOTH",
"531 607 OFFCURVE",
"601 542 OFFCURVE",
"601 410 CURVE SMOOTH",
"601 -194 LINE"
);
}
);
width = 810;
},
{
anchors = (
{
name = bottom;
position = "{409, 0}";
},
{
name = top;
position = "{409, 700}";
}
);
layerId = "5DA6E103-6A94-47F2-987D-4952DB8EA68E";
paths = (
{
closed = 1;
nodes = (
"752 -194 LINE",
"752 405 LINE SMOOTH",
"752 605 OFFCURVE",
"656 716 OFFCURVE",
"491 716 CURVE SMOOTH",
"379 716 OFFCURVE",
"300 659 OFFCURVE",
"259 563 CURVE",
"295 519 LINE",
"295 700 LINE",
"66 700 LINE",
"66 0 LINE",
"302 0 LINE",
"302 390 LINE SMOOTH",
"302 483 OFFCURVE",
"351 525 OFFCURVE",
"412 525 CURVE SMOOTH",
"475 525 OFFCURVE",
"516 486 OFFCURVE",
"516 398 CURVE SMOOTH",
"516 -194 LINE"
);
}
);
width = 806;
}
);
leftKerningGroup = H;
rightKerningGroup = H;
unicode = 0220;
},
{
glyphname = Eng;
layers = (
{
anchors = (
{
name = bottom;
position = "{408, -195}";
},
{
name = top;
position = "{408, 700}";
}
);
layerId = UUID0;
paths = (
{
closed = 1;
nodes = (
"153 0 LINE",
"153 677 LINE",
"142 677 LINE",
"666 0 LINE",
"674 23 LINE",
"150 700 LINE",
"133 700 LINE",
"133 0 LINE"
);
},
{
closed = 1;
nodes = (
"625 -197 OFFCURVE",
"683 -131 OFFCURVE",
"683 0 CURVE SMOOTH",
"683 700 LINE",
"663 700 LINE",
"663 2 LINE SMOOTH",
"663 -120 OFFCURVE",
"614 -178 OFFCURVE",
"512 -178 CURVE SMOOTH",
"446 -178 OFFCURVE",
"389 -145 OFFCURVE",
"351 -86 CURVE",
"337 -98 LINE",
"374 -160 OFFCURVE",
"440 -197 OFFCURVE",
"511 -197 CURVE SMOOTH"
);
}
);
width = 816;
},
{
anchors = (
{
name = bottom;
position = "{402, -195}";
},
{
name = top;
position = "{402, 700}";
}
);
layerId = "5DA6E103-6A94-47F2-987D-4952DB8EA68E";
paths = (
{
closed = 1;
nodes = (
"287 0 LINE",
"287 426 LINE",
"197 426 LINE",
"553 0 LINE",
"607 274 LINE",
"251 700 LINE",
"57 700 LINE",
"57 0 LINE"
);
},
{
closed = 1;
nodes = (
"606 -205 OFFCURVE",
"747 -135 OFFCURVE",
"747 84 CURVE SMOOTH",
"747 700 LINE",
"517 700 LINE",
"517 67 LINE SMOOTH",
"517 8 OFFCURVE",
"485 -21 OFFCURVE",
"444 -21 CURVE SMOOTH",
"422 -21 OFFCURVE",
"396 -12 OFFCURVE",
"372 5 CURVE",
"267 -150 LINE",
"314 -183 OFFCURVE",
"391 -205 OFFCURVE",
"468 -205 CURVE SMOOTH"
);
}
);
width = 804;
},
{
anchors = (
{
name = bottom;
position = "{406, -195}";
},
{
name = top;
position = "{406, 700}";
}
);
layerId = "708134FE-A11E-43C9-84F0-594DA15B6BD1";
paths = (
{
closed = 1;
nodes = (
"214 0 LINE",
"214 556 LINE",
"166 556 LINE",
"617 0 LINE",
"645 144 LINE",
"194 700 LINE",
"100 700 LINE",
"100 0 LINE"
);
},
{
closed = 1;
nodes = (
"634 -200 OFFCURVE",
"711 -121 OFFCURVE",
"711 50 CURVE SMOOTH",
"711 700 LINE",
"597 700 LINE",
"597 34 LINE SMOOTH",
"597 -57 OFFCURVE",
"561 -102 OFFCURVE",
"486 -102 CURVE SMOOTH",
"434 -102 OFFCURVE",
"392 -80 OFFCURVE",
"360 -42 CURVE",
"305 -125 LINE",
"350 -174 OFFCURVE",
"415 -200 OFFCURVE",
"486 -200 CURVE SMOOTH"
);
}
);
width = 811;
}
);
leftKerningGroup = H;
leftMetricsKey = H;
rightKerningGroup = H;
rightMetricsKey = H;
unicode = 014A;
},
{
glyphname = O;
layers = (
{
anchors = (
{
name = bottom;
position = "{418, 0}";
},
{
name = center;
position = "{418, 350}";
},
{
name = ogonek;
position = "{469, 0}";
},
{
name = top;
position = "{418, 700}";
},
{
name = topleft;
position = "{59, 700}";
},
{
name = topright;
position = "{667, 700}";
}
);
guideLines = (
{
angle = 90;
position = "{777, 723}";
}
);
layerId = UUID0;
paths = (
{
closed = 1;
nodes = (
"623 -3 OFFCURVE",
"777 148 OFFCURVE",
"777 350 CURVE SMOOTH",
"777 552 OFFCURVE",
"623 703 OFFCURVE",
"418 703 CURVE SMOOTH",
"213 703 OFFCURVE",
"59 552 OFFCURVE",
"59 350 CURVE SMOOTH",
"59 148 OFFCURVE",
"213 -3 OFFCURVE",
"418 -3 CURVE SMOOTH"
);
},
{
closed = 1;
nodes = (
"225 16 OFFCURVE",
"79 159 OFFCURVE",
"79 350 CURVE SMOOTH",
"79 541 OFFCURVE",
"225 684 OFFCURVE",
"418 684 CURVE SMOOTH",
"611 684 OFFCURVE",
"757 541 OFFCURVE",
"757 350 CURVE SMOOTH",
"757 159 OFFCURVE",
"611 16 OFFCURVE",
"418 16 CURVE SMOOTH"
);
}
);
width = 836;
},
{
anchors = (
{
name = bottom;
position = "{424, 0}";
},
{
name = center;
position = "{424, 350}";
},
{
name = ogonek;
position = "{547, 0}";
},
{
name = top;
position = "{424, 700}";
},
{
name = topleft;
position = "{34, 700}";
},
{
name = topright;
position = "{590, 700}";
}
);
guideLines = (
{
angle = 90;
position = "{819, 664}";
}
);
layerId = "5DA6E103-6A94-47F2-987D-4952DB8EA68E";
paths = (
{
closed = 1;
nodes = (
"652 -16 OFFCURVE",
"819 138 OFFCURVE",
"819 350 CURVE SMOOTH",
"819 562 OFFCURVE",
"652 716 OFFCURVE",
"424 716 CURVE SMOOTH",
"196 716 OFFCURVE",
"29 562 OFFCURVE",
"29 350 CURVE SMOOTH",
"29 138 OFFCURVE",
"196 -16 OFFCURVE",
"424 -16 CURVE SMOOTH"
);
},
{
closed = 1;
nodes = (
"337 175 OFFCURVE",
"267 241 OFFCURVE",
"267 350 CURVE SMOOTH",
"267 459 OFFCURVE",
"337 525 OFFCURVE",
"424 525 CURVE SMOOTH",
"511 525 OFFCURVE",
"581 459 OFFCURVE",
"581 350 CURVE SMOOTH",
"581 241 OFFCURVE",
"511 175 OFFCURVE",
"424 175 CURVE SMOOTH"
);
}
);
width = 848;
},
{
anchors = (
{
name = bottom;
position = "{421, 0}";
},
{
name = center;
position = "{421, 350}";
},
{
name = ogonek;
position = "{503, 0}";
},
{
name = top;
position = "{421, 700}";
},
{
name = topleft;
position = "{48, 700}";
},
{
name = topright;
position = "{633, 700}";
}
);
layerId = "708134FE-A11E-43C9-84F0-594DA15B6BD1";
paths = (
{
closed = 1;
nodes = (
"636 -9 OFFCURVE",
"795 143 OFFCURVE",
"795 350 CURVE SMOOTH",
"795 557 OFFCURVE",
"636 709 OFFCURVE",
"421 709 CURVE SMOOTH",
"205 709 OFFCURVE",
"46 556 OFFCURVE",
"46 350 CURVE SMOOTH",
"46 144 OFFCURVE",
"205 -9 OFFCURVE",
"421 -9 CURVE SMOOTH"
);
},
{
closed = 1;
nodes = (
"271 93 OFFCURVE",
"161 202 OFFCURVE",
"161 350 CURVE SMOOTH",
"161 498 OFFCURVE",
"271 607 OFFCURVE",
"421 607 CURVE SMOOTH",
"570 607 OFFCURVE",
"680 498 OFFCURVE",
"680 350 CURVE SMOOTH",
"680 202 OFFCURVE",
"570 93 OFFCURVE",
"421 93 CURVE SMOOTH"
);
}
);
width = 841;
}
);
leftKerningGroup = O;
rightKerningGroup = O;
rightMetricsKey = "=|";
unicode = 004F;
},
{
color = 8;
glyphname = OU;
layers = (
{
layerId = UUID0;
paths = (
{
closed = 1;
nodes = (
"548 -3 OFFCURVE",
"664 80 OFFCURVE",
"664 212 CURVE SMOOTH",
"664 343 OFFCURVE",
"548 426 OFFCURVE",
"364 426 CURVE SMOOTH",
"180 426 OFFCURVE",
"65 343 OFFCURVE",
"65 212 CURVE SMOOTH",
"65 80 OFFCURVE",
"180 -3 OFFCURVE",
"364 -3 CURVE SMOOTH"
);
},
{
closed = 1;
nodes = (
"193 16 OFFCURVE",
"85 92 OFFCURVE",
"85 214 CURVE SMOOTH",
"85 334 OFFCURVE",
"193 409 OFFCURVE",
"364 409 CURVE SMOOTH",
"537 409 OFFCURVE",
"645 334 OFFCURVE",
"645 214 CURVE SMOOTH",
"645 92 OFFCURVE",
"537 16 OFFCURVE",
"364 16 CURVE SMOOTH"
);
},
{
closed = 1;
nodes = (
"531 410 OFFCURVE",
"636 485 OFFCURVE",
"636 601 CURVE SMOOTH",
"636 700 LINE",
"616 700 LINE",
"616 601 LINE SMOOTH",
"616 495 OFFCURVE",
"519 428 OFFCURVE",
"364 428 CURVE SMOOTH",
"210 428 OFFCURVE",
"114 495 OFFCURVE",
"114 601 CURVE SMOOTH",
"114 700 LINE",
"94 700 LINE",
"94 601 LINE SMOOTH",
"94 485 OFFCURVE",
"198 410 OFFCURVE",
"364 410 CURVE SMOOTH"
);
}
);
userData = {
RMXScaler = {
height = 94;
width = 115;
};
};
width = 729;
},
{
layerId = "708134FE-A11E-43C9-84F0-594DA15B6BD1";
paths = (
{
closed = 1;
nodes = (
"565 -9 OFFCURVE",
"688 83 OFFCURVE",
"688 230 CURVE SMOOTH",
"688 368 OFFCURVE",
"565 454 OFFCURVE",
"368 454 CURVE SMOOTH",
"173 454 OFFCURVE",
"50 368 OFFCURVE",
"50 230 CURVE SMOOTH",
"50 83 OFFCURVE",
"173 -9 OFFCURVE",
"368 -9 CURVE SMOOTH"
);
},
{
closed = 1;
nodes = (
"243 89 OFFCURVE",
"165 144 OFFCURVE",
"165 232 CURVE SMOOTH",
"165 320 OFFCURVE",
"243 376 OFFCURVE",
"368 376 CURVE SMOOTH",
"494 376 OFFCURVE",
"573 320 OFFCURVE",
"573 232 CURVE SMOOTH",
"573 144 OFFCURVE",
"494 89 OFFCURVE",
"368 89 CURVE SMOOTH"
);
},
{
closed = 1;
nodes = (
"551 389 OFFCURVE",
"659 469 OFFCURVE",
"659 602 CURVE SMOOTH",
"659 700 LINE",
"545 700 LINE",
"545 602 LINE SMOOTH",
"545 517 OFFCURVE",
"480 466 OFFCURVE",
"368 466 CURVE SMOOTH",
"257 466 OFFCURVE",
"193 517 OFFCURVE",
"193 602 CURVE SMOOTH",
"193 700 LINE",
"79 700 LINE",
"79 602 LINE SMOOTH",
"79 469 OFFCURVE",
"184 389 OFFCURVE",
"368 389 CURVE SMOOTH"
);
}
);
userData = {
RMXScaler = {
height = 95;
weight = 6;
width = 114;
};
};
width = 738;
},
{
layerId = "5DA6E103-6A94-47F2-987D-4952DB8EA68E";
paths = (
{
closed = 1;
nodes = (
"610 -11 OFFCURVE",
"754 81 OFFCURVE",
"754 230 CURVE SMOOTH",
"754 378 OFFCURVE",
"610 476 OFFCURVE",
"387 476 CURVE SMOOTH",
"164 476 OFFCURVE",
"20 378 OFFCURVE",
"20 230 CURVE SMOOTH",
"20 81 OFFCURVE",
"164 -11 OFFCURVE",
"387 -11 CURVE SMOOTH"
);
},
{
closed = 1;
nodes = (
"299 154 OFFCURVE",
"247 188 OFFCURVE",
"247 246 CURVE SMOOTH",
"247 302 OFFCURVE",
"299 334 OFFCURVE",
"387 334 CURVE SMOOTH",
"475 334 OFFCURVE",
"527 302 OFFCURVE",
"527 246 CURVE SMOOTH",
"527 188 OFFCURVE",
"475 154 OFFCURVE",
"387 154 CURVE SMOOTH"
);
},
{
closed = 1;
nodes = (
"594 340 OFFCURVE",
"724 420 OFFCURVE",
"724 567 CURVE SMOOTH",
"724 700 LINE",
"492 700 LINE",
"492 568 LINE SMOOTH",
"492 513 OFFCURVE",
"452 484 OFFCURVE",
"387 484 CURVE SMOOTH",
"321 484 OFFCURVE",
"282 513 OFFCURVE",
"282 568 CURVE SMOOTH",
"282 700 LINE",
"50 700 LINE",
"50 567 LINE SMOOTH",
"50 420 OFFCURVE",
"180 340 OFFCURVE",
"387 340 CURVE SMOOTH"
);
}
);
userData = {
RMXScaler = {
height = 95;
weight = 9;
width = 120;
};
};
width = 774;
}
);
leftKerningGroup = U;
rightKerningGroup = U;
rightMetricsKey = "=|";
unicode = 0222;
userData = {
RMXScaler = {
source = ou;
};
};
},
{
glyphname = Ohorn;
layers = (
{
anchors = (
{
name = bottom;
position = "{418, 0}";
},
{
name = top;
position = "{418, 700}";
}
);
layerId = UUID0;
paths = (
{
closed = 1;
nodes = (
"623 -3 OFFCURVE",
"777 148 OFFCURVE",
"777 350 CURVE SMOOTH",
"777 501 OFFCURVE",
"688 631 OFFCURVE",
"548 680 CURVE",
"535 677 LINE",
"564 672 OFFCURVE",
"605 669 OFFCURVE",
"627 669 CURVE SMOOTH",
"714 669 OFFCURVE",
"757 703 OFFCURVE",
"757 771 CURVE SMOOTH",
"757 797 OFFCURVE",
"748 825 OFFCURVE",
"735 845 CURVE",
"717 837 LINE",
"728 818 OFFCURVE",
"737 796 OFFCURVE",
"737 770 CURVE SMOOTH",
"737 715 OFFCURVE",
"701 688 OFFCURVE",
"627 688 CURVE SMOOTH",
"561 688 OFFCURVE",
"504 703 OFFCURVE",
"418 703 CURVE SMOOTH",
"213 703 OFFCURVE",
"59 552 OFFCURVE",
"59 350 CURVE SMOOTH",
"59 148 OFFCURVE",
"213 -3 OFFCURVE",
"418 -3 CURVE SMOOTH"
);
},
{
closed = 1;
nodes = (
"225 16 OFFCURVE",
"79 161 OFFCURVE",
"79 350 CURVE SMOOTH",
"79 539 OFFCURVE",
"225 684 OFFCURVE",
"418 684 CURVE SMOOTH",
"611 684 OFFCURVE",
"757 539 OFFCURVE",
"757 350 CURVE SMOOTH",
"757 161 OFFCURVE",
"611 16 OFFCURVE",
"418 16 CURVE SMOOTH"
);
}
);
width = 836;
},
{
anchors = (
{
name = bottom;
position = "{424, 0}";
},
{
name = top;
position = "{424, 700}";
}
);
layerId = "5DA6E103-6A94-47F2-987D-4952DB8EA68E";
paths = (
{
closed = 1;
nodes = (
"652 -16 OFFCURVE",
"819 138 OFFCURVE",
"819 350 CURVE SMOOTH",
"819 468 OFFCURVE",
"766 564 OFFCURVE",
"684 625 CURVE",
"424 591 LINE",
"479 584 OFFCURVE",
"535 574 OFFCURVE",
"600 574 CURVE SMOOTH",
"732 574 OFFCURVE",
"820 633 OFFCURVE",
"820 752 CURVE SMOOTH",
"820 797 OFFCURVE",
"806 834 OFFCURVE",
"783 863 CURVE",
"655 818 LINE",
"667 804 OFFCURVE",
"675 783 OFFCURVE",
"675 761 CURVE SMOOTH",
"675 724 OFFCURVE",
"648 703 OFFCURVE",
"608 703 CURVE SMOOTH",
"567 703 OFFCURVE",
"505 716 OFFCURVE",
"434 716 CURVE SMOOTH",
"196 716 OFFCURVE",
"29 562 OFFCURVE",
"29 350 CURVE SMOOTH",
"29 138 OFFCURVE",
"196 -16 OFFCURVE",
"424 -16 CURVE SMOOTH"
);
},
{
closed = 1;
nodes = (
"337 175 OFFCURVE",
"267 241 OFFCURVE",
"267 350 CURVE SMOOTH",
"267 459 OFFCURVE",
"337 525 OFFCURVE",
"424 525 CURVE SMOOTH",
"511 525 OFFCURVE",
"581 459 OFFCURVE",
"581 350 CURVE SMOOTH",
"581 241 OFFCURVE",
"511 175 OFFCURVE",
"424 175 CURVE SMOOTH"
);
}
);
width = 848;
},
{
anchors = (
{
name = bottom;
position = "{421, 0}";
},
{
name = top;
position = "{421, 700}";
}
);
layerId = "708134FE-A11E-43C9-84F0-594DA15B6BD1";
paths = (
{
closed = 1;
nodes = (
"636 -9 OFFCURVE",
"795 143 OFFCURVE",
"795 350 CURVE SMOOTH",
"795 483 OFFCURVE",
"726 597 OFFCURVE",
"626 653 CURVE",
"481 636 LINE",
"521 630 OFFCURVE",
"568 624 OFFCURVE",
"609 624 CURVE SMOOTH",
"720 624 OFFCURVE",
"783 675 OFFCURVE",
"783 762 CURVE SMOOTH",
"783 797 OFFCURVE",
"772 829 OFFCURVE",
"754 854 CURVE",
"686 828 LINE",
"697 811 OFFCURVE",
"706 790 OFFCURVE",
"706 766 CURVE SMOOTH",
"706 719 OFFCURVE",
"673 695 OFFCURVE",
"614 695 CURVE SMOOTH",
"559 695 OFFCURVE",
"504 709 OFFCURVE",
"425 709 CURVE SMOOTH",
"206 709 OFFCURVE",
"46 557 OFFCURVE",
"46 350 CURVE SMOOTH",
"46 144 OFFCURVE",
"205 -9 OFFCURVE",
"421 -9 CURVE SMOOTH"
);
},
{
closed = 1;
nodes = (
"272 93 OFFCURVE",
"161 202 OFFCURVE",
"161 350 CURVE SMOOTH",
"161 498 OFFCURVE",
"272 607 OFFCURVE",
"421 607 CURVE SMOOTH",
"570 607 OFFCURVE",
"680 497 OFFCURVE",
"680 350 CURVE SMOOTH",
"680 203 OFFCURVE",
"570 93 OFFCURVE",
"421 93 CURVE SMOOTH"
);
}
);
width = 841;
}
);
leftKerningGroup = O;
leftMetricsKey = O;
widthMetricsKey = O;
rightKerningGroup = O;
unicode = 01A0;
},
{
color = 3;
glyphname = "Omega-latin";
layers = (
{
anchors = (
{
name = bottom;
position = "{542, 0}";
},
{
name = top;
position = "{542, 700}";
}
);
layerId = UUID0;
paths = (
{
closed = 1;
nodes = (
"469 -1 OFFCURVE",
"549 100 OFFCURVE",
"549 222 CURVE",
"538 222 LINE",
"538 100 OFFCURVE",
"617 -1 OFFCURVE",
"747 -1 CURVE SMOOTH",
"907 -1 OFFCURVE",
"989 149 OFFCURVE",
"989 324 CURVE SMOOTH",
"989 449 OFFCURVE",
"948 587 OFFCURVE",
"861 700 CURVE",
"836 700 LINE",
"922 595 OFFCURVE",
"969 453 OFFCURVE",
"969 324 CURVE SMOOTH",
"969 160 OFFCURVE",
"893 18 OFFCURVE",
"746 18 CURVE SMOOTH",
"629 18 OFFCURVE",
"553 111 OFFCURVE",
"553 235 CURVE SMOOTH",
"553 415 LINE",
"533 415 LINE",
"533 235 LINE SMOOTH",
"533 111 OFFCURVE",
"459 18 OFFCURVE",
"340 18 CURVE SMOOTH",
"192 18 OFFCURVE",
"117 161 OFFCURVE",
"117 324 CURVE SMOOTH",
"117 453 OFFCURVE",
"164 595 OFFCURVE",
"250 700 CURVE",
"225 700 LINE",
"138 587 OFFCURVE",
"97 449 OFFCURVE",
"97 324 CURVE SMOOTH",
"97 149 OFFCURVE",
"179 -1 OFFCURVE",
"339 -1 CURVE SMOOTH"
);
}
);
width = 1086;
},
{
anchors = (
{
name = bottom;
position = "{522, 0}";
},
{
name = top;
position = "{522, 700}";
}
);
layerId = "708134FE-A11E-43C9-84F0-594DA15B6BD1";
paths = (
{
closed = 1;
nodes = (
"457 -7 OFFCURVE",
"554 85 OFFCURVE",
"554 251 CURVE",
"491 251 LINE",
"491 85 OFFCURVE",
"587 -7 OFFCURVE",
"722 -7 CURVE SMOOTH",
"909 -7 OFFCURVE",
"985 167 OFFCURVE",
"985 350 CURVE SMOOTH",
"985 479 OFFCURVE",
"948 612 OFFCURVE",
"879 700 CURVE",
"751 700 LINE",
"832 600 OFFCURVE",
"870 468 OFFCURVE",
"870 351 CURVE SMOOTH",
"870 215 OFFCURVE",
"820 96 OFFCURVE",
"710 96 CURVE SMOOTH",
"636 96 OFFCURVE",
"582 150 OFFCURVE",
"582 280 CURVE SMOOTH",
"582 435 LINE",
"462 435 LINE",
"462 280 LINE SMOOTH",
"462 151 OFFCURVE",
"409 96 OFFCURVE",
"335 96 CURVE SMOOTH",
"227 96 OFFCURVE",
"174 212 OFFCURVE",
"174 350 CURVE SMOOTH",
"174 470 OFFCURVE",
"214 603 OFFCURVE",
"296 700 CURVE",
"168 700 LINE",
"98 614 OFFCURVE",
"60 481 OFFCURVE",
"60 351 CURVE SMOOTH",
"60 168 OFFCURVE",
"136 -7 OFFCURVE",
"322 -7 CURVE SMOOTH"
);
}
);
width = 1045;
},
{
anchors = (
{
name = bottom;
position = "{532, 0}";
},
{
name = top;
position = "{532, 700}";
}
);
layerId = "5DA6E103-6A94-47F2-987D-4952DB8EA68E";
paths = (
{
closed = 1;
nodes = (
"472 -15 OFFCURVE",
"568 88 OFFCURVE",
"579 204 CURVE",
"474 204 LINE",
"485 85 OFFCURVE",
"582 -15 OFFCURVE",
"737 -15 CURVE SMOOTH",
"943 -15 OFFCURVE",
"1025 174 OFFCURVE",
"1025 365 CURVE SMOOTH",
"1025 490 OFFCURVE",
"987 620 OFFCURVE",
"936 700 CURVE",
"715 700 LINE",
"747 619 OFFCURVE",
"783 468 OFFCURVE",
"783 348 CURVE SMOOTH",
"783 252 OFFCURVE",
"762 173 OFFCURVE",
"699 173 CURVE SMOOTH",
"653 173 OFFCURVE",
"639 216 OFFCURVE",
"639 271 CURVE SMOOTH",
"639 473 LINE",
"414 473 LINE",
"414 271 LINE SMOOTH",
"414 216 OFFCURVE",
"400 173 OFFCURVE",
"354 173 CURVE SMOOTH",
"291 173 OFFCURVE",
"270 252 OFFCURVE",
"270 348 CURVE SMOOTH",
"270 468 OFFCURVE",
"306 619 OFFCURVE",
"338 700 CURVE",
"116 700 LINE",
"65 618 OFFCURVE",
"33 490 OFFCURVE",
"33 365 CURVE SMOOTH",
"33 174 OFFCURVE",
"110 -15 OFFCURVE",
"316 -15 CURVE SMOOTH"
);
}
);
width = 1058;
}
);
leftKerningGroup = O;
rightKerningGroup = O;
rightMetricsKey = "=|";
unicode = A7B6;
},
{
glyphname = Oogonek;
layers = (
{
anchors = (
{
name = top;
position = "{418, 700}";
}
);
layerId = UUID0;
paths = (
{
closed = 1;
nodes = (
"441 -213 OFFCURVE",
"465 -205 OFFCURVE",
"487 -186 CURVE",
"476 -171 LINE",
"460 -186 OFFCURVE",
"437 -194 OFFCURVE",
"414 -194 CURVE SMOOTH",
"373 -194 OFFCURVE",
"342 -173 OFFCURVE",
"342 -130 CURVE SMOOTH",
"342 -65 OFFCURVE",
"418 -10 OFFCURVE",
"500 6 CURVE SMOOTH",
"651 36 OFFCURVE",
"777 165 OFFCURVE",
"777 350 CURVE SMOOTH",
"777 552 OFFCURVE",
"623 703 OFFCURVE",
"418 703 CURVE SMOOTH",
"213 703 OFFCURVE",
"59 552 OFFCURVE",
"59 350 CURVE SMOOTH",
"59 148 OFFCURVE",
"213 -3 OFFCURVE",
"418 -3 CURVE SMOOTH",
"426 -3 OFFCURVE",
"433 -2 OFFCURVE",
"441 -1 CURVE",
"459 16 LINE",
"348 -32 OFFCURVE",
"322 -89 OFFCURVE",
"322 -130 CURVE SMOOTH",
"322 -182 OFFCURVE",
"361 -213 OFFCURVE",
"413 -213 CURVE SMOOTH"
);
},
{
closed = 1;
nodes = (
"225 16 OFFCURVE",
"79 159 OFFCURVE",
"79 350 CURVE SMOOTH",
"79 541 OFFCURVE",
"225 684 OFFCURVE",
"418 684 CURVE SMOOTH",
"611 684 OFFCURVE",
"757 541 OFFCURVE",
"757 350 CURVE SMOOTH",
"757 159 OFFCURVE",
"611 16 OFFCURVE",
"418 16 CURVE SMOOTH"
);
}
);
width = 836;
},
{
anchors = (
{
name = top;
position = "{424, 700}";
}
);
layerId = "5DA6E103-6A94-47F2-987D-4952DB8EA68E";
paths = (
{
closed = 1;
nodes = (
"502 -240 OFFCURVE",
"548 -230 OFFCURVE",
"572 -217 CURVE",
"545 -124 LINE",
"530 -131 OFFCURVE",
"508 -138 OFFCURVE",
"486 -138 CURVE SMOOTH",
"449 -138 OFFCURVE",
"433 -120 OFFCURVE",
"433 -97 CURVE SMOOTH",
"433 -64 OFFCURVE",
"463 -29 OFFCURVE",
"564 5 CURVE SMOOTH",
"710 54 OFFCURVE",
"819 178 OFFCURVE",
"819 350 CURVE SMOOTH",
"819 562 OFFCURVE",
"652 716 OFFCURVE",
"424 716 CURVE SMOOTH",
"196 716 OFFCURVE",
"29 562 OFFCURVE",
"29 350 CURVE SMOOTH",
"29 138 OFFCURVE",
"196 -16 OFFCURVE",
"424 -16 CURVE SMOOTH",
"439 -16 OFFCURVE",
"455 -15 OFFCURVE",
"480 -13 CURVE",
"468 49 LINE",
"362 16 OFFCURVE",
"301 -43 OFFCURVE",
"301 -117 CURVE SMOOTH",
"301 -192 OFFCURVE",
"359 -240 OFFCURVE",
"459 -240 CURVE SMOOTH"
);
},
{
closed = 1;
nodes = (
"337 175 OFFCURVE",
"267 241 OFFCURVE",
"267 350 CURVE SMOOTH",
"267 459 OFFCURVE",
"337 525 OFFCURVE",
"424 525 CURVE SMOOTH",
"511 525 OFFCURVE",
"581 459 OFFCURVE",
"581 350 CURVE SMOOTH",
"581 241 OFFCURVE",
"511 175 OFFCURVE",
"424 175 CURVE SMOOTH"
);
}
);
width = 848;
},
{
anchors = (
{
name = top;
position = "{421, 700}";
}
);
layerId = "708134FE-A11E-43C9-84F0-594DA15B6BD1";
paths = (
{
closed = 1;
nodes = (
"466 -226 OFFCURVE",
"500 -217 OFFCURVE",
"525 -203 CURVE",
"505 -147 LINE",
"489 -157 OFFCURVE",
"465 -163 OFFCURVE",
"444 -163 CURVE SMOOTH",
"409 -163 OFFCURVE",
"384 -145 OFFCURVE",
"384 -113 CURVE SMOOTH",
"384 -64 OFFCURVE",
"438 -19 OFFCURVE",
"528 6 CURVE SMOOTH",
"677 45 OFFCURVE",
"795 171 OFFCURVE",
"795 350 CURVE SMOOTH",
"795 557 OFFCURVE",
"636 709 OFFCURVE",
"421 709 CURVE SMOOTH",
"206 709 OFFCURVE",
"46 557 OFFCURVE",
"46 350 CURVE SMOOTH",
"46 143 OFFCURVE",
"206 -9 OFFCURVE",
"421 -9 CURVE SMOOTH",
"432 -9 OFFCURVE",
"443 -8 OFFCURVE",
"458 -7 CURVE",
"451 35 LINE",
"344 -6 OFFCURVE",
"307 -66 OFFCURVE",
"307 -122 CURVE SMOOTH",
"307 -183 OFFCURVE",
"353 -226 OFFCURVE",
"432 -226 CURVE SMOOTH"
);
},
{
closed = 1;
nodes = (
"271 93 OFFCURVE",
"161 202 OFFCURVE",
"161 350 CURVE SMOOTH",
"161 498 OFFCURVE",
"271 607 OFFCURVE",
"421 607 CURVE SMOOTH",
"570 607 OFFCURVE",
"680 498 OFFCURVE",
"680 350 CURVE SMOOTH",
"680 202 OFFCURVE",
"570 93 OFFCURVE",
"421 93 CURVE SMOOTH"
);
}
);
width = 841;
}
);
leftKerningGroup = O;
rightKerningGroup = O;
unicode = 01EA;
},
{
color = 3;
glyphname = Oopen;
layers = (
{
anchors = (
{
name = bottom;
position = "{288, 0}";
},
{
name = center;
position = "{560, 343}";
},
{
name = ogonek;
position = "{319, 0}";
},
{
name = top;
position = "{288, 700}";
}
);
layerId = UUID0;
paths = (
{
closed = 1;
nodes = (
"191 703 OFFCURVE",
"105 673 OFFCURVE",
"45 613 CURVE",
"57 599 LINE",
"121 660 OFFCURVE",
"198 684 OFFCURVE",
"283 684 CURVE SMOOTH",
"476 684 OFFCURVE",
"622 539 OFFCURVE",
"622 350 CURVE SMOOTH",
"622 161 OFFCURVE",
"476 16 OFFCURVE",
"283 16 CURVE SMOOTH",
"198 16 OFFCURVE",
"121 39 OFFCURVE",
"57 100 CURVE",
"45 86 LINE",
"105 26 OFFCURVE",
"191 -3 OFFCURVE",
"283 -3 CURVE SMOOTH",
"488 -3 OFFCURVE",
"642 148 OFFCURVE",
"642 350 CURVE SMOOTH",
"642 552 OFFCURVE",
"488 703 OFFCURVE",
"283 703 CURVE SMOOTH"
);
}
);
width = 701;
},
{
anchors = (
{
name = bottom;
position = "{303, 0}";
},
{
name = center;
position = "{565, 344}";
},
{
name = ogonek;
position = "{361, 0}";
},
{
name = top;
position = "{303, 700}";
}
);
layerId = "708134FE-A11E-43C9-84F0-594DA15B6BD1";
paths = (
{
closed = 1;
nodes = (
"185 709 OFFCURVE",
"89 670 OFFCURVE",
"25 595 CURVE",
"99 523 LINE",
"151 580 OFFCURVE",
"216 607 OFFCURVE",
"291 607 CURVE SMOOTH",
"443 607 OFFCURVE",
"554 499 OFFCURVE",
"554 350 CURVE SMOOTH",
"554 201 OFFCURVE",
"443 93 OFFCURVE",
"291 93 CURVE SMOOTH",
"216 93 OFFCURVE",
"151 120 OFFCURVE",
"99 176 CURVE",
"25 104 LINE",
"89 30 OFFCURVE",
"185 -9 OFFCURVE",
"296 -9 CURVE SMOOTH",
"510 -9 OFFCURVE",
"669 142 OFFCURVE",
"669 350 CURVE SMOOTH",
"669 558 OFFCURVE",
"510 709 OFFCURVE",
"297 709 CURVE SMOOTH"
);
}
);
width = 715;
},
{
anchors = (
{
name = bottom;
position = "{322, 0}";
},
{
name = center;
position = "{543, 340}";
},
{
name = ogonek;
position = "{426, 0}";
},
{
name = top;
position = "{322, 700}";
}
);
layerId = "5DA6E103-6A94-47F2-987D-4952DB8EA68E";
paths = (
{
closed = 1;
nodes = (
"181 716 OFFCURVE",
"73 666 OFFCURVE",
"4 576 CURVE",
"153 443 LINE",
"194 495 OFFCURVE",
"243 525 OFFCURVE",
"306 525 CURVE SMOOTH",
"404 525 OFFCURVE",
"470 457 OFFCURVE",
"470 350 CURVE SMOOTH",
"470 243 OFFCURVE",
"404 175 OFFCURVE",
"306 175 CURVE SMOOTH",
"243 175 OFFCURVE",
"194 205 OFFCURVE",
"153 257 CURVE",
"4 124 LINE",
"73 34 OFFCURVE",
"181 -16 OFFCURVE",
"318 -16 CURVE SMOOTH",
"543 -16 OFFCURVE",
"708 135 OFFCURVE",
"708 350 CURVE SMOOTH",
"708 565 OFFCURVE",
"543 716 OFFCURVE",
"318 716 CURVE SMOOTH"
);
}
);
width = 737;
}
);
leftKerningGroup = Oopen;
leftMetricsKey = "=|C";
rightKerningGroup = O;
rightMetricsKey = O;
unicode = 0186;
},
{
glyphname = OE;
layers = (
{
anchors = (
{
name = bottom;
position = "{587, 0}";
},
{
name = top;
position = "{587, 700}";
}
);
layerId = UUID0;
paths = (
{
closed = 1;
nodes = (
"583 0 LINE",
"583 19 LINE",
"428 19 LINE SMOOTH",
"217 19 OFFCURVE",
"79 158 OFFCURVE",
"79 349 CURVE SMOOTH",
"79 540 OFFCURVE",
"217 681 OFFCURVE",
"428 681 CURVE SMOOTH",
"583 681 LINE",
"583 700 LINE",
"428 700 LINE SMOOTH",
"208 700 OFFCURVE",
"59 551 OFFCURVE",
"59 349 CURVE SMOOTH",
"59 147 OFFCURVE",
"208 0 OFFCURVE",
"428 0 CURVE SMOOTH"
);
},
{
closed = 1;
nodes = (
"1043 0 LINE",
"1043 19 LINE",
"597 19 LINE",
"597 681 LINE",
"1028 681 LINE",
"1028 700 LINE",
"577 700 LINE",
"577 0 LINE"
);
},
{
closed = 1;
nodes = (
"983 346 LINE",
"983 365 LINE",
"592 365 LINE",
"592 346 LINE"
);
}
);
width = 1112;
},
{
anchors = (
{
name = bottom;
position = "{649, 0}";
},
{
name = top;
position = "{649, 700}";
}
);
layerId = "5DA6E103-6A94-47F2-987D-4952DB8EA68E";
paths = (
{
closed = 1;
nodes = (
"593 0 LINE",
"593 184 LINE",
"434 184 LINE SMOOTH",
"335 184 OFFCURVE",
"267 243 OFFCURVE",
"267 350 CURVE SMOOTH",
"267 457 OFFCURVE",
"335 516 OFFCURVE",
"434 516 CURVE SMOOTH",
"593 516 LINE",
"593 700 LINE",
"424 700 LINE SMOOTH",
"190 700 OFFCURVE",
"29 567 OFFCURVE",
"29 350 CURVE SMOOTH",
"29 133 OFFCURVE",
"190 0 OFFCURVE",
"424 0 CURVE SMOOTH"
);
},
{
closed = 1;
nodes = (
"1115 0 LINE",
"1115 178 LINE",
"765 178 LINE",
"765 522 LINE",
"1102 522 LINE",
"1102 700 LINE",
"533 700 LINE",
"533 0 LINE"
);
},
{
closed = 1;
nodes = (
"1061 270 LINE",
"1061 440 LINE",
"749 440 LINE",
"749 270 LINE"
);
}
);
width = 1149;
},
{
anchors = (
{
name = bottom;
position = "{614, 0}";
},
{
name = top;
position = "{614, 700}";
}
);
layerId = "708134FE-A11E-43C9-84F0-594DA15B6BD1";
paths = (
{
closed = 1;
nodes = (
"587 0 LINE",
"587 99 LINE",
"432 99 LINE SMOOTH",
"267 99 OFFCURVE",
"161 199 OFFCURVE",
"161 349 CURVE SMOOTH",
"161 501 OFFCURVE",
"267 601 OFFCURVE",
"432 601 CURVE SMOOTH",
"587 601 LINE",
"587 700 LINE",
"426 700 LINE SMOOTH",
"200 700 OFFCURVE",
"46 559 OFFCURVE",
"46 349 CURVE SMOOTH",
"46 141 OFFCURVE",
"200 0 OFFCURVE",
"426 0 CURVE SMOOTH"
);
},
{
closed = 1;
nodes = (
"1074 0 LINE",
"1074 99 LINE",
"672 99 LINE",
"672 601 LINE",
"1060 601 LINE",
"1060 700 LINE",
"558 700 LINE",
"558 0 LINE"
);
},
{
closed = 1;
nodes = (
"1017 307 LINE",
"1017 404 LINE",
"663 404 LINE",
"663 307 LINE"
);
}
);
width = 1128;
}
);
leftKerningGroup = O;
leftMetricsKey = O;
rightKerningGroup = E;
rightMetricsKey = E;
unicode = 0152;
},
{
glyphname = P;
layers = (
{
anchors = (
{
name = bottom;
position = "{355, 0}";
},
{
name = hook.af;
position = "{133, 700}";
},
{
name = top;
position = "{355, 700}";
}
);
layerId = UUID0;
paths = (
{
closed = 1;
nodes = (
"153 0 LINE",
"153 249 LINE",
"144 240 LINE",
"370 240 LINE SMOOTH",
"542 240 OFFCURVE",
"645 325 OFFCURVE",
"645 470 CURVE SMOOTH",
"645 615 OFFCURVE",
"542 700 OFFCURVE",
"370 700 CURVE SMOOTH",
"133 700 LINE",
"133 0 LINE"
);
},
{
closed = 1;
nodes = (
"153 689 LINE",
"144 681 LINE",
"372 681 LINE SMOOTH",
"536 681 OFFCURVE",
"625 604 OFFCURVE",
"625 470 CURVE SMOOTH",
"625 336 OFFCURVE",
"536 259 OFFCURVE",
"372 259 CURVE SMOOTH",
"144 259 LINE",
"153 251 LINE"
);
}
);
width = 710;
},
{
anchors = (
{
name = bottom;
position = "{372, 0}";
},
{
name = hook.af;
position = "{57, 700}";
},
{
name = top;
position = "{372, 700}";
}
);
layerId = "5DA6E103-6A94-47F2-987D-4952DB8EA68E";
paths = (
{
closed = 1;
nodes = (
"293 0 LINE",
"293 273 LINE",
"188 172 LINE",
"394 172 LINE SMOOTH",
"589 172 OFFCURVE",
"713 274 OFFCURVE",
"713 436 CURVE SMOOTH",
"713 598 OFFCURVE",
"589 700 OFFCURVE",
"394 700 CURVE SMOOTH",
"57 700 LINE",
"57 0 LINE"
);
},
{
closed = 1;
nodes = (
"293 625 LINE",
"188 518 LINE",
"379 518 LINE SMOOTH",
"444 518 OFFCURVE",
"475 487 OFFCURVE",
"475 436 CURVE SMOOTH",
"475 385 OFFCURVE",
"444 354 OFFCURVE",
"379 354 CURVE SMOOTH",
"188 354 LINE",
"293 247 LINE"
);
}
);
width = 743;
},
{
anchors = (
{
name = bottom;
position = "{362, 0}";
},
{
name = hook.af;
position = "{100, 700}";
},
{
name = top;
position = "{362, 700}";
}
);
layerId = "708134FE-A11E-43C9-84F0-594DA15B6BD1";
paths = (
{
closed = 1;
nodes = (
"214 0 LINE",
"214 261 LINE",
"163 207 LINE",
"380 207 LINE SMOOTH",
"563 207 OFFCURVE",
"675 300 OFFCURVE",
"675 453 CURVE SMOOTH",
"675 607 OFFCURVE",
"563 700 OFFCURVE",
"380 700 CURVE SMOOTH",
"100 700 LINE",
"100 0 LINE"
);
},
{
closed = 1;
nodes = (
"214 658 LINE",
"163 601 LINE",
"376 601 LINE SMOOTH",
"497 601 OFFCURVE",
"560 547 OFFCURVE",
"560 453 CURVE SMOOTH",
"560 360 OFFCURVE",
"497 306 OFFCURVE",
"376 306 CURVE SMOOTH",
"163 306 LINE",
"214 249 LINE"
);
}
);
width = 724;
}
);
leftKerningGroup = H;
leftMetricsKey = H;
rightKerningGroup = P;
unicode = 0050;
},
{
glyphname = Thorn;
layers = (
{
layerId = UUID0;
paths = (
{
closed = 1;
nodes = (
"370 139 LINE SMOOTH",
"542 139 OFFCURVE",
"645 224 OFFCURVE",
"645 370 CURVE SMOOTH",
"645 515 OFFCURVE",
"542 600 OFFCURVE",
"370 600 CURVE SMOOTH",
"144 600 LINE",
"144 581 LINE",
"372 581 LINE SMOOTH",
"536 581 OFFCURVE",
"625 504 OFFCURVE",
"625 370 CURVE SMOOTH",
"625 235 OFFCURVE",
"536 158 OFFCURVE",
"372 158 CURVE SMOOTH",
"144 158 LINE",
"144 139 LINE"
);
},
{
closed = 1;
nodes = (
"153 0 LINE",
"153 700 LINE",
"133 700 LINE",
"133 0 LINE"
);
}
);
width = 710;
},
{
layerId = "5DA6E103-6A94-47F2-987D-4952DB8EA68E";
paths = (
{
closed = 1;
nodes = (
"394 105 LINE SMOOTH",
"589 105 OFFCURVE",
"713 207 OFFCURVE",
"713 369 CURVE SMOOTH",
"713 531 OFFCURVE",
"589 633 OFFCURVE",
"394 633 CURVE SMOOTH",
"245 633 LINE",
"245 451 LINE",
"379 451 LINE SMOOTH",
"444 451 OFFCURVE",
"475 420 OFFCURVE",
"475 369 CURVE SMOOTH",
"475 318 OFFCURVE",
"444 287 OFFCURVE",
"379 287 CURVE SMOOTH",
"245 287 LINE",
"245 105 LINE"
);
},
{
closed = 1;
nodes = (
"293 0 LINE",
"293 701 LINE",
"57 701 LINE",
"57 0 LINE"
);
}
);
width = 743;
},
{
layerId = "708134FE-A11E-43C9-84F0-594DA15B6BD1";
paths = (
{
closed = 1;
nodes = (
"380 122 LINE SMOOTH",
"563 122 OFFCURVE",
"675 216 OFFCURVE",
"675 369 CURVE SMOOTH",
"675 522 OFFCURVE",
"563 616 OFFCURVE",
"380 616 CURVE SMOOTH",
"188 616 LINE",
"188 517 LINE",
"376 517 LINE SMOOTH",
"497 517 OFFCURVE",
"560 463 OFFCURVE",
"560 369 CURVE SMOOTH",
"560 275 OFFCURVE",
"497 221 OFFCURVE",
"376 221 CURVE SMOOTH",
"188 221 LINE",
"188 122 LINE"
);
},
{
closed = 1;
nodes = (
"214 0 LINE",
"214 700 LINE",
"100 700 LINE",
"100 0 LINE"
);
}
);
width = 724;
}
);
leftKerningGroup = H;
leftMetricsKey = H;
rightKerningGroup = Thorn;
rightMetricsKey = P;
unicode = 00DE;
},
{
color = 3;
glyphname = Pstroke;
layers = (
{
anchors = (
{
name = hook.af;
position = "{140, 700}";
}
);
layerId = UUID0;
paths = (
{
closed = 1;
nodes = (
"160 0 LINE",
"160 249 LINE",
"151 240 LINE",
"377 240 LINE SMOOTH",
"549 240 OFFCURVE",
"652 325 OFFCURVE",
"652 470 CURVE SMOOTH",
"652 615 OFFCURVE",
"549 700 OFFCURVE",
"377 700 CURVE SMOOTH",
"140 700 LINE",
"140 0 LINE"
);
},
{
closed = 1;
nodes = (
"330 462 LINE",
"330 481 LINE",
"20 481 LINE",
"20 462 LINE"
);
},
{
closed = 1;
nodes = (
"160 689 LINE",
"151 681 LINE",
"379 681 LINE SMOOTH",
"543 681 OFFCURVE",
"632 604 OFFCURVE",
"632 470 CURVE SMOOTH",
"632 336 OFFCURVE",
"543 259 OFFCURVE",
"379 259 CURVE SMOOTH",
"151 259 LINE",
"160 251 LINE"
);
}
);
width = 717;
},
{
anchors = (
{
name = hook.af;
position = "{108, 700}";
}
);
layerId = "708134FE-A11E-43C9-84F0-594DA15B6BD1";
paths = (
{
closed = 1;
nodes = (
"222 0 LINE",
"222 261 LINE",
"171 207 LINE",
"388 207 LINE SMOOTH",
"571 207 OFFCURVE",
"683 300 OFFCURVE",
"683 453 CURVE SMOOTH",
"683 607 OFFCURVE",
"571 700 OFFCURVE",
"388 700 CURVE SMOOTH",
"108 700 LINE",
"108 0 LINE"
);
},
{
closed = 1;
nodes = (
"372 411 LINE",
"372 499 LINE",
"8 499 LINE",
"8 411 LINE"
);
},
{
closed = 1;
nodes = (
"222 658 LINE",
"171 601 LINE",
"384 601 LINE SMOOTH",
"505 601 OFFCURVE",
"568 547 OFFCURVE",
"568 453 CURVE SMOOTH",
"568 360 OFFCURVE",
"505 306 OFFCURVE",
"384 306 CURVE SMOOTH",
"171 306 LINE",
"222 249 LINE"
);
}
);
width = 732;
},
{
anchors = (
{
name = hook.af;
position = "{61, 700}";
}
);
layerId = "5DA6E103-6A94-47F2-987D-4952DB8EA68E";
paths = (
{
closed = 1;
nodes = (
"297 0 LINE",
"297 273 LINE",
"192 172 LINE",
"398 172 LINE SMOOTH",
"593 172 OFFCURVE",
"717 274 OFFCURVE",
"717 436 CURVE SMOOTH",
"717 598 OFFCURVE",
"593 700 OFFCURVE",
"398 700 CURVE SMOOTH",
"61 700 LINE",
"61 0 LINE"
);
},
{
closed = 1;
nodes = (
"392 369 LINE",
"392 503 LINE",
"-9 503 LINE",
"-9 369 LINE"
);
},
{
closed = 1;
nodes = (
"297 625 LINE",
"192 527 LINE",
"383 527 LINE SMOOTH",
"445 527 OFFCURVE",
"479 494 OFFCURVE",
"479 436 CURVE SMOOTH",
"479 377 OFFCURVE",
"445 344 OFFCURVE",
"383 344 CURVE SMOOTH",
"192 344 LINE",
"297 247 LINE"
);
}
);
width = 747;
}
);
leftKerningGroup = Hbar;
leftMetricsKey = Eth;
rightKerningGroup = P;
rightMetricsKey = P;
unicode = 2C63;
},
{
glyphname = Q;
layers = (
{
anchors = (
{
name = top;
position = "{418, 700}";
}
);
layerId = UUID0;
paths = (
{
closed = 1;
nodes = (
"623 -3 OFFCURVE",
"777 148 OFFCURVE",
"777 350 CURVE SMOOTH",
"777 552 OFFCURVE",
"623 703 OFFCURVE",
"418 703 CURVE SMOOTH",
"213 703 OFFCURVE",
"59 552 OFFCURVE",
"59 350 CURVE SMOOTH",
"59 148 OFFCURVE",
"213 -3 OFFCURVE",
"418 -3 CURVE SMOOTH"
);
},
{
closed = 1;
nodes = (
"711 -124 OFFCURVE",
"766 -98 OFFCURVE",
"807 -48 CURVE",
"793 -34 LINE",
"753 -82 OFFCURVE",
"706 -105 OFFCURVE",
"648 -105 CURVE SMOOTH",
"585 -105 OFFCURVE",
"519 -67 OFFCURVE",
"451 8 CURVE",
"425 3 LINE",
"509 -85 OFFCURVE",
"577 -124 OFFCURVE",
"648 -124 CURVE SMOOTH"
);
},
{
closed = 1;
nodes = (
"225 16 OFFCURVE",
"79 161 OFFCURVE",
"79 350 CURVE SMOOTH",
"79 539 OFFCURVE",
"225 684 OFFCURVE",
"418 684 CURVE SMOOTH",
"611 684 OFFCURVE",
"757 539 OFFCURVE",
"757 350 CURVE SMOOTH",
"757 161 OFFCURVE",
"611 16 OFFCURVE",
"418 16 CURVE SMOOTH"
);
}
);
width = 836;
},
{
anchors = (
{
name = top;
position = "{425, 700}";
}
);
layerId = "5DA6E103-6A94-47F2-987D-4952DB8EA68E";
paths = (
{
closed = 1;
nodes = (
"652 -16 OFFCURVE",
"819 138 OFFCURVE",
"819 350 CURVE SMOOTH",
"819 562 OFFCURVE",
"652 716 OFFCURVE",
"424 716 CURVE SMOOTH",
"196 716 OFFCURVE",
"29 562 OFFCURVE",
"29 350 CURVE SMOOTH",
"29 138 OFFCURVE",
"196 -16 OFFCURVE",
"424 -16 CURVE SMOOTH"
);
},
{
closed = 1;
nodes = (
"737 -177 OFFCURVE",
"808 -146 OFFCURVE",
"857 -88 CURVE",
"755 32 LINE",
"726 3 OFFCURVE",
"692 -13 OFFCURVE",
"658 -13 CURVE SMOOTH",
"616 -13 OFFCURVE",
"593 6 OFFCURVE",
"546 80 CURVE",
"302 20 LINE",
"442 -133 OFFCURVE",
"521 -177 OFFCURVE",
"653 -177 CURVE SMOOTH"
);
},
{
closed = 1;
nodes = (
"337 175 OFFCURVE",
"267 241 OFFCURVE",
"267 350 CURVE SMOOTH",
"267 459 OFFCURVE",
"337 525 OFFCURVE",
"424 525 CURVE SMOOTH",
"511 525 OFFCURVE",
"581 459 OFFCURVE",
"581 350 CURVE SMOOTH",
"581 241 OFFCURVE",
"511 175 OFFCURVE",
"424 175 CURVE SMOOTH"
);
}
);
width = 848;
},
{
anchors = (
{
name = top;
position = "{421, 700}";
}
);
layerId = "708134FE-A11E-43C9-84F0-594DA15B6BD1";
paths = (
{
closed = 1;
nodes = (
"636 -9 OFFCURVE",
"795 143 OFFCURVE",
"795 350 CURVE SMOOTH",
"795 557 OFFCURVE",
"636 709 OFFCURVE",
"421 709 CURVE SMOOTH",
"205 709 OFFCURVE",
"46 556 OFFCURVE",
"46 350 CURVE SMOOTH",
"46 144 OFFCURVE",
"205 -9 OFFCURVE",
"421 -9 CURVE SMOOTH"
);
},
{
closed = 1;
nodes = (
"722 -150 OFFCURVE",
"784 -121 OFFCURVE",
"829 -67 CURVE",
"776 -2 LINE",
"741 -41 OFFCURVE",
"700 -60 OFFCURVE",
"652 -60 CURVE SMOOTH",
"599 -60 OFFCURVE",
"551 -32 OFFCURVE",
"493 43 CURVE",
"371 11 LINE",
"480 -108 OFFCURVE",
"553 -150 OFFCURVE",
"650 -150 CURVE SMOOTH"
);
},
{
closed = 1;
nodes = (
"271 93 OFFCURVE",
"161 202 OFFCURVE",
"161 350 CURVE SMOOTH",
"161 498 OFFCURVE",
"271 607 OFFCURVE",
"421 607 CURVE SMOOTH",
"570 607 OFFCURVE",
"680 498 OFFCURVE",
"680 350 CURVE SMOOTH",
"680 202 OFFCURVE",
"570 93 OFFCURVE",
"421 93 CURVE SMOOTH"
);
}
);
width = 841;
}
);
leftKerningGroup = O;
leftMetricsKey = O;
widthMetricsKey = O;
rightKerningGroup = O;
unicode = 0051;
},
{
color = 9;
glyphname = Qhooktail;
layers = (
{
anchors = (
{
name = bottom;
position = "{418, 0}";
},
{
name = center;
position = "{418, 350}";
},
{
name = ogonek;
position = "{469, 0}";
},
{
name = top;
position = "{418, 700}";
},
{
name = topleft;
position = "{59, 700}";
},
{
name = topright;
position = "{667, 700}";
}
);
layerId = UUID0;
paths = (
{
closed = 1;
nodes = (
"622 -3 OFFCURVE",
"775 148 OFFCURVE",
"775 350 CURVE SMOOTH",
"775 552 OFFCURVE",
"622 703 OFFCURVE",
"418 703 CURVE SMOOTH",
"213 703 OFFCURVE",
"59 552 OFFCURVE",
"59 350 CURVE SMOOTH",
"59 148 OFFCURVE",
"213 -3 OFFCURVE",
"418 -3 CURVE SMOOTH"
);
},
{
closed = 1;
nodes = (
"225 16 OFFCURVE",
"79 159 OFFCURVE",
"79 350 CURVE SMOOTH",
"79 541 OFFCURVE",
"225 684 OFFCURVE",
"418 684 CURVE SMOOTH",
"611 684 OFFCURVE",
"757 541 OFFCURVE",
"757 350 CURVE SMOOTH",
"757 159 OFFCURVE",
"611 16 OFFCURVE",
"418 16 CURVE SMOOTH"
);
},
{
closed = 1;
nodes = (
"943 -161 LINE",
"871 -200 OFFCURVE",
"776 -172 OFFCURVE",
"776 -58 CURVE SMOOTH",
"776 686 LINE",
"756 686 LINE",
"756 448 LINE",
"759 350 LINE",
"756 275 LINE",
"756 -58 LINE SMOOTH",
"756 -192 OFFCURVE",
"872 -222 OFFCURVE",
"952 -178 CURVE"
);
}
);
width = 923;
},
{
anchors = (
{
name = bottom;
position = "{417, 0}";
},
{
name = center;
position = "{417, 350}";
},
{
name = ogonek;
position = "{499, 0}";
},
{
name = top;
position = "{417, 700}";
},
{
name = topleft;
position = "{44, 700}";
},
{
name = topright;
position = "{629, 700}";
}
);
layerId = "708134FE-A11E-43C9-84F0-594DA15B6BD1";
paths = (
{
closed = 1;
nodes = (
"617 -9 OFFCURVE",
"766 143 OFFCURVE",
"766 350 CURVE SMOOTH",
"766 557 OFFCURVE",
"617 709 OFFCURVE",
"412 709 CURVE SMOOTH",
"203 709 OFFCURVE",
"46 556 OFFCURVE",
"46 350 CURVE SMOOTH",
"46 144 OFFCURVE",
"203 -9 OFFCURVE",
"412 -9 CURVE SMOOTH"
);
},
{
closed = 1;
nodes = (
"271 93 OFFCURVE",
"161 202 OFFCURVE",
"161 350 CURVE SMOOTH",
"161 498 OFFCURVE",
"271 607 OFFCURVE",
"421 607 CURVE SMOOTH",
"570 607 OFFCURVE",
"680 498 OFFCURVE",
"680 350 CURVE SMOOTH",
"680 202 OFFCURVE",
"570 93 OFFCURVE",
"421 93 CURVE SMOOTH"
);
},
{
closed = 1;
nodes = (
"897 -97 LINE",
"846 -116 OFFCURVE",
"789 -92 OFFCURVE",
"789 -28 CURVE SMOOTH",
"789 700 LINE",
"675 700 LINE",
"675 544 LINE",
"690 351 LINE",
"675 143 LINE",
"675 -32 LINE SMOOTH",
"675 -176 OFFCURVE",
"812 -232 OFFCURVE",
"928 -186 CURVE"
);
}
);
width = 882;
},
{
anchors = (
{
name = bottom;
position = "{424, 0}";
},
{
name = center;
position = "{424, 350}";
},
{
name = ogonek;
position = "{547, 0}";
},
{
name = top;
position = "{424, 700}";
},
{
name = topleft;
position = "{34, 700}";
},
{
name = topright;
position = "{590, 700}";
}
);
layerId = "5DA6E103-6A94-47F2-987D-4952DB8EA68E";
paths = (
{
closed = 1;
nodes = (
"567 -16 OFFCURVE",
"690 138 OFFCURVE",
"690 350 CURVE SMOOTH",
"690 562 OFFCURVE",
"567 716 OFFCURVE",
"376 716 CURVE SMOOTH",
"184 716 OFFCURVE",
"29 562 OFFCURVE",
"29 350 CURVE SMOOTH",
"29 138 OFFCURVE",
"184 -16 OFFCURVE",
"376 -16 CURVE SMOOTH"
);
},
{
closed = 1;
nodes = (
"328 175 OFFCURVE",
"267 243 OFFCURVE",
"267 350 CURVE SMOOTH",
"267 457 OFFCURVE",
"328 525 OFFCURVE",
"424 525 CURVE SMOOTH",
"520 525 OFFCURVE",
"581 457 OFFCURVE",
"581 350 CURVE SMOOTH",
"581 243 OFFCURVE",
"520 175 OFFCURVE",
"424 175 CURVE SMOOTH"
);
},
{
closed = 1;
nodes = (
"895 -24 LINE",
"847 -43 OFFCURVE",
"810 -26 OFFCURVE",
"810 17 CURVE SMOOTH",
"810 700 LINE",
"574 700 LINE",
"581 580 LINE",
"600 350 LINE",
"574 166 LINE",
"574 17 LINE SMOOTH",
"574 -197 OFFCURVE",
"774 -247 OFFCURVE",
"944 -183 CURVE"
);
}
);
width = 875;
}
);
leftKerningGroup = O;
leftMetricsKey = O;
rightKerningGroup = Qhooktail;
unicode = 024A;
},
{
glyphname = R;
layers = (
{
anchors = (
{
name = bottom;
position = "{366, 0}";
},
{
name = top;
position = "{366, 700}";
}
);
layerId = UUID0;
paths = (
{
closed = 1;
nodes = (
"153 0 LINE",
"153 249 LINE",
"144 240 LINE",
"370 240 LINE SMOOTH",
"542 240 OFFCURVE",
"645 325 OFFCURVE",
"645 470 CURVE SMOOTH",
"645 615 OFFCURVE",
"542 700 OFFCURVE",
"370 700 CURVE SMOOTH",
"133 700 LINE",
"133 0 LINE"
);
},
{
closed = 1;
nodes = (
"655 0 LINE",
"472 254 LINE",
"447 254 LINE",
"630 0 LINE"
);
},
{
closed = 1;
nodes = (
"153 689 LINE",
"144 681 LINE",
"372 681 LINE SMOOTH",
"536 681 OFFCURVE",
"625 604 OFFCURVE",
"625 470 CURVE SMOOTH",
"625 336 OFFCURVE",
"536 259 OFFCURVE",
"372 259 CURVE SMOOTH",
"144 259 LINE",
"153 251 LINE"
);
}
);
width = 716;
},
{
anchors = (
{
name = bottom;
position = "{365, 0}";
},
{
name = top;
position = "{365, 700}";
}
);
layerId = "5DA6E103-6A94-47F2-987D-4952DB8EA68E";
paths = (
{
closed = 1;
nodes = (
"293 0 LINE",
"293 273 LINE",
"188 176 LINE",
"394 176 LINE SMOOTH",
"589 176 OFFCURVE",
"713 274 OFFCURVE",
"713 436 CURVE SMOOTH",
"713 598 OFFCURVE",
"599 700 OFFCURVE",
"384 700 CURVE SMOOTH",
"57 700 LINE",
"57 0 LINE"
);
},
{
closed = 1;
nodes = (
"728 0 LINE",
"554 255 LINE",
"304 255 LINE",
"476 0 LINE"
);
},
{
closed = 1;
nodes = (
"293 625 LINE",
"188 518 LINE",
"379 518 LINE SMOOTH",
"444 518 OFFCURVE",
"475 487 OFFCURVE",
"475 436 CURVE SMOOTH",
"475 385 OFFCURVE",
"444 354 OFFCURVE",
"379 354 CURVE SMOOTH",
"188 354 LINE",
"293 247 LINE"
);
}
);
width = 745;
},
{
anchors = (
{
name = bottom;
position = "{367, 0}";
},
{
name = top;
position = "{367, 700}";
}
);
layerId = "708134FE-A11E-43C9-84F0-594DA15B6BD1";
paths = (
{
closed = 1;
nodes = (
"214 0 LINE",
"214 261 LINE",
"163 208 LINE",
"380 208 LINE SMOOTH",
"563 208 OFFCURVE",
"675 300 OFFCURVE",
"675 453 CURVE SMOOTH",
"675 607 OFFCURVE",
"563 700 OFFCURVE",
"380 700 CURVE SMOOTH",
"100 700 LINE",
"100 0 LINE"
);
},
{
closed = 1;
nodes = (
"687 0 LINE",
"508 254 LINE",
"385 254 LINE",
"563 0 LINE"
);
},
{
closed = 1;
nodes = (
"214 658 LINE",
"163 601 LINE",
"376 601 LINE SMOOTH",
"497 601 OFFCURVE",
"560 547 OFFCURVE",
"560 453 CURVE SMOOTH",
"560 360 OFFCURVE",
"497 305 OFFCURVE",
"376 305 CURVE SMOOTH",
"163 305 LINE",
"214 249 LINE"
);
}
);
width = 729;
}
);
leftKerningGroup = H;
leftMetricsKey = H;
rightKerningGroup = R;
unicode = 0052;
},
{
color = 3;
glyphname = Rstroke;
layers = (
{
anchors = (
{
name = bottom;
position = "{366, 0}";
},
{
name = top;
position = "{366, 700}";
}
);
layerId = UUID0;
paths = (
{
closed = 1;
nodes = (
"153 0 LINE",
"153 249 LINE",
"144 240 LINE",
"370 240 LINE SMOOTH",
"542 240 OFFCURVE",
"645 325 OFFCURVE",
"645 470 CURVE SMOOTH",
"645 615 OFFCURVE",
"542 700 OFFCURVE",
"370 700 CURVE SMOOTH",
"133 700 LINE",
"133 0 LINE"
);
},
{
closed = 1;
nodes = (
"655 0 LINE",
"472 254 LINE",
"447 254 LINE",
"630 0 LINE"
);
},
{
closed = 1;
nodes = (
"153 689 LINE",
"144 681 LINE",
"372 681 LINE SMOOTH",
"536 681 OFFCURVE",
"625 604 OFFCURVE",
"625 470 CURVE SMOOTH",
"625 336 OFFCURVE",
"536 259 OFFCURVE",
"372 259 CURVE SMOOTH",
"144 259 LINE",
"153 251 LINE"
);
},
{
closed = 1;
nodes = (
"325 240 LINE",
"325 259 LINE",
"13 259 LINE",
"13 240 LINE"
);
}
);
width = 716;
},
{
anchors = (
{
name = bottom;
position = "{367, 0}";
},
{
name = top;
position = "{367, 700}";
}
);
layerId = "708134FE-A11E-43C9-84F0-594DA15B6BD1";
paths = (
{
closed = 1;
nodes = (
"214 0 LINE",
"214 261 LINE",
"163 208 LINE",
"380 208 LINE SMOOTH",
"563 208 OFFCURVE",
"675 300 OFFCURVE",
"675 453 CURVE SMOOTH",
"675 607 OFFCURVE",
"563 700 OFFCURVE",
"380 700 CURVE SMOOTH",
"100 700 LINE",
"100 0 LINE"
);
},
{
closed = 1;
nodes = (
"687 0 LINE",
"508 254 LINE",
"385 254 LINE",
"563 0 LINE"
);
},
{
closed = 1;
nodes = (
"214 658 LINE",
"163 601 LINE",
"376 601 LINE SMOOTH",
"497 601 OFFCURVE",
"560 547 OFFCURVE",
"560 453 CURVE SMOOTH",
"560 360 OFFCURVE",
"497 305 OFFCURVE",
"376 305 CURVE SMOOTH",
"163 305 LINE",
"214 249 LINE"
);
},
{
closed = 1;
nodes = (
"330 215 LINE",
"330 305 LINE",
"0 305 LINE",
"0 215 LINE"
);
}
);
width = 729;
},
{
anchors = (
{
name = bottom;
position = "{365, 0}";
},
{
name = top;
position = "{365, 700}";
}
);
layerId = "5DA6E103-6A94-47F2-987D-4952DB8EA68E";
paths = (
{
closed = 1;
nodes = (
"293 0 LINE",
"293 273 LINE",
"188 176 LINE",
"394 176 LINE SMOOTH",
"589 176 OFFCURVE",
"713 274 OFFCURVE",
"713 436 CURVE SMOOTH",
"713 598 OFFCURVE",
"599 700 OFFCURVE",
"384 700 CURVE SMOOTH",
"57 700 LINE",
"57 0 LINE"
);
},
{
closed = 1;
nodes = (
"728 0 LINE",
"554 255 LINE",
"304 255 LINE",
"476 0 LINE"
);
},
{
closed = 1;
nodes = (
"293 625 LINE",
"188 518 LINE",
"379 518 LINE SMOOTH",
"444 518 OFFCURVE",
"475 487 OFFCURVE",
"475 436 CURVE SMOOTH",
"475 385 OFFCURVE",
"444 354 OFFCURVE",
"379 354 CURVE SMOOTH",
"188 354 LINE",
"293 247 LINE"
);
},
{
closed = 1;
nodes = (
"401 218 LINE",
"401 354 LINE",
"-13 354 LINE",
"-13 218 LINE"
);
}
);
width = 745;
}
);
leftKerningGroup = Lbar;
rightKerningGroup = R;
unicode = 024C;
},
{
color = 3;
glyphname = Rtail;
layers = (
{
anchors = (
{
name = bottom;
position = "{380, 0}";
},
{
name = top;
position = "{380, 700}";
}
);
layerId = UUID0;
paths = (
{
closed = 1;
nodes = (
"359 -144 LINE",
"287 -205 OFFCURVE",
"167 -187 OFFCURVE",
"167 -58 CURVE SMOOTH",
"167 249 LINE",
"158 240 LINE",
"384 240 LINE SMOOTH",
"556 240 OFFCURVE",
"659 325 OFFCURVE",
"659 470 CURVE SMOOTH",
"659 615 OFFCURVE",
"556 700 OFFCURVE",
"384 700 CURVE SMOOTH",
"147 700 LINE",
"147 -58 LINE SMOOTH",
"147 -210 OFFCURVE",
"294 -227 OFFCURVE",
"371 -159 CURVE"
);
},
{
closed = 1;
nodes = (
"669 0 LINE",
"486 254 LINE",
"461 254 LINE",
"644 0 LINE"
);
},
{
closed = 1;
nodes = (
"167 689 LINE",
"158 681 LINE",
"386 681 LINE SMOOTH",
"550 681 OFFCURVE",
"639 604 OFFCURVE",
"639 470 CURVE SMOOTH",
"639 336 OFFCURVE",
"550 259 OFFCURVE",
"386 259 CURVE SMOOTH",
"158 259 LINE",
"167 251 LINE"
);
}
);
width = 754;
},
{
anchors = (
{
name = bottom;
position = "{384, 0}";
},
{
name = top;
position = "{384, 700}";
}
);
layerId = "708134FE-A11E-43C9-84F0-594DA15B6BD1";
paths = (
{
closed = 1;
nodes = (
"367 -81 LINE",
"303 -121 OFFCURVE",
"226 -105 OFFCURVE",
"226 -28 CURVE SMOOTH",
"226 261 LINE",
"175 208 LINE",
"392 208 LINE SMOOTH",
"575 208 OFFCURVE",
"687 300 OFFCURVE",
"687 453 CURVE SMOOTH",
"687 607 OFFCURVE",
"575 700 OFFCURVE",
"392 700 CURVE SMOOTH",
"112 700 LINE",
"112 -32 LINE SMOOTH",
"112 -200 OFFCURVE",
"286 -239 OFFCURVE",
"405 -166 CURVE"
);
},
{
closed = 1;
nodes = (
"699 0 LINE",
"520 254 LINE",
"397 254 LINE",
"575 0 LINE"
);
},
{
closed = 1;
nodes = (
"226 658 LINE",
"175 601 LINE",
"388 601 LINE SMOOTH",
"509 601 OFFCURVE",
"572 547 OFFCURVE",
"572 453 CURVE SMOOTH",
"572 360 OFFCURVE",
"509 305 OFFCURVE",
"388 305 CURVE SMOOTH",
"175 305 LINE",
"226 249 LINE"
);
}
);
width = 753;
},
{
anchors = (
{
name = bottom;
position = "{388, 0}";
},
{
name = top;
position = "{388, 700}";
}
);
layerId = "5DA6E103-6A94-47F2-987D-4952DB8EA68E";
paths = (
{
closed = 1;
nodes = (
"408 -17 LINE",
"351 -47 OFFCURVE",
"302 -34 OFFCURVE",
"302 17 CURVE SMOOTH",
"302 223 LINE",
"257 176 LINE",
"403 176 LINE SMOOTH",
"598 176 OFFCURVE",
"722 274 OFFCURVE",
"722 436 CURVE SMOOTH",
"722 598 OFFCURVE",
"598 700 OFFCURVE",
"403 700 CURVE SMOOTH",
"66 700 LINE",
"66 17 LINE SMOOTH",
"66 -206 OFFCURVE",
"287 -251 OFFCURVE",
"463 -174 CURVE"
);
},
{
closed = 1;
nodes = (
"737 0 LINE",
"563 255 LINE",
"313 255 LINE",
"485 0 LINE"
);
},
{
closed = 1;
nodes = (
"302 575 LINE",
"257 518 LINE",
"388 518 LINE SMOOTH",
"453 518 OFFCURVE",
"484 487 OFFCURVE",
"484 436 CURVE SMOOTH",
"484 385 OFFCURVE",
"453 354 OFFCURVE",
"388 354 CURVE SMOOTH",
"257 354 LINE",
"302 297 LINE"
);
}
);
width = 759;
}
);
leftKerningGroup = H;
rightKerningGroup = R;
unicode = 2C64;
},
{
glyphname = S;
layers = (
{
anchors = (
{
name = bottom;
position = "{318, 0}";
},
{
name = center;
position = "{318, 350}";
},
{
name = top;
position = "{318, 700}";
}
);
layerId = UUID0;
paths = (
{
closed = 1;
nodes = (
"470 -3 OFFCURVE",
"543 79 OFFCURVE",
"543 172 CURVE SMOOTH",
"543 425 OFFCURVE",
"98 290 OFFCURVE",
"98 526 CURVE SMOOTH",
"98 613 OFFCURVE",
"166 684 OFFCURVE",
"313 684 CURVE SMOOTH",
"376 684 OFFCURVE",
"448 664 OFFCURVE",
"504 623 CURVE",
"515 639 LINE",
"464 678 OFFCURVE",
"387 703 OFFCURVE",
"312 703 CURVE SMOOTH",
"148 703 OFFCURVE",
"78 619 OFFCURVE",
"78 527 CURVE SMOOTH",
"78 269 OFFCURVE",
"523 407 OFFCURVE",
"523 172 CURVE SMOOTH",
"523 86 OFFCURVE",
"455 16 OFFCURVE",
"303 16 CURVE SMOOTH",
"205 16 OFFCURVE",
"116 57 OFFCURVE",
"72 109 CURVE",
"58 96 LINE",
"105 38 OFFCURVE",
"202 -3 OFFCURVE",
"304 -3 CURVE SMOOTH"
);
}
);
width = 601;
},
{
anchors = (
{
name = bottom;
position = "{329, 0}";
},
{
name = center;
position = "{329, 350}";
},
{
name = top;
position = "{329, 700}";
}
);
layerId = "5DA6E103-6A94-47F2-987D-4952DB8EA68E";
paths = (
{
closed = 1;
nodes = (
"535 -16 OFFCURVE",
"644 92 OFFCURVE",
"644 220 CURVE SMOOTH",
"644 478 OFFCURVE",
"257 408 OFFCURVE",
"257 492 CURVE SMOOTH",
"257 516 OFFCURVE",
"279 536 OFFCURVE",
"348 536 CURVE SMOOTH",
"409 536 OFFCURVE",
"474 519 OFFCURVE",
"543 484 CURVE",
"614 655 LINE",
"541 696 OFFCURVE",
"444 716 OFFCURVE",
"350 716 CURVE SMOOTH",
"133 716 OFFCURVE",
"24 610 OFFCURVE",
"24 480 CURVE SMOOTH",
"24 219 OFFCURVE",
"411 290 OFFCURVE",
"411 202 CURVE SMOOTH",
"411 178 OFFCURVE",
"387 164 OFFCURVE",
"320 164 CURVE SMOOTH",
"243 164 OFFCURVE",
"155 189 OFFCURVE",
"89 228 CURVE",
"13 56 LINE",
"83 13 OFFCURVE",
"201 -16 OFFCURVE",
"318 -16 CURVE SMOOTH"
);
}
);
width = 657;
},
{
anchors = (
{
name = bottom;
position = "{323, 0}";
},
{
name = center;
position = "{323, 350}";
},
{
name = top;
position = "{323, 700}";
}
);
layerId = "708134FE-A11E-43C9-84F0-594DA15B6BD1";
paths = (
{
closed = 1;
nodes = (
"498 -9 OFFCURVE",
"587 85 OFFCURVE",
"587 195 CURVE SMOOTH",
"587 452 OFFCURVE",
"167 350 OFFCURVE",
"167 509 CURVE SMOOTH",
"167 566 OFFCURVE",
"215 612 OFFCURVE",
"328 612 CURVE SMOOTH",
"390 612 OFFCURVE",
"459 594 OFFCURVE",
"521 556 CURVE",
"558 647 LINE",
"498 687 OFFCURVE",
"412 709 OFFCURVE",
"329 709 CURVE SMOOTH",
"141 709 OFFCURVE",
"54 615 OFFCURVE",
"54 504 CURVE SMOOTH",
"54 244 OFFCURVE",
"474 347 OFFCURVE",
"474 187 CURVE SMOOTH",
"474 131 OFFCURVE",
"425 88 OFFCURVE",
"310 88 CURVE SMOOTH",
"222 88 OFFCURVE",
"133 121 OFFCURVE",
"79 167 CURVE",
"38 77 LINE",
"95 26 OFFCURVE",
"202 -9 OFFCURVE",
"310 -9 CURVE SMOOTH"
);
}
);
width = 625;
}
);
leftKerningGroup = S;
rightKerningGroup = S;
unicode = 0053;
},
{
glyphname = Germandbls;
layers = (
{
layerId = UUID0;
paths = (
{
closed = 1;
nodes = (
"589 -3 OFFCURVE",
"677 65 OFFCURVE",
"677 193 CURVE SMOOTH",
"677 321 OFFCURVE",
"588 388 OFFCURVE",
"454 388 CURVE SMOOTH",
"426 388 OFFCURVE",
"398 385 OFFCURVE",
"374 377 CURVE",
"375 367 LINE",
"616 615 LINE",
"616 631 LINE",
"560 680 OFFCURVE",
"484 703 OFFCURVE",
"402 703 CURVE SMOOTH",
"228 703 OFFCURVE",
"127 597 OFFCURVE",
"127 424 CURVE SMOOTH",
"127 0 LINE",
"147 0 LINE",
"147 422 LINE SMOOTH",
"147 591 OFFCURVE",
"237 684 OFFCURVE",
"404 684 CURVE SMOOTH",
"479 684 OFFCURVE",
"551 665 OFFCURVE",
"603 618 CURVE",
"606 630 LINE",
"356 373 LINE",
"363 357 LINE",
"389 365 OFFCURVE",
"422 369 OFFCURVE",
"454 369 CURVE SMOOTH",
"576 369 OFFCURVE",
"657 310 OFFCURVE",
"657 193 CURVE SMOOTH",
"657 77 OFFCURVE",
"578 16 OFFCURVE",
"458 16 CURVE SMOOTH",
"408 16 OFFCURVE",
"365 25 OFFCURVE",
"327 44 CURVE",
"319 25 LINE",
"361 6 OFFCURVE",
"401 -3 OFFCURVE",
"452 -3 CURVE SMOOTH"
);
}
);
width = 742;
},
{
guideLines = (
{
angle = 49.4672;
position = "{308, 308}";
}
);
layerId = "5DA6E103-6A94-47F2-987D-4952DB8EA68E";
paths = (
{
closed = 1;
nodes = (
"647 -16 OFFCURVE",
"772 68 OFFCURVE",
"772 211 CURVE SMOOTH",
"772 354 OFFCURVE",
"645 438 OFFCURVE",
"507 438 CURVE SMOOTH",
"478 438 OFFCURVE",
"454 435 OFFCURVE",
"433 430 CURVE",
"521 308 LINE",
"698 515 LINE",
"698 650 LINE",
"631 692 OFFCURVE",
"519 716 OFFCURVE",
"431 716 CURVE SMOOTH",
"187 716 OFFCURVE",
"51 586 OFFCURVE",
"51 379 CURVE SMOOTH",
"51 0 LINE",
"287 0 LINE",
"287 374 LINE SMOOTH",
"287 476 OFFCURVE",
"336 536 OFFCURVE",
"434 536 CURVE SMOOTH",
"500 536 OFFCURVE",
"551 517 OFFCURVE",
"603 487 CURVE",
"588 635 LINE",
"355 363 LINE",
"395 268 LINE",
"412 274 OFFCURVE",
"434 278 OFFCURVE",
"457 278 CURVE SMOOTH",
"509 278 OFFCURVE",
"534 258 OFFCURVE",
"534 221 CURVE SMOOTH",
"534 184 OFFCURVE",
"509 164 OFFCURVE",
"454 164 CURVE SMOOTH",
"427 164 OFFCURVE",
"393 172 OFFCURVE",
"369 183 CURVE",
"337 7 LINE",
"378 -8 OFFCURVE",
"428 -16 OFFCURVE",
"494 -16 CURVE SMOOTH"
);
}
);
width = 798;
},
{
layerId = "708134FE-A11E-43C9-84F0-594DA15B6BD1";
paths = (
{
closed = 1;
nodes = (
"616 -9 OFFCURVE",
"719 66 OFFCURVE",
"719 202 CURVE SMOOTH",
"719 340 OFFCURVE",
"613 415 OFFCURVE",
"477 415 CURVE SMOOTH",
"449 415 OFFCURVE",
"422 412 OFFCURVE",
"400 406 CURVE",
"449 339 LINE",
"652 567 LINE",
"652 641 LINE",
"591 686 OFFCURVE",
"500 709 OFFCURVE",
"412 709 CURVE SMOOTH",
"211 709 OFFCURVE",
"94 591 OFFCURVE",
"94 401 CURVE SMOOTH",
"94 0 LINE",
"208 0 LINE",
"208 398 LINE SMOOTH",
"208 535 OFFCURVE",
"280 612 OFFCURVE",
"419 612 CURVE SMOOTH",
"488 612 OFFCURVE",
"551 593 OFFCURVE",
"603 555 CURVE",
"588 633 LINE",
"356 369 LINE",
"377 315 LINE",
"399 322 OFFCURVE",
"430 326 OFFCURVE",
"458 326 CURVE SMOOTH",
"547 326 OFFCURVE",
"603 285 OFFCURVE",
"603 207 CURVE SMOOTH",
"603 128 OFFCURVE",
"548 88 OFFCURVE",
"459 88 CURVE SMOOTH",
"416 88 OFFCURVE",
"377 96 OFFCURVE",
"345 111 CURVE",
"327 16 LINE",
"368 -1 OFFCURVE",
"416 -9 OFFCURVE",
"466 -9 CURVE SMOOTH"
);
}
);
width = 767;
}
);
leftKerningGroup = A.ss01;
leftMetricsKey = "=|U";
rightKerningGroup = B;
rightMetricsKey = B;
unicode = 1E9E;
},
{
color = 3;
glyphname = Sobliquestroke;
layers = (
{
anchors = (
{
name = bottom;
position = "{318, 0}";
},
{
name = top;
position = "{318, 700}";
}
);
layerId = UUID0;
paths = (
{
closed = 1;
nodes = (
"470 -3 OFFCURVE",
"543 79 OFFCURVE",
"543 172 CURVE SMOOTH",
"543 425 OFFCURVE",
"98 290 OFFCURVE",
"98 526 CURVE SMOOTH",
"98 613 OFFCURVE",
"166 684 OFFCURVE",
"313 684 CURVE SMOOTH",
"376 684 OFFCURVE",
"448 664 OFFCURVE",
"504 623 CURVE",
"515 639 LINE",
"464 678 OFFCURVE",
"387 703 OFFCURVE",
"312 703 CURVE SMOOTH",
"148 703 OFFCURVE",
"78 619 OFFCURVE",
"78 527 CURVE SMOOTH",
"78 269 OFFCURVE",
"523 407 OFFCURVE",
"523 172 CURVE SMOOTH",
"523 86 OFFCURVE",
"455 16 OFFCURVE",
"303 16 CURVE SMOOTH",
"205 16 OFFCURVE",
"116 57 OFFCURVE",
"72 109 CURVE",
"58 96 LINE",
"105 38 OFFCURVE",
"202 -3 OFFCURVE",
"304 -3 CURVE SMOOTH"
);
},
{
closed = 1;
nodes = (
"386 484 LINE",
"369 495 LINE",
"190 221 LINE",
"206 211 LINE"
);
}
);
width = 601;
},
{
anchors = (
{
name = bottom;
position = "{321, 0}";
},
{
name = top;
position = "{321, 700}";
}
);
layerId = "708134FE-A11E-43C9-84F0-594DA15B6BD1";
paths = (
{
closed = 1;
nodes = (
"498 -9 OFFCURVE",
"587 85 OFFCURVE",
"587 195 CURVE SMOOTH",
"587 452 OFFCURVE",
"167 350 OFFCURVE",
"167 509 CURVE SMOOTH",
"167 566 OFFCURVE",
"215 612 OFFCURVE",
"328 612 CURVE SMOOTH",
"390 612 OFFCURVE",
"459 594 OFFCURVE",
"521 556 CURVE",
"558 647 LINE",
"498 687 OFFCURVE",
"412 709 OFFCURVE",
"329 709 CURVE SMOOTH",
"141 709 OFFCURVE",
"54 615 OFFCURVE",
"54 504 CURVE SMOOTH",
"54 244 OFFCURVE",
"474 347 OFFCURVE",
"474 187 CURVE SMOOTH",
"474 131 OFFCURVE",
"425 88 OFFCURVE",
"310 88 CURVE SMOOTH",
"222 88 OFFCURVE",
"133 121 OFFCURVE",
"79 167 CURVE",
"38 77 LINE",
"95 26 OFFCURVE",
"202 -9 OFFCURVE",
"310 -9 CURVE SMOOTH"
);
},
{
closed = 1;
nodes = (
"414 493 LINE",
"342 527 LINE",
"185 203 LINE",
"257 167 LINE"
);
}
);
width = 625;
},
{
anchors = (
{
name = bottom;
position = "{325, 0}";
},
{
name = top;
position = "{325, 700}";
}
);
layerId = "5DA6E103-6A94-47F2-987D-4952DB8EA68E";
paths = (
{
closed = 1;
nodes = (
"527 -15 OFFCURVE",
"634 91 OFFCURVE",
"634 217 CURVE SMOOTH",
"634 475 OFFCURVE",
"242 401 OFFCURVE",
"242 494 CURVE SMOOTH",
"242 523 OFFCURVE",
"268 546 OFFCURVE",
"343 546 CURVE SMOOTH",
"405 546 OFFCURVE",
"470 528 OFFCURVE",
"537 493 CURVE",
"604 654 LINE",
"534 694 OFFCURVE",
"439 715 OFFCURVE",
"344 715 CURVE SMOOTH",
"131 715 OFFCURVE",
"25 610 OFFCURVE",
"25 483 CURVE SMOOTH",
"25 222 OFFCURVE",
"416 297 OFFCURVE",
"416 200 CURVE SMOOTH",
"416 172 OFFCURVE",
"389 154 OFFCURVE",
"316 154 CURVE SMOOTH",
"236 154 OFFCURVE",
"148 181 OFFCURVE",
"85 220 CURVE",
"13 59 LINE",
"84 13 OFFCURVE",
"203 -15 OFFCURVE",
"314 -15 CURVE SMOOTH"
);
},
{
closed = 1;
nodes = (
"449 483 LINE",
"352 533 LINE",
"169 228 LINE",
"269 171 LINE"
);
}
);
width = 647;
}
);
leftKerningGroup = S;
leftMetricsKey = S;
rightKerningGroup = S;
rightMetricsKey = S;
unicode = A7A8;
},
{
glyphname = T;
layers = (
{
anchors = (
{
name = bottom;
position = "{274, 0}";
},
{
name = center;
position = "{274, 355}";
},
{
name = top;
position = "{274, 700}";
}
);
layerId = UUID0;
paths = (
{
closed = 1;
nodes = (
"284 0 LINE",
"284 681 LINE",
"544 681 LINE",
"544 700 LINE",
"4 700 LINE",
"4 681 LINE",
"264 681 LINE",
"264 0 LINE"
);
}
);
width = 548;
},
{
anchors = (
{
name = bottom;
position = "{327, 0}";
},
{
name = center;
position = "{327, 340}";
},
{
name = top;
position = "{327, 700}";
}
);
layerId = "5DA6E103-6A94-47F2-987D-4952DB8EA68E";
paths = (
{
closed = 1;
nodes = (
"445 0 LINE",
"445 517 LINE",
"650 517 LINE",
"650 700 LINE",
"4 700 LINE",
"4 517 LINE",
"209 517 LINE",
"209 0 LINE"
);
}
);
width = 654;
},
{
anchors = (
{
name = bottom;
position = "{297, 0}";
},
{
name = center;
position = "{297, 359}";
},
{
name = top;
position = "{297, 700}";
}
);
layerId = "708134FE-A11E-43C9-84F0-594DA15B6BD1";
paths = (
{
closed = 1;
nodes = (
"354 0 LINE",
"354 601 LINE",
"590 601 LINE",
"590 700 LINE",
"4 700 LINE",
"4 601 LINE",
"240 601 LINE",
"240 0 LINE"
);
}
);
width = 594;
}
);
leftKerningGroup = T;
rightKerningGroup = T;
rightMetricsKey = "=|";
unicode = 0054;
},
{
glyphname = Tbar;
layers = (
{
anchors = (
{
name = bottom;
position = "{274, 0}";
},
{
name = center;
position = "{274, 355}";
},
{
name = top;
position = "{274, 700}";
}
);
layerId = UUID0;
paths = (
{
closed = 1;
nodes = (
"284 0 LINE",
"284 681 LINE",
"544 681 LINE",
"544 700 LINE",
"4 700 LINE",
"4 681 LINE",
"264 681 LINE",
"264 0 LINE"
);
},
{
closed = 1;
nodes = (
"454 345 LINE",
"454 364 LINE",
"94 364 LINE",
"94 345 LINE"
);
}
);
width = 548;
},
{
anchors = (
{
name = bottom;
position = "{327, 0}";
},
{
name = center;
position = "{327, 340}";
},
{
name = top;
position = "{327, 700}";
}
);
layerId = "5DA6E103-6A94-47F2-987D-4952DB8EA68E";
paths = (
{
closed = 1;
nodes = (
"445 0 LINE",
"445 517 LINE",
"650 517 LINE",
"650 700 LINE",
"4 700 LINE",
"4 517 LINE",
"209 517 LINE",
"209 0 LINE"
);
},
{
closed = 1;
nodes = (
"550 246 LINE",
"550 382 LINE",
"103 382 LINE",
"103 246 LINE"
);
}
);
width = 654;
},
{
anchors = (
{
name = bottom;
position = "{297, 0}";
},
{
name = center;
position = "{297, 359}";
},
{
name = top;
position = "{297, 700}";
}
);
layerId = "708134FE-A11E-43C9-84F0-594DA15B6BD1";
paths = (
{
closed = 1;
nodes = (
"354 0 LINE",
"354 601 LINE",
"590 601 LINE",
"590 700 LINE",
"4 700 LINE",
"4 601 LINE",
"240 601 LINE",
"240 0 LINE"
);
},
{
closed = 1;
nodes = (
"504 314 LINE",
"504 404 LINE",
"90 404 LINE",
"90 314 LINE"
);
}
);
width = 594;
}
);
leftKerningGroup = T;
rightKerningGroup = T;
unicode = 0166;
},
{
color = 3;
glyphname = Tdiagonalstroke;
layers = (
{
anchors = (
{
name = bottom;
position = "{274, 0}";
},
{
name = center;
position = "{274, 356}";
},
{
name = top;
position = "{274, 700}";
}
);
layerId = UUID0;
paths = (
{
closed = 1;
nodes = (
"284 0 LINE",
"284 681 LINE",
"544 681 LINE",
"544 700 LINE",
"4 700 LINE",
"4 681 LINE",
"264 681 LINE",
"264 0 LINE"
);
},
{
closed = 1;
nodes = (
"92 -70 LINE",
"482 770 LINE",
"462 770 LINE",
"72 -70 LINE"
);
}
);
width = 548;
},
{
anchors = (
{
name = bottom;
position = "{296, 0}";
},
{
name = center;
position = "{296, 338}";
},
{
name = top;
position = "{296, 700}";
}
);
layerId = "708134FE-A11E-43C9-84F0-594DA15B6BD1";
paths = (
{
closed = 1;
nodes = (
"350 0 LINE",
"350 601 LINE",
"586 601 LINE",
"586 700 LINE",
"4 700 LINE",
"4 601 LINE",
"240 601 LINE",
"240 0 LINE"
);
},
{
closed = 1;
nodes = (
"191 -70 LINE",
"568 770 LINE",
"478 770 LINE",
"101 -70 LINE"
);
}
);
width = 590;
},
{
anchors = (
{
name = bottom;
position = "{327, 0}";
},
{
name = center;
position = "{327, 315}";
},
{
name = top;
position = "{327, 700}";
}
);
layerId = "5DA6E103-6A94-47F2-987D-4952DB8EA68E";
paths = (
{
closed = 1;
nodes = (
"435 0 LINE",
"435 517 LINE",
"650 517 LINE",
"650 700 LINE",
"4 700 LINE",
"4 517 LINE",
"219 517 LINE",
"219 0 LINE"
);
},
{
closed = 1;
nodes = (
"229 -70 LINE",
"625 770 LINE",
"511 770 LINE",
"115 -70 LINE"
);
}
);
width = 654;
},
{
anchors = (
{
name = bottom;
position = "{274, 0}";
},
{
name = center;
position = "{274, 356}";
},
{
name = top;
position = "{274, 700}";
}
);
associatedMasterId = UUID0;
layerId = "DD082E1A-119A-4562-8F96-B59BF1B6678C";
name = "[155]";
paths = (
{
closed = 1;
nodes = (
"284 0 LINE",
"284 681 LINE",
"544 681 LINE",
"544 700 LINE",
"4 700 LINE",
"4 681 LINE",
"264 681 LINE",
"264 0 LINE"
);
},
{
closed = 1;
nodes = (
"445 691 LINE",
"482 770 LINE",
"462 770 LINE",
"425 691 LINE"
);
},
{
closed = 1;
nodes = (
"273 362 LINE",
"72 -70 LINE",
"92 -70 LINE",
"273 319 LINE"
);
}
);
width = 548;
},
{
anchors = (
{
name = bottom;
position = "{296, 0}";
},
{
name = center;
position = "{296, 338}";
},
{
name = top;
position = "{296, 700}";
}
);
associatedMasterId = "708134FE-A11E-43C9-84F0-594DA15B6BD1";
background = {
components = (
{
name = T;
transform = "{1, 0, 0, 1, -2, 0}";
}
);
};
layerId = "EBD5E91A-0A62-4662-A9E9-0367C3A9EB73";
name = "[155]";
paths = (
{
closed = 1;
nodes = (
"350 0 LINE",
"350 601 LINE",
"586 601 LINE",
"586 700 LINE",
"4 700 LINE",
"4 601 LINE",
"240 601 LINE",
"240 0 LINE"
);
},
{
closed = 1;
nodes = (
"515 651 LINE",
"568 770 LINE",
"478 770 LINE",
"425 651 LINE"
);
},
{
closed = 1;
nodes = (
"294 361 LINE",
"101 -70 LINE",
"191 -70 LINE",
"294 160 LINE"
);
}
);
width = 590;
},
{
anchors = (
{
name = bottom;
position = "{327, 0}";
},
{
name = center;
position = "{327, 315}";
},
{
name = top;
position = "{327, 700}";
}
);
associatedMasterId = "5DA6E103-6A94-47F2-987D-4952DB8EA68E";
background = {
components = (
{
name = T;
}
);
};
layerId = "C6D1BE93-3D8C-4AC1-AB04-0097EDE1CCCB";
name = "[155]";
paths = (
{
closed = 1;
nodes = (
"435 0 LINE",
"435 517 LINE",
"650 517 LINE",
"650 700 LINE",
"4 700 LINE",
"4 517 LINE",
"219 517 LINE",
"219 0 LINE"
);
},
{
closed = 1;
nodes = (
"556 625 LINE",
"625 770 LINE",
"511 770 LINE",
"442 625 LINE"
);
},
{
closed = 1;
nodes = (
"324 374 LINE",
"115 -70 LINE",
"229 -70 LINE",
"324 132 LINE"
);
}
);
width = 654;
}
);
leftKerningGroup = T;
leftMetricsKey = T;
rightKerningGroup = T;
rightMetricsKey = T;
unicode = 023E;
},
{
color = 3;
glyphname = Thook;
layers = (
{
layerId = UUID0;
paths = (
{
closed = 1;
nodes = (
"329 0 LINE",
"329 690 LINE",
"320 681 LINE",
"589 681 LINE",
"589 700 LINE",
"207 700 LINE SMOOTH",
"27 700 OFFCURVE",
"1 548 OFFCURVE",
"84 445 CURVE",
"97 456 LINE",
"24 559 OFFCURVE",
"53 681 OFFCURVE",
"206 681 CURVE SMOOTH",
"318 681 LINE",
"309 690 LINE",
"309 0 LINE"
);
}
);
width = 593;
},
{
layerId = "708134FE-A11E-43C9-84F0-594DA15B6BD1";
paths = (
{
closed = 1;
nodes = (
"432 0 LINE",
"432 621 LINE",
"411 601 LINE",
"668 601 LINE",
"668 700 LINE",
"206 700 LINE SMOOTH",
"6 700 OFFCURVE",
"-16 486 OFFCURVE",
"104 373 CURVE",
"178 426 LINE",
"107 493 OFFCURVE",
"111 601 OFFCURVE",
"206 601 CURVE SMOOTH",
"341 601 LINE",
"318 621 LINE",
"318 0 LINE"
);
}
);
width = 672;
},
{
layerId = "5DA6E103-6A94-47F2-987D-4952DB8EA68E";
paths = (
{
closed = 1;
nodes = (
"573 0 LINE",
"573 553 LINE",
"517 517 LINE",
"778 517 LINE",
"778 700 LINE",
"269 700 LINE SMOOTH",
"11 700 OFFCURVE",
"-44 467 OFFCURVE",
"62 317 CURVE",
"232 393 LINE",
"194 461 OFFCURVE",
"206 517 OFFCURVE",
"265 517 CURVE SMOOTH",
"383 517 LINE",
"337 553 LINE",
"337 0 LINE"
);
}
);
width = 782;
}
);
leftKerningGroup = Hhook;
leftMetricsKey = Hhook;
rightKerningGroup = T;
rightMetricsKey = T;
unicode = 01AC;
},
{
color = 3;
glyphname = Tretroflexhook;
layers = (
{
anchors = (
{
name = bottom;
position = "{274, 0}";
},
{
name = center;
position = "{274, 356}";
},
{
name = top;
position = "{274, 700}";
}
);
layerId = UUID0;
paths = (
{
closed = 1;
nodes = (
"476 -144 LINE",
"404 -205 OFFCURVE",
"284 -187 OFFCURVE",
"284 -58 CURVE SMOOTH",
"284 686 LINE",
"264 686 LINE",
"264 -58 LINE SMOOTH",
"264 -210 OFFCURVE",
"411 -227 OFFCURVE",
"488 -159 CURVE"
);
},
{
closed = 1;
nodes = (
"544 681 LINE",
"544 700 LINE",
"4 700 LINE",
"4 681 LINE"
);
}
);
width = 548;
},
{
anchors = (
{
name = bottom;
position = "{297, 0}";
},
{
name = center;
position = "{297, 336}";
},
{
name = top;
position = "{297, 700}";
}
);
layerId = "708134FE-A11E-43C9-84F0-594DA15B6BD1";
paths = (
{
closed = 1;
nodes = (
"495 -81 LINE",
"431 -121 OFFCURVE",
"354 -105 OFFCURVE",
"354 -27 CURVE SMOOTH",
"354 617 LINE",
"240 617 LINE",
"240 -31 LINE SMOOTH",
"240 -200 OFFCURVE",
"414 -239 OFFCURVE",
"533 -166 CURVE"
);
},
{
closed = 1;
nodes = (
"590 601 LINE",
"590 700 LINE",
"4 700 LINE",
"4 601 LINE"
);
}
);
width = 594;
},
{
anchors = (
{
name = bottom;
position = "{327, 0}";
},
{
name = center;
position = "{327, 315}";
},
{
name = top;
position = "{327, 700}";
}
);
layerId = "5DA6E103-6A94-47F2-987D-4952DB8EA68E";
paths = (
{
closed = 1;
nodes = (
"551 -16 LINE",
"494 -46 OFFCURVE",
"445 -33 OFFCURVE",
"445 18 CURVE SMOOTH",
"445 547 LINE",
"209 547 LINE",
"209 18 LINE SMOOTH",
"209 -205 OFFCURVE",
"430 -250 OFFCURVE",
"606 -173 CURVE"
);
},
{
closed = 1;
nodes = (
"650 517 LINE",
"650 700 LINE",
"4 700 LINE",
"4 517 LINE"
);
}
);
width = 654;
}
);
leftKerningGroup = T;
leftMetricsKey = T;
rightKerningGroup = T;
rightMetricsKey = T;
unicode = 01AE;
},
{
color = 3;
glyphname = Tturned;
layers = (
{
layerId = UUID0;
paths = (
{
closed = 1;
nodes = (
"264 700 LINE",
"264 19 LINE",
"4 19 LINE",
"4 0 LINE",
"544 0 LINE",
"544 19 LINE",
"284 19 LINE",
"284 700 LINE"
);
}
);
width = 548;
},
{
layerId = "708134FE-A11E-43C9-84F0-594DA15B6BD1";
paths = (
{
closed = 1;
nodes = (
"240 700 LINE",
"240 99 LINE",
"4 99 LINE",
"4 0 LINE",
"590 0 LINE",
"590 99 LINE",
"354 99 LINE",
"354 700 LINE"
);
}
);
width = 594;
},
{
layerId = "5DA6E103-6A94-47F2-987D-4952DB8EA68E";
paths = (
{
closed = 1;
nodes = (
"209 700 LINE",
"209 183 LINE",
"4 183 LINE",
"4 0 LINE",
"650 0 LINE",
"650 183 LINE",
"445 183 LINE",
"445 700 LINE"
);
}
);
width = 654;
}
);
leftKerningGroup = Tturned;
rightKerningGroup = Tturned;
unicode = A7B1;
},
{
color = 8;
glyphname = U;
layers = (
{
anchors = (
{
name = bottom;
position = "{397, 0}";
},
{
name = center;
position = "{397, 354}";
},
{
name = ogonek;
position = "{583, 0}";
},
{
name = top;
position = "{397, 700}";
},
{
name = topright;
position = "{672, 700}";
}
);
layerId = UUID0;
paths = (
{
closed = 1;
nodes = (
"564 -3 OFFCURVE",
"667 95 OFFCURVE",
"667 293 CURVE SMOOTH",
"667 700 LINE",
"647 700 LINE",
"647 294 LINE SMOOTH",
"647 107 OFFCURVE",
"556 16 OFFCURVE",
"397 16 CURVE SMOOTH",
"238 16 OFFCURVE",
"147 107 OFFCURVE",
"147 294 CURVE SMOOTH",
"147 700 LINE",
"127 700 LINE",
"127 293 LINE SMOOTH",
"127 95 OFFCURVE",
"230 -3 OFFCURVE",
"397 -3 CURVE SMOOTH"
);
}
);
width = 794;
},
{
anchors = (
{
name = bottom;
position = "{394, 0}";
},
{
name = center;
position = "{394, 377}";
},
{
name = ogonek;
position = "{620, 0}";
},
{
name = top;
position = "{394, 700}";
},
{
name = topright;
position = "{640, 700}";
}
);
layerId = "5DA6E103-6A94-47F2-987D-4952DB8EA68E";
paths = (
{
closed = 1;
nodes = (
"607 -16 OFFCURVE",
"733 105 OFFCURVE",
"733 315 CURVE SMOOTH",
"733 700 LINE",
"501 700 LINE",
"501 322 LINE SMOOTH",
"501 215 OFFCURVE",
"460 175 OFFCURVE",
"394 175 CURVE SMOOTH",
"328 175 OFFCURVE",
"287 215 OFFCURVE",
"287 322 CURVE SMOOTH",
"287 700 LINE",
"51 700 LINE",
"51 315 LINE SMOOTH",
"51 105 OFFCURVE",
"177 -16 OFFCURVE",
"392 -16 CURVE SMOOTH"
);
}
);
width = 784;
},
{
anchors = (
{
name = bottom;
position = "{396, 0}";
},
{
name = center;
position = "{396, 359}";
},
{
name = ogonek;
position = "{599, 0}";
},
{
name = top;
position = "{396, 700}";
},
{
name = topright;
position = "{658, 700}";
}
);
layerId = "708134FE-A11E-43C9-84F0-594DA15B6BD1";
paths = (
{
closed = 1;
nodes = (
"583 -9 OFFCURVE",
"696 100 OFFCURVE",
"696 304 CURVE SMOOTH",
"696 700 LINE",
"584 700 LINE",
"584 308 LINE SMOOTH",
"584 159 OFFCURVE",
"516 93 OFFCURVE",
"396 93 CURVE SMOOTH",
"276 93 OFFCURVE",
"208 159 OFFCURVE",
"208 308 CURVE SMOOTH",
"208 700 LINE",
"94 700 LINE",
"94 304 LINE SMOOTH",
"94 100 OFFCURVE",
"207 -9 OFFCURVE",
"395 -9 CURVE SMOOTH"
);
}
);
width = 790;
}
);
leftKerningGroup = U;
rightKerningGroup = U;
rightMetricsKey = "=|";
unicode = 0055;
},
{
color = 3;
glyphname = Ubar;
layers = (
{
anchors = (
{
name = bottom;
position = "{397, 0}";
},
{
name = center;
position = "{397, 354}";
},
{
name = ogonek;
position = "{583, 0}";
},
{
name = top;
position = "{397, 700}";
},
{
name = topright;
position = "{672, 700}";
}
);
guideLines = (
{
position = "{390, 364}";
}
);
layerId = UUID0;
paths = (
{
closed = 1;
nodes = (
"564 -3 OFFCURVE",
"667 95 OFFCURVE",
"667 293 CURVE SMOOTH",
"667 700 LINE",
"647 700 LINE",
"647 294 LINE SMOOTH",
"647 107 OFFCURVE",
"556 16 OFFCURVE",
"397 16 CURVE SMOOTH",
"238 16 OFFCURVE",
"147 107 OFFCURVE",
"147 294 CURVE SMOOTH",
"147 700 LINE",
"127 700 LINE",
"127 293 LINE SMOOTH",
"127 95 OFFCURVE",
"230 -3 OFFCURVE",
"397 -3 CURVE SMOOTH"
);
},
{
closed = 1;
nodes = (
"787 345 LINE",
"787 364 LINE",
"7 364 LINE",
"7 345 LINE"
);
}
);
width = 794;
},
{
anchors = (
{
name = bottom;
position = "{395, 0}";
},
{
name = center;
position = "{395, 359}";
},
{
name = ogonek;
position = "{598, 0}";
},
{
name = top;
position = "{395, 700}";
},
{
name = topright;
position = "{657, 700}";
}
);
layerId = "708134FE-A11E-43C9-84F0-594DA15B6BD1";
paths = (
{
closed = 1;
nodes = (
"582 -9 OFFCURVE",
"695 100 OFFCURVE",
"695 304 CURVE SMOOTH",
"695 700 LINE",
"583 700 LINE",
"583 308 LINE SMOOTH",
"583 159 OFFCURVE",
"515 93 OFFCURVE",
"395 93 CURVE SMOOTH",
"275 93 OFFCURVE",
"207 159 OFFCURVE",
"207 308 CURVE SMOOTH",
"207 700 LINE",
"93 700 LINE",
"93 304 LINE SMOOTH",
"93 100 OFFCURVE",
"206 -9 OFFCURVE",
"394 -9 CURVE SMOOTH"
);
},
{
closed = 1;
nodes = (
"795 314 LINE",
"795 404 LINE",
"-7 404 LINE",
"-7 314 LINE"
);
}
);
width = 789;
},
{
anchors = (
{
name = bottom;
position = "{398, 0}";
},
{
name = center;
position = "{398, 377}";
},
{
name = ogonek;
position = "{624, 0}";
},
{
name = top;
position = "{398, 700}";
},
{
name = topright;
position = "{644, 700}";
}
);
guideLines = (
{
position = "{396, 452}";
}
);
layerId = "5DA6E103-6A94-47F2-987D-4952DB8EA68E";
paths = (
{
closed = 1;
nodes = (
"611 -16 OFFCURVE",
"737 105 OFFCURVE",
"737 315 CURVE SMOOTH",
"737 700 LINE",
"505 700 LINE",
"505 322 LINE SMOOTH",
"505 215 OFFCURVE",
"464 175 OFFCURVE",
"398 175 CURVE SMOOTH",
"332 175 OFFCURVE",
"291 215 OFFCURVE",
"291 322 CURVE SMOOTH",
"291 700 LINE",
"55 700 LINE",
"55 315 LINE SMOOTH",
"55 105 OFFCURVE",
"181 -16 OFFCURVE",
"396 -16 CURVE SMOOTH"
);
},
{
closed = 1;
nodes = (
"808 287 LINE",
"808 423 LINE",
"-15 423 LINE",
"-15 287 LINE"
);
}
);
width = 793;
}
);
leftKerningGroup = Lbar;
rightKerningGroup = Istroke;
unicode = 0244;
},
{
glyphname = Uogonek;
layers = (
{
anchors = (
{
name = bottom;
position = "{397, -213}";
},
{
name = center;
position = "{397, 354}";
},
{
name = top;
position = "{397, 700}";
},
{
name = topright;
position = "{672, 700}";
}
);
layerId = UUID0;
paths = (
{
closed = 1;
nodes = (
"433 -213 OFFCURVE",
"457 -205 OFFCURVE",
"479 -186 CURVE",
"468 -171 LINE",
"452 -186 OFFCURVE",
"429 -194 OFFCURVE",
"406 -194 CURVE SMOOTH",
"365 -194 OFFCURVE",
"334 -173 OFFCURVE",
"334 -130 CURVE SMOOTH",
"334 -93 OFFCURVE",
"355 -36 OFFCURVE",
"490 8 CURVE SMOOTH",
"602 44 OFFCURVE",
"667 132 OFFCURVE",
"667 293 CURVE SMOOTH",
"667 700 LINE",
"647 700 LINE",
"647 294 LINE SMOOTH",
"647 107 OFFCURVE",
"556 16 OFFCURVE",
"397 16 CURVE SMOOTH",
"238 16 OFFCURVE",
"147 107 OFFCURVE",
"147 294 CURVE SMOOTH",
"147 700 LINE",
"127 700 LINE",
"127 293 LINE SMOOTH",
"127 95 OFFCURVE",
"230 -3 OFFCURVE",
"397 -3 CURVE SMOOTH",
"409 -3 OFFCURVE",
"423 -2 OFFCURVE",
"435 -1 CURVE",
"451 14 LINE",
"336 -31 OFFCURVE",
"314 -89 OFFCURVE",
"314 -130 CURVE SMOOTH",
"314 -182 OFFCURVE",
"353 -213 OFFCURVE",
"405 -213 CURVE SMOOTH"
);
}
);
width = 794;
},
{
anchors = (
{
name = bottom;
position = "{394, -240}";
},
{
name = center;
position = "{394, 377}";
},
{
name = top;
position = "{394, 700}";
},
{
name = topright;
position = "{640, 700}";
}
);
layerId = "5DA6E103-6A94-47F2-987D-4952DB8EA68E";
paths = (
{
closed = 1;
nodes = (
"471 -240 OFFCURVE",
"517 -230 OFFCURVE",
"541 -217 CURVE",
"514 -124 LINE",
"499 -131 OFFCURVE",
"477 -138 OFFCURVE",
"455 -138 CURVE SMOOTH",
"418 -138 OFFCURVE",
"402 -120 OFFCURVE",
"402 -97 CURVE SMOOTH",
"402 -66 OFFCURVE",
"433 -35 OFFCURVE",
"540 7 CURVE SMOOTH",
"655 52 OFFCURVE",
"733 149 OFFCURVE",
"733 315 CURVE SMOOTH",
"733 700 LINE",
"501 700 LINE",
"501 322 LINE SMOOTH",
"501 215 OFFCURVE",
"460 175 OFFCURVE",
"394 175 CURVE SMOOTH",
"328 175 OFFCURVE",
"287 215 OFFCURVE",
"287 322 CURVE SMOOTH",
"287 700 LINE",
"51 700 LINE",
"51 315 LINE SMOOTH",
"51 105 OFFCURVE",
"177 -16 OFFCURVE",
"392 -16 CURVE SMOOTH",
"409 -16 OFFCURVE",
"425 -15 OFFCURVE",
"442 -14 CURVE",
"437 49 LINE",
"331 16 OFFCURVE",
"270 -43 OFFCURVE",
"270 -117 CURVE SMOOTH",
"270 -192 OFFCURVE",
"328 -240 OFFCURVE",
"428 -240 CURVE SMOOTH"
);
}
);
width = 784;
},
{
anchors = (
{
name = bottom;
position = "{396, -225}";
},
{
name = center;
position = "{396, 359}";
},
{
name = top;
position = "{396, 700}";
},
{
name = topright;
position = "{658, 700}";
}
);
layerId = "708134FE-A11E-43C9-84F0-594DA15B6BD1";
paths = (
{
closed = 1;
nodes = (
"454 -226 OFFCURVE",
"488 -217 OFFCURVE",
"513 -203 CURVE",
"493 -147 LINE",
"477 -157 OFFCURVE",
"453 -163 OFFCURVE",
"432 -163 CURVE SMOOTH",
"397 -163 OFFCURVE",
"372 -145 OFFCURVE",
"372 -113 CURVE SMOOTH",
"372 -78 OFFCURVE",
"398 -34 OFFCURVE",
"514 8 CURVE SMOOTH",
"625 48 OFFCURVE",
"696 140 OFFCURVE",
"696 304 CURVE SMOOTH",
"696 700 LINE",
"584 700 LINE",
"584 308 LINE SMOOTH",
"584 159 OFFCURVE",
"516 93 OFFCURVE",
"396 93 CURVE SMOOTH",
"276 93 OFFCURVE",
"208 159 OFFCURVE",
"208 308 CURVE SMOOTH",
"208 700 LINE",
"94 700 LINE",
"94 304 LINE SMOOTH",
"94 100 OFFCURVE",
"207 -9 OFFCURVE",
"395 -9 CURVE SMOOTH",
"409 -9 OFFCURVE",
"424 -8 OFFCURVE",
"438 -7 CURVE",
"439 35 LINE",
"333 -7 OFFCURVE",
"295 -66 OFFCURVE",
"295 -122 CURVE SMOOTH",
"295 -183 OFFCURVE",
"341 -226 OFFCURVE",
"420 -226 CURVE SMOOTH"
);
}
);
width = 790;
}
);
leftKerningGroup = U;
leftMetricsKey = U;
rightKerningGroup = U;
rightMetricsKey = U;
unicode = 0172;
},
{
color = 8;
glyphname = "Upsilon-latin";
layers = (
{
anchors = (
{
name = bottom;
position = "{425, 0}";
},
{
name = top;
position = "{425, 700}";
}
);
layerId = UUID0;
paths = (
{
closed = 1;
nodes = (
"550 700 LINE",
"550 681 LINE",
"691 608 OFFCURVE",
"764 485 OFFCURVE",
"764 350 CURVE SMOOTH",
"764 159 OFFCURVE",
"618 16 OFFCURVE",
"425 16 CURVE SMOOTH",
"232 16 OFFCURVE",
"86 159 OFFCURVE",
"86 350 CURVE SMOOTH",
"86 485 OFFCURVE",
"159 608 OFFCURVE",
"300 681 CURVE",
"300 700 LINE",
"10 700 LINE",
"10 680 LINE",
"259 680 LINE",
"130 605 OFFCURVE",
"66 479 OFFCURVE",
"66 350 CURVE SMOOTH",
"66 148 OFFCURVE",
"220 -3 OFFCURVE",
"425 -3 CURVE SMOOTH",
"630 -3 OFFCURVE",
"784 148 OFFCURVE",
"784 350 CURVE SMOOTH",
"784 479 OFFCURVE",
"720 605 OFFCURVE",
"591 680 CURVE",
"840 680 LINE",
"840 700 LINE"
);
}
);
width = 850;
},
{
anchors = (
{
name = bottom;
position = "{428, 0}";
},
{
name = top;
position = "{428, 700}";
}
);
layerId = "708134FE-A11E-43C9-84F0-594DA15B6BD1";
paths = (
{
closed = 1;
nodes = (
"516 700 LINE",
"516 608 LINE",
"627 553 OFFCURVE",
"686 455 OFFCURVE",
"686 345 CURVE SMOOTH",
"686 195 OFFCURVE",
"580 93 OFFCURVE",
"428 93 CURVE SMOOTH",
"276 93 OFFCURVE",
"170 195 OFFCURVE",
"170 345 CURVE SMOOTH",
"170 454 OFFCURVE",
"229 552 OFFCURVE",
"340 608 CURVE",
"340 700 LINE",
"19 700 LINE",
"19 601 LINE",
"170 601 LINE",
"98 538 OFFCURVE",
"55 448 OFFCURVE",
"55 339 CURVE SMOOTH",
"55 133 OFFCURVE",
"216 -9 OFFCURVE",
"428 -9 CURVE SMOOTH",
"640 -9 OFFCURVE",
"801 133 OFFCURVE",
"801 339 CURVE SMOOTH",
"801 448 OFFCURVE",
"758 538 OFFCURVE",
"686 601 CURVE",
"837 601 LINE",
"837 700 LINE"
);
}
);
width = 856;
},
{
anchors = (
{
name = bottom;
position = "{429, 0}";
},
{
name = top;
position = "{429, 700}";
}
);
layerId = "5DA6E103-6A94-47F2-987D-4952DB8EA68E";
paths = (
{
closed = 1;
nodes = (
"470 700 LINE",
"470 530 LINE",
"541 494 OFFCURVE",
"586 423 OFFCURVE",
"586 339 CURVE SMOOTH",
"586 233 OFFCURVE",
"516 175 OFFCURVE",
"429 175 CURVE SMOOTH",
"342 175 OFFCURVE",
"272 233 OFFCURVE",
"272 339 CURVE SMOOTH",
"272 422 OFFCURVE",
"316 492 OFFCURVE",
"388 530 CURVE",
"388 700 LINE",
"28 700 LINE",
"28 517 LINE",
"118 517 LINE",
"71 467 OFFCURVE",
"38 395 OFFCURVE",
"38 307 CURVE SMOOTH",
"38 117 OFFCURVE",
"207 -16 OFFCURVE",
"429 -16 CURVE SMOOTH",
"651 -16 OFFCURVE",
"820 117 OFFCURVE",
"820 306 CURVE SMOOTH",
"820 394 OFFCURVE",
"787 467 OFFCURVE",
"740 517 CURVE",
"830 517 LINE",
"830 700 LINE"
);
}
);
width = 858;
}
);
leftKerningGroup = "Upsilon-latin";
rightKerningGroup = "Upsilon-latin";
unicode = 01B1;
},
{
glyphname = V;
layers = (
{
anchors = (
{
name = bottom;
position = "{335, 0}";
},
{
name = ogonek;
position = "{345, 0}";
},
{
name = top;
position = "{335, 700}";
}
);
layerId = UUID0;
paths = (
{
closed = 1;
nodes = (
"345 0 LINE",
"660 700 LINE",
"637 700 LINE",
"330 16 LINE",
"340 16 LINE",
"33 700 LINE",
"10 700 LINE",
"325 0 LINE"
);
}
);
width = 670;
},
{
anchors = (
{
name = bottom;
position = "{393, 0}";
},
{
name = ogonek;
position = "{509, 0}";
},
{
name = top;
position = "{393, 700}";
}
);
guideLines = (
{
angle = 113.6122;
position = "{368, 350}";
}
);
layerId = "5DA6E103-6A94-47F2-987D-4952DB8EA68E";
paths = (
{
closed = 1;
nodes = (
"509 0 LINE",
"805 700 LINE",
"573 700 LINE",
"325 109 LINE",
"476 109 LINE",
"235 700 LINE",
"-19 700 LINE",
"277 0 LINE"
);
}
);
width = 786;
},
{
anchors = (
{
name = bottom;
position = "{360, 0}";
},
{
name = ogonek;
position = "{417, 0}";
},
{
name = top;
position = "{360, 700}";
}
);
layerId = "708134FE-A11E-43C9-84F0-594DA15B6BD1";
paths = (
{
closed = 1;
nodes = (
"417 0 LINE",
"723 700 LINE",
"609 700 LINE",
"328 61 LINE",
"399 61 LINE",
"121 700 LINE",
"-3 700 LINE",
"304 0 LINE"
);
}
);
width = 720;
}
);
leftKerningGroup = V;
rightKerningGroup = V;
rightMetricsKey = "=|";
unicode = 0056;
},
